<?xml version="1.0" encoding="UTF-8" standalone="no"?>
<!-- Generator: Adobe Illustrator 19.2.1, SVG Export Plug-In . SVG Version: 6.00 Build 0)  -->

<svg
   xmlns:dc="http://purl.org/dc/elements/1.1/"
   xmlns:cc="http://creativecommons.org/ns#"
   xmlns:rdf="http://www.w3.org/1999/02/22-rdf-syntax-ns#"
   xmlns:svg="http://www.w3.org/2000/svg"
   xmlns="http://www.w3.org/2000/svg"
   xmlns:sodipodi="http://sodipodi.sourceforge.net/DTD/sodipodi-0.dtd"
   xmlns:inkscape="http://www.inkscape.org/namespaces/inkscape"
   version="1.1"
   id="Layer_1"
   x="0px"
   y="0px"
   width="40.986935"
   height="42.331669"
   viewBox="0 0 40.986935 42.331669"
   xml:space="preserve"
   inkscape:version="0.91 r13725"
   sodipodi:docname="arrowmarker-selected.svg"><metadata
     id="metadata8"><rdf:RDF><cc:Work
         rdf:about=""><dc:format>image/svg+xml</dc:format><dc:type
           rdf:resource="http://purl.org/dc/dcmitype/StillImage" /><dc:title /></cc:Work></rdf:RDF></metadata><defs
     id="defs6"><filter
       style="color-interpolation-filters:sRGB"
       inkscape:label="Fade to Black or White"
       id="filter4238"><feColorMatrix
         values="1 0 0 0 0 0 1 0 0 0 0 0 1 0 0 0 0 0 1 0"
         id="feColorMatrix4240"
         result="fbSourceGraphic" /><feColorMatrix
         result="fbSourceGraphicAlpha"
         in="fbSourceGraphic"
         values="0 0 0 -1 0 0 0 0 -1 0 0 0 0 -1 0 0 0 0 1 0"
         id="feColorMatrix4242" /><feColorMatrix
         id="feColorMatrix4244"
         values="1 0 0 0 0 0 1 0 0 0 0 0 1 0 0 0 0 0 1 0"
         in="fbSourceGraphic" /></filter></defs><sodipodi:namedview
     pagecolor="#ffffff"
     bordercolor="#666666"
     borderopacity="1"
     objecttolerance="10"
     gridtolerance="10"
     guidetolerance="10"
     inkscape:pageopacity="0"
     inkscape:pageshadow="2"
     inkscape:window-width="1865"
     inkscape:window-height="1056"
     id="namedview4"
     showgrid="false"
     inkscape:zoom="7.8666662"
     inkscape:cx="16.909457"
     inkscape:cy="14.976578"
     inkscape:window-x="55"
     inkscape:window-y="24"
     inkscape:window-maximized="1"
     inkscape:current-layer="g4173"
     showguides="false"
     fit-margin-top="0"
     fit-margin-left="0"
     fit-margin-right="0"
     fit-margin-bottom="0" /><g
     transform="matrix(0.01627943,0,0,0.01627943,13.415892,22.661935)"
     inkscape:label="Layer 1"
     id="layer1"><g
       id="g4094"
       style="filter:url(#filter4238)"
       transform="translate(9.7606799,2.928204)"><g
         transform="matrix(61.427212,0,0,61.427212,-37690.602,-21788.014)"
         inkscape:label="Calque 1"
         id="layer1-1"
         style="stroke:#000000"><g
           id="g4158"
           transform="matrix(0.06919744,0,0,0.06919744,597.91106,308.84794)"
           style="stroke:#000000"><g
             id="g4173"
             style="stroke:#1a1a1a"
             transform="translate(-5.5111279,5.5111279)"><g
               id="g4149"
               style="fill:#00ffff"><path
                 transform="matrix(0.22157465,0,0,0.22157465,236.76723,671.62449)"
                 style="fill:#00ffff;fill-opacity:1;stroke:#1a1a1a;stroke-width:43.90217209;stroke-miterlimit:4;stroke-dasharray:none;stroke-opacity:1;filter:url(#filter4238)"
                 d="M 55.935027,221.07013 -65.905573,325.06671 465.91203,1170.3139 954.66491,334.97857 798.02338,255.9322 C 518.79118,354.55972 342.52633,366.73309 55.935027,221.07013 Z"
                 id="path4216"
                 inkscape:connector-curvature="0"
                 sodipodi:nodetypes="cccccc" /><g
                 transform="matrix(0.94182652,0,0,0.94182652,10.504805,69.220769)"
                 style="stroke:#000000;stroke-width:9.66798782;stroke-miterlimit:4;stroke-dasharray:none;stroke-opacity:1;fill:#00ffff"
                 id="g4168"><g
                   style="stroke:#000000;stroke-width:9.66798782;stroke-miterlimit:4;stroke-dasharray:none;stroke-opacity:1;fill:#00ffff"
                   id="g4165"><path
                     id="rect9675"
                     style="color:#000000;fill:#00ffff;stroke:#000000;stroke-width:9.66798782;stroke-miterlimit:4;stroke-dasharray:none;stroke-opacity:1"
                     inkscape:connector-curvature="0"
                     d="m 347,294.74 c -15.609,1.3517 -29.034,15.263 -31.628,33.928 l -2.8752,21.277 c -0.5774,1.0227 -1.2176,1.9796 -1.7252,3.067 l -55.588,119.23 c -2.2496,4.8193 -3.5652,9.8737 -4.0254,14.76 l -30.094,0 c -19.705,0 -35.653,15.756 -35.653,35.462 l 0,112.52 c 0,19.705 15.948,35.653 35.653,35.653 l 52.33,0 c 11.978,10.839 27.737,17.443 45.238,17.443 l 71.307,0 c 37.439,0 67.473,-30.034 67.473,-67.473 l 0,-115.97 c 0,-37.439 -30.034,-67.473 -67.473,-67.473 l -22.044,0 13.61,-98.909 c 2.9652,-21.332 -9.2642,-40.618 -27.602,-43.321 -2.2923,-0.338 -4.6709,-0.38427 -6.9006,-0.19113 z" /></g></g><rect
                 id="rect9623-6"
                 style="color:#000000;fill:#00ffff;stroke:#1a1a1a;stroke-width:10.234828"
                 transform="matrix(0,1,-1,0,0,0)"
                 ry="26.772362"
                 height="144.16539"
                 width="57.660503"
                 y="-513.35504"
                 x="477.4422" /><rect
                 id="rect9623-6-5"
                 style="color:#000000;fill:#00ffff;stroke:#1a1a1a;stroke-width:10.234828"
                 inkscape:transform-center-x="-2.8211614"
                 inkscape:transform-center-y="-6.4459204"
                 transform="matrix(0,1,-1,0,0,0)"
                 ry="28.830252"
                 width="57.660503"
                 y="-535.58215"
                 x="536.74902"
                 height="166.39249" /><rect
                 id="rect9671"
                 style="color:#000000;fill:#00ffff;stroke:#1a1a1a;stroke-width:10.234828"
                 inkscape:transform-center-x="-2.5089023"
                 inkscape:transform-center-y="-6.4459219"
                 transform="matrix(0,1,-1,0,0,0)"
                 ry="28.830252"
                 width="57.660503"
                 y="-517.16949"
                 x="596.05585"
                 height="147.97037" /><rect
                 id="rect9673"
                 style="color:#000000;fill:#00ffff;stroke:#1a1a1a;stroke-width:10.234828"
                 inkscape:transform-center-x="-2.1750964"
                 inkscape:transform-center-y="-6.4459234"
                 transform="matrix(0,1,-1,0,0,0)"
                 ry="28.830252"
                 width="57.660503"
                 y="-497.47586"
                 x="655.36267"
                 height="128.28619" /></g><g
               style="fill:#00ffff"
               id="g4159"><path
                 sodipodi:nodetypes="cccccc"
                 inkscape:connector-curvature="0"
                 id="path4161"
                 d="M 55.935027,221.07013 -65.905573,325.06671 465.91203,1170.3139 954.66491,334.97857 798.02338,255.9322 C 518.79118,354.55972 342.52633,366.73309 55.935027,221.07013 Z"
                 style="fill:#00ffff;fill-opacity:1;stroke:#1a1a1a;stroke-width:43.90217209;stroke-miterlimit:4;stroke-dasharray:none;stroke-opacity:1;filter:url(#filter4238)"
                 transform="matrix(0.22157465,0,0,0.22157465,236.76723,671.62449)" /><g
                 id="g4163"
                 style="stroke:#000000;stroke-width:9.66798782;stroke-miterlimit:4;stroke-dasharray:none;stroke-opacity:1;fill:#00ffff"
                 transform="matrix(0.94182652,0,0,0.94182652,10.504805,69.220769)"><g
                   id="g4166"
                   style="stroke:#000000;stroke-width:9.66798782;stroke-miterlimit:4;stroke-dasharray:none;stroke-opacity:1;fill:#00ffff"><path
                     d="m 347,294.74 c -15.609,1.3517 -29.034,15.263 -31.628,33.928 l -2.8752,21.277 c -0.5774,1.0227 -1.2176,1.9796 -1.7252,3.067 l -55.588,119.23 c -2.2496,4.8193 -3.5652,9.8737 -4.0254,14.76 l -30.094,0 c -19.705,0 -35.653,15.756 -35.653,35.462 l 0,112.52 c 0,19.705 15.948,35.653 35.653,35.653 l 52.33,0 c 11.978,10.839 27.737,17.443 45.238,17.443 l 71.307,0 c 37.439,0 67.473,-30.034 67.473,-67.473 l 0,-115.97 c 0,-37.439 -30.034,-67.473 -67.473,-67.473 l -22.044,0 13.61,-98.909 c 2.9652,-21.332 -9.2642,-40.618 -27.602,-43.321 -2.2923,-0.338 -4.6709,-0.38427 -6.9006,-0.19113 z"
                     inkscape:connector-curvature="0"
                     style="color:#000000;fill:#00ffff;stroke:#000000;stroke-width:9.66798782;stroke-miterlimit:4;stroke-dasharray:none;stroke-opacity:1"
                     id="path4168" /></g></g><rect
                 x="477.4422"
                 y="-513.35504"
                 width="57.660503"
                 height="144.16539"
                 ry="26.772362"
                 transform="matrix(0,1,-1,0,0,0)"
                 style="color:#000000;fill:#00ffff;stroke:#1a1a1a;stroke-width:10.234828"
                 id="rect4170" /><rect
                 height="166.39249"
                 x="536.74902"
                 y="-535.58215"
                 width="57.660503"
                 ry="28.830252"
                 transform="matrix(0,1,-1,0,0,0)"
                 inkscape:transform-center-y="-6.4459204"
                 inkscape:transform-center-x="-2.8211614"
                 style="color:#000000;fill:#00ffff;stroke:#1a1a1a;stroke-width:10.234828"
                 id="rect4172" /><rect
                 height="147.97037"
                 x="596.05585"
                 y="-517.16949"
                 width="57.660503"
                 ry="28.830252"
                 transform="matrix(0,1,-1,0,0,0)"
                 inkscape:transform-center-y="-6.4459219"
                 inkscape:transform-center-x="-2.5089023"
                 style="color:#000000;fill:#00ffff;stroke:#1a1a1a;stroke-width:10.234828"
                 id="rect4174" /><rect
                 height="128.28619"
                 x="655.36267"
                 y="-497.47586"
                 width="57.660503"
                 ry="28.830252"
                 transform="matrix(0,1,-1,0,0,0)"
                 inkscape:transform-center-y="-6.4459234"
                 inkscape:transform-center-x="-2.1750964"
                 style="color:#000000;fill:#00ffff;stroke:#1a1a1a;stroke-width:10.234828"
                 id="rect4176" /></g></g></g></g></g></g></svg>