<?xml version="1.0" encoding="UTF-8" standalone="no"?>
<!-- Generator: Adobe Illustrator 19.2.1, SVG Export Plug-In . SVG Version: 6.00 Build 0)  -->

<svg
   xmlns:dc="http://purl.org/dc/elements/1.1/"
   xmlns:cc="http://creativecommons.org/ns#"
   xmlns:rdf="http://www.w3.org/1999/02/22-rdf-syntax-ns#"
   xmlns:svg="http://www.w3.org/2000/svg"
   xmlns="http://www.w3.org/2000/svg"
   xmlns:sodipodi="http://sodipodi.sourceforge.net/DTD/sodipodi-0.dtd"
   xmlns:inkscape="http://www.inkscape.org/namespaces/inkscape"
   version="1.1"
   id="Layer_1"
   x="0px"
   y="0px"
   width="720"
   height="67"
   viewBox="0 0 720 67"
   xml:space="preserve"
   inkscape:version="0.91 r13725"
   sodipodi:docname="categorypin.svg"><metadata
     id="metadata9"><rdf:RDF><cc:Work
         rdf:about=""><dc:format>image/svg+xml</dc:format><dc:type
           rdf:resource="http://purl.org/dc/dcmitype/StillImage" /><dc:title></dc:title></cc:Work></rdf:RDF></metadata><defs
     id="defs7"><filter
       style="color-interpolation-filters:sRGB"
       inkscape:label="Fade to Black or White"
       id="filter4238"><feColorMatrix
         values="1 0 0 0 0 0 1 0 0 0 0 0 1 0 0 0 0 0 1 0"
         id="feColorMatrix4240"
         result="fbSourceGraphic" /><feColorMatrix
         result="fbSourceGraphicAlpha"
         in="fbSourceGraphic"
         values="0 0 0 -1 0 0 0 0 -1 0 0 0 0 -1 0 0 0 0 1 0"
         id="feColorMatrix4242" /><feColorMatrix
         id="feColorMatrix4244"
         values="1 0 0 0 0 0 1 0 0 0 0 0 1 0 0 0 0 0 1 0"
         in="fbSourceGraphic" /></filter><pattern
       id="EMFhbasepattern"
       patternUnits="userSpaceOnUse"
       width="6"
       height="6"
       x="0"
       y="0" /><filter
       style="color-interpolation-filters:sRGB"
       inkscape:label="Silhouette"
       id="filter4430"><feColorMatrix
         values="1 0 0 0 0 0 1 0 0 0 0 0 1 0 0 0 0 0 1 0"
         id="feColorMatrix4432"
         result="fbSourceGraphic" /><feColorMatrix
         result="fbSourceGraphicAlpha"
         in="fbSourceGraphic"
         values="0 0 0 -1 0 0 0 0 -1 0 0 0 0 -1 0 0 0 0 1 0"
         id="feColorMatrix4434" /><feColorMatrix
         id="feColorMatrix4436"
         values="1 0 0 0 0 0 1 0 0 0 0 0 1 0 0 0 0 0 1 0"
         in="fbSourceGraphic"
         result="fbSourceGraphic" /><feColorMatrix
         result="fbSourceGraphicAlpha"
         in="fbSourceGraphic"
         values="0 0 0 -1 0 0 0 0 -1 0 0 0 0 -1 0 0 0 0 1 0"
         id="feColorMatrix4438" /><feColorMatrix
         id="feColorMatrix4440"
         values="1 0 0 0 0 0 1 0 0 0 0 0 1 0 0 0 0 0 1 0"
         in="fbSourceGraphic"
         result="fbSourceGraphic" /><feColorMatrix
         result="fbSourceGraphicAlpha"
         in="fbSourceGraphic"
         values="0 0 0 -1 0 0 0 0 -1 0 0 0 0 -1 0 0 0 0 1 0"
         id="feColorMatrix4442" /><feColorMatrix
         id="feColorMatrix4444"
         values="1 0 0 0 0 0 1 0 0 0 0 0 1 0 0 0 0 0 1 0"
         in="fbSourceGraphic"
         result="fbSourceGraphic" /><feColorMatrix
         result="fbSourceGraphicAlpha"
         in="fbSourceGraphic"
         values="0 0 0 -1 0 0 0 0 -1 0 0 0 0 -1 0 0 0 0 1 0"
         id="feColorMatrix4446" /><feColorMatrix
         id="feColorMatrix4448"
         values="1 0 0 0 0 0 1 0 0 0 0 0 1 0 0 0 0 0 1 0"
         in="fbSourceGraphic"
         result="fbSourceGraphic" /><feColorMatrix
         result="fbSourceGraphicAlpha"
         in="fbSourceGraphic"
         values="0 0 0 -1 0 0 0 0 -1 0 0 0 0 -1 0 0 0 0 1 0"
         id="feColorMatrix4450" /><feColorMatrix
         id="feColorMatrix4452"
         values="1 0 0 0 0 0 1 0 0 0 0 0 1 0 0 0 0 0 1 0"
         in="fbSourceGraphic"
         result="fbSourceGraphic" /><feColorMatrix
         result="fbSourceGraphicAlpha"
         in="fbSourceGraphic"
         values="0 0 0 -1 0 0 0 0 -1 0 0 0 0 -1 0 0 0 0 1 0"
         id="feColorMatrix4454" /><feColorMatrix
         id="feColorMatrix4456"
         values="1 0 0 0 0 0 1 0 0 0 0 0 1 0 0 0 0 0 1 0"
         in="fbSourceGraphic"
         result="fbSourceGraphic" /><feColorMatrix
         result="fbSourceGraphicAlpha"
         in="fbSourceGraphic"
         values="0 0 0 -1 0 0 0 0 -1 0 0 0 0 -1 0 0 0 0 1 0"
         id="feColorMatrix4458" /><feColorMatrix
         id="feColorMatrix4460"
         values="1 0 0 0 0 0 1 0 0 0 0 0 1 0 0 0 0 0 1 0"
         in="fbSourceGraphic"
         result="fbSourceGraphic" /><feColorMatrix
         result="fbSourceGraphicAlpha"
         in="fbSourceGraphic"
         values="0 0 0 -1 0 0 0 0 -1 0 0 0 0 -1 0 0 0 0 1 0"
         id="feColorMatrix4462" /><feColorMatrix
         id="feColorMatrix4464"
         values="1 0 0 0 0 0 1 0 0 0 0 0 1 0 0 0 0 0 1 0"
         in="fbSourceGraphic"
         result="fbSourceGraphic" /><feColorMatrix
         result="fbSourceGraphicAlpha"
         in="fbSourceGraphic"
         values="0 0 0 -1 0 0 0 0 -1 0 0 0 0 -1 0 0 0 0 1 0"
         id="feColorMatrix4466" /><feColorMatrix
         id="feColorMatrix4468"
         values="1 0 0 0 0 0 1 0 0 0 0 0 1 0 0 0 0 0 1 0"
         in="fbSourceGraphic"
         result="fbSourceGraphic" /><feColorMatrix
         result="fbSourceGraphicAlpha"
         in="fbSourceGraphic"
         values="0 0 0 -1 0 0 0 0 -1 0 0 0 0 -1 0 0 0 0 1 0"
         id="feColorMatrix4470" /><feFlood
         id="feFlood4472"
         flood-opacity="1"
         flood-color="rgb(0,0,0)"
         result="flood"
         in="fbSourceGraphic" /><feComposite
         id="feComposite4474"
         in2="fbSourceGraphic"
         in="flood"
         operator="in"
         result="composite" /><feGaussianBlur
         id="feGaussianBlur4476"
         stdDeviation="0.01"
         result="fbSourceGraphic" /><feColorMatrix
         result="fbSourceGraphicAlpha"
         in="fbSourceGraphic"
         values="0 0 0 -1 0 0 0 0 -1 0 0 0 0 -1 0 0 0 0 1 0"
         id="feColorMatrix4478" /><feFlood
         id="feFlood4480"
         flood-opacity="1"
         flood-color="rgb(0,0,0)"
         result="flood"
         in="fbSourceGraphic" /><feComposite
         id="feComposite4482"
         in2="fbSourceGraphic"
         in="flood"
         operator="in"
         result="composite" /><feGaussianBlur
         id="feGaussianBlur4484"
         stdDeviation="0.01"
         result="fbSourceGraphic" /><feColorMatrix
         result="fbSourceGraphicAlpha"
         in="fbSourceGraphic"
         values="0 0 0 -1 0 0 0 0 -1 0 0 0 0 -1 0 0 0 0 1 0"
         id="feColorMatrix4494" /><feFlood
         id="feFlood4496"
         flood-opacity="0.917647"
         flood-color="rgb(10,0,0)"
         result="flood"
         in="fbSourceGraphic" /><feComposite
         id="feComposite4498"
         in2="fbSourceGraphic"
         in="flood"
         operator="in"
         result="composite" /><feGaussianBlur
         id="feGaussianBlur4500"
         stdDeviation="0.01"
         result="fbSourceGraphic" /><feColorMatrix
         result="fbSourceGraphicAlpha"
         in="fbSourceGraphic"
         values="0 0 0 -1 0 0 0 0 -1 0 0 0 0 -1 0 0 0 0 1 0"
         id="feColorMatrix4502" /><feFlood
         id="feFlood4504"
         flood-opacity="0.917647"
         flood-color="rgb(10,0,0)"
         result="flood"
         in="fbSourceGraphic" /><feComposite
         id="feComposite4506"
         in2="fbSourceGraphic"
         in="flood"
         operator="out"
         result="composite" /><feGaussianBlur
         id="feGaussianBlur4508"
         stdDeviation="0.01" /></filter><filter
       id="filter4238-6"
       inkscape:label="Fade to Black or White"
       style="color-interpolation-filters:sRGB"><feColorMatrix
         result="fbSourceGraphic"
         id="feColorMatrix4240-7"
         values="1 0 0 0 0 0 1 0 0 0 0 0 1 0 0 0 0 0 1 0" /><feColorMatrix
         id="feColorMatrix4242-5"
         values="0 0 0 -1 0 0 0 0 -1 0 0 0 0 -1 0 0 0 0 1 0"
         in="fbSourceGraphic"
         result="fbSourceGraphicAlpha" /><feColorMatrix
         in="fbSourceGraphic"
         values="1 0 0 0 0 0 1 0 0 0 0 0 1 0 0 0 0 0 1 0"
         id="feColorMatrix4244-3" /></filter><filter
       style="color-interpolation-filters:sRGB"
       inkscape:label="Fade to Black or White"
       id="filter4238-3"><feColorMatrix
         values="1 0 0 0 0 0 1 0 0 0 0 0 1 0 0 0 0 0 1 0"
         id="feColorMatrix4240-6"
         result="fbSourceGraphic" /><feColorMatrix
         result="fbSourceGraphicAlpha"
         in="fbSourceGraphic"
         values="0 0 0 -1 0 0 0 0 -1 0 0 0 0 -1 0 0 0 0 1 0"
         id="feColorMatrix4242-7" /><feColorMatrix
         id="feColorMatrix4244-5"
         values="1 0 0 0 0 0 1 0 0 0 0 0 1 0 0 0 0 0 1 0"
         in="fbSourceGraphic" /></filter><filter
       style="color-interpolation-filters:sRGB"
       inkscape:label="Fade to Black or White"
       id="filter4238-3-3"><feColorMatrix
         values="1 0 0 0 0 0 1 0 0 0 0 0 1 0 0 0 0 0 1 0"
         id="feColorMatrix4240-6-5"
         result="fbSourceGraphic" /><feColorMatrix
         result="fbSourceGraphicAlpha"
         in="fbSourceGraphic"
         values="0 0 0 -1 0 0 0 0 -1 0 0 0 0 -1 0 0 0 0 1 0"
         id="feColorMatrix4242-7-6" /><feColorMatrix
         id="feColorMatrix4244-5-2"
         values="1 0 0 0 0 0 1 0 0 0 0 0 1 0 0 0 0 0 1 0"
         in="fbSourceGraphic" /></filter></defs><sodipodi:namedview
     pagecolor="#ffffff"
     bordercolor="#666666"
     borderopacity="1"
     objecttolerance="10"
     gridtolerance="10"
     guidetolerance="10"
     inkscape:pageopacity="0"
     inkscape:pageshadow="2"
     inkscape:window-width="1865"
     inkscape:window-height="1056"
     id="namedview5"
     showgrid="false"
     inkscape:zoom="1.7520661"
     inkscape:cx="398.421"
     inkscape:cy="-14.860215"
     inkscape:window-x="55"
     inkscape:window-y="24"
     inkscape:window-maximized="1"
     inkscape:current-layer="Layer_1"
     inkscape:snap-text-baseline="true" /><path
     d="m 120.20722,15.021916 -6.90287,-6.8787428 c -0.46945,-0.473305 -1.23336,-0.476443 -1.70666,-0.007 -0.004,0.0024 -0.004,0.0046 -0.008,0.007 l -6.87874,6.8787428 -6.73392,0 c -0.66639,0 -1.206789,0.540404 -1.206789,1.206797 l 0,21.722342 c 0,0.666394 0.540399,1.206797 1.206789,1.206797 l 28.96313,0 c 0.66639,0 1.20679,-0.540403 1.20679,-1.206797 l 0,-21.722342 c 0,-0.666393 -0.5404,-1.206797 -1.20679,-1.206797 l -6.73392,0 z m -7.74763,-4.320334 4.32032,4.320334 -8.64066,0 4.32034,-4.320334 z m 13.27476,26.042677 -26.54953,0 0,-19.308749 26.54953,0 0,19.308749 z M 106.42562,24.676291 c -1.33305,0 -2.41362,-1.080566 -2.41362,-2.413595 0,-1.333027 1.08057,-2.413593 2.41362,-2.413593 1.33301,0 2.41358,1.080566 2.41358,2.413593 0,1.333029 -1.08057,2.413595 -2.41358,2.413595 z m 16.89515,9.654374 -18.10197,0 3.6204,-7.24078 3.017,6.033984 5.43057,-10.861173 6.034,12.067969 z"
     id="path3"
     inkscape:connector-curvature="0" /><path
     id="path4381"
     d="m 428.10536,7.1836922 c -0.57715,-0.0018 -0.75352,0.02635 -0.96907,0.129367 -0.29337,0.140208 -0.3684,0.302298 -0.25352,0.547573 0.0579,0.12359 0.0602,0.145836 0.0296,0.277217 -0.0183,0.07856 -0.0462,0.321716 -0.062,0.540375 l -0.0287,0.397571 0.0756,0.114289 0.0756,0.114288 -0.0611,0.141215 c -0.29817,0.6893858 -0.2995,0.7017998 -0.0851,0.8184968 0.13912,0.07573 0.14557,0.08818 0.13742,0.266391 -0.004,0.07961 0.009,0.109273 0.0634,0.144672 0.055,0.03604 0.0656,0.06108 0.0553,0.131184 -0.0101,0.06896 0.005,0.10592 0.0722,0.181239 0.0717,0.07985 0.0817,0.107444 0.0642,0.176876 -0.0541,0.215697 0.007,0.405467 0.14269,0.439406 0.0392,0.0098 0.20743,-0.0085 0.37382,-0.04082 0.1664,-0.0323 0.31174,-0.05857 0.32297,-0.05828 0.0297,6.39e-4 0.0251,0.292142 -0.006,0.347796 -0.0143,0.02599 -0.0765,0.224777 -0.1381,0.441789 -0.13868,0.488318 -0.18695,0.625864 -0.21973,0.625864 -0.0351,0 -0.18764,-0.244866 -0.18764,-0.301312 0,-0.02517 0.0184,-0.06102 0.0408,-0.07965 0.0262,-0.02172 0.0408,-0.08198 0.0408,-0.16786 0,-0.105952 -0.014,-0.147914 -0.0668,-0.200741 -0.0367,-0.03674 -0.0815,-0.06678 -0.0995,-0.06678 -0.02,0 -0.0138,-0.0208 0.016,-0.05374 0.0471,-0.05206 0.0459,-0.05626 -0.0374,-0.134072 -0.0508,-0.04744 -0.17291,-0.109281 -0.29825,-0.151023 -0.23159,-0.07713 -0.33825,-0.164766 -0.43436,-0.356869 -0.0304,-0.06086 -0.0738,-0.125942 -0.0963,-0.144617 -0.0633,-0.0525 -0.10658,0.05586 -0.12103,0.302899 l -0.0123,0.210888 -0.16974,0 c -0.29314,0 -0.39281,0.147038 -0.24615,0.363159 0.0653,0.0962 0.0656,0.09941 0.0139,0.1271 -0.0666,0.03567 -0.12482,0.146498 -0.15023,0.286233 -0.0108,0.05935 -0.0424,0.153319 -0.0704,0.208848 -0.0641,0.127436 -0.0635,0.144741 0.007,0.214856 0.0482,0.04819 0.0514,0.06313 0.0204,0.0936 -0.0854,0.08381 -0.37478,0.234146 -0.70885,0.368206 -0.49406,0.198256 -1.09903,0.531998 -1.36891,0.755173 -0.12229,0.101125 -0.3407,0.194555 -0.45551,0.194845 -0.16124,4.07e-4 -0.34566,-0.08519 -0.66379,-0.308225 -0.76077,-0.533365 -0.85528,-0.7111 -0.6427,-1.208189 l 0.10193,-0.238442 -0.007,-0.367353 c -0.004,-0.202044 -0.0205,-0.434704 -0.037,-0.517018 -0.0374,-0.187203 -0.15684,-0.431694 -0.30477,-0.623878 -0.18545,-0.240921 -0.61306,-0.569673 -0.98494,-0.757216 -0.81557,-0.4112885 -1.9551,-0.277357 -2.33134,0.273984 -0.132,0.19342 -0.22117,0.250304 -0.45415,0.289689 -0.4058,0.0686 -0.59051,0.192268 -0.65727,0.440202 -0.0673,0.249945 0.005,0.491437 0.36044,1.203539 0.22735,0.455518 0.28899,0.533702 0.71073,0.901609 0.13458,0.1174 0.15917,0.153897 0.17908,0.266275 0.0283,0.159574 0.0696,0.207318 0.27438,0.316445 0.26519,0.141343 0.53269,0.198744 0.96199,0.206355 0.47872,0.0085 0.48456,0.01264 0.50233,0.359362 0.0111,0.216 0.0237,0.261973 0.12993,0.471323 0.16815,0.331457 0.17156,0.383207 0.0515,0.788453 -0.0781,0.263686 -0.10088,0.387796 -0.10119,0.552223 -3.9e-4,0.203074 0.006,0.225659 0.15499,0.530622 0.0855,0.175189 0.23348,0.447118 0.32897,0.604265 0.0955,0.157148 0.26295,0.47552 0.37206,0.707498 l 0.19836,0.421779 -0.0106,0.204085 c -0.0265,0.509651 -0.0188,0.633581 0.0501,0.815209 0.0453,0.119301 0.10097,0.206662 0.17353,0.272114 0.31351,0.282767 0.29043,0.24419 0.29043,0.485328 0,0.514545 -0.11047,1.188684 -0.2495,1.522652 -0.0455,0.109252 -0.14157,0.303686 -0.21355,0.432095 -0.16197,0.288929 -0.3109,0.730512 -0.39633,1.175253 -0.15929,0.829339 -0.14792,1.012093 0.0951,1.527752 0.25762,0.546688 0.26658,0.587788 0.50688,2.327603 0.0537,0.389126 0.13304,0.891175 0.17619,1.115667 0.15887,0.826625 0.24894,1.390316 0.25346,1.585919 l 0.005,0.200686 -0.31293,0.08124 c -0.54758,0.142147 -0.922,0.310959 -1.40139,0.631758 -0.1347,0.09014 -0.34899,0.233528 -0.4762,0.31866 -0.7113,0.476002 -1.48637,0.833104 -1.94931,0.898092 -0.29236,0.04104 -0.51175,-0.0025 -0.83618,-0.166047 -0.37499,-0.188991 -0.41627,-0.184562 -0.70977,0.07608 -0.074,0.06576 -0.17921,0.142284 -0.23368,0.17007 -0.14846,0.07574 -0.5042,0.159208 -0.82008,0.192407 -0.42144,0.04429 -0.39414,0.03229 -0.41101,0.180902 -0.008,0.0713 -0.01,0.134699 -0.004,0.140876 0.006,0.0062 0.21391,-0.0063 0.46191,-0.02778 0.248,-0.02146 0.51438,-0.03263 0.59196,-0.02483 l 0.14105,0.01417 0.009,0.108846 c 0.0146,0.171788 -0.0443,0.377451 -0.15714,0.549216 -0.0572,0.08707 -0.27051,0.335486 -0.47405,0.552054 -0.48858,0.51986 -0.52468,0.588282 -0.56101,1.064533 -0.0618,0.810187 -0.0273,1.090834 0.15363,1.249688 0.088,0.07729 0.11319,0.08568 0.22053,0.07359 0.21626,-0.02437 0.32446,-0.15591 0.49746,-0.604661 0.12236,-0.3174 0.22593,-0.457272 0.60182,-0.812832 0.53121,-0.502467 0.82724,-0.696033 1.46245,-0.956198 0.16126,-0.06605 0.39614,-0.169944 0.52189,-0.230843 0.12576,-0.0609 0.38782,-0.16097 0.58238,-0.222399 0.97216,-0.306925 1.74455,-0.643033 2.34881,-1.022072 0.15441,-0.09686 0.28534,-0.171526 0.29093,-0.165933 0.006,0.0056 -0.0139,0.06394 -0.0434,0.129706 -0.0871,0.194649 -0.18137,0.605456 -0.27183,1.185285 -0.083,0.532265 -0.0845,0.559192 -0.0696,1.224519 0.008,0.374157 0.0365,0.857839 0.0624,1.074851 0.0477,0.400052 0.057,0.802477 0.0236,1.024967 -0.014,0.09339 -0.0852,0.22192 -0.30103,0.543094 -0.16357,0.243437 -0.29038,0.461361 -0.30086,0.517189 -0.01,0.05307 -0.0121,0.179799 -0.005,0.281583 0.0116,0.162328 0.0343,0.224704 0.1852,0.507776 0.30346,0.569365 0.31844,0.607151 0.36804,0.930234 l 0.0466,0.304089 0.13102,0 0.13095,0 -0.0398,-0.129253 c -0.22484,-0.730191 -0.27158,-0.935314 -0.23061,-1.011872 0.0406,-0.0758 0.0976,-0.07047 0.26367,0.02478 0.19275,0.110553 0.31556,0.271093 0.53924,0.704776 0.13756,0.266715 0.2109,0.380095 0.2614,0.404033 0.1273,0.06035 0.91384,0.0952 1.42429,0.0631 0.53158,-0.03343 0.60967,-0.04545 0.67564,-0.103633 0.0987,-0.08703 0.0316,-0.16782 -0.2076,-0.250116 -0.33552,-0.115437 -0.51388,-0.223012 -0.7198,-0.434193 -0.10973,-0.112524 -0.27097,-0.311497 -0.35834,-0.442129 -0.12944,-0.193505 -0.16739,-0.276872 -0.2046,-0.449896 -0.0251,-0.116808 -0.0994,-0.426656 -0.16508,-0.688565 -0.27264,-1.086949 -0.26873,-1.413124 0.0282,-2.337238 0.22855,-0.711245 0.58488,-2.215353 0.69485,-2.933056 0.061,-0.397827 0.0684,-0.425271 0.14298,-0.532947 0.0795,-0.114692 0.18239,-0.153438 0.48861,-0.183848 0.37074,-0.03682 0.45025,-0.06101 0.65795,-0.200288 l 0.1754,-0.117635 0.19406,0.403128 c 0.10673,0.221688 0.24762,0.565876 0.3131,0.76487 0.12039,0.365852 0.15497,0.518419 0.3834,1.693458 0.13438,0.691267 0.42445,1.747731 0.72513,2.640819 0.27044,0.803306 0.28032,0.820274 0.76895,1.317714 0.24896,0.25346 0.43997,0.471425 0.46452,0.53017 0.0535,0.128008 0.0183,0.257459 -0.12024,0.442187 -0.0543,0.07247 -0.12205,0.183987 -0.15046,0.247849 -0.0855,0.192184 -0.21171,0.241362 -0.78737,0.306754 -0.48205,0.05476 -0.64339,0.136655 -0.64339,0.326537 0,0.129727 0.083,0.234898 0.21237,0.269111 0.0553,0.01463 0.22302,0.03486 0.37268,0.04495 0.26943,0.01818 0.27252,0.01919 0.31293,0.101648 0.0737,0.15032 0.14262,0.17658 0.58505,0.222736 0.22449,0.02342 0.59185,0.0535 0.81634,0.06684 0.65478,0.0389 1.06109,0.01687 1.42861,-0.07749 0.17211,-0.04419 0.40384,-0.09403 0.51497,-0.110715 0.14468,-0.02172 0.26689,-0.06396 0.43034,-0.148814 0.22191,-0.1152 0.2306,-0.11735 0.31231,-0.07659 0.0725,0.03618 0.11418,0.03732 0.30352,0.0083 0.40679,-0.06227 0.94231,-0.27286 0.94231,-0.370528 0,-0.01689 -0.0232,-0.12142 -0.0515,-0.232318 -0.0284,-0.110901 -0.0662,-0.366958 -0.0841,-0.569003 -0.0376,-0.424136 -0.0857,-0.663506 -0.16429,-0.817591 -0.0306,-0.05992 -0.17128,-0.267094 -0.31265,-0.460384 -0.47788,-0.653385 -0.73122,-1.072471 -0.79843,-1.320721 -0.0162,-0.05986 -0.061,-0.249663 -0.0997,-0.421776 -0.08,-0.35649 -0.53964,-1.610943 -0.68301,-1.863988 -0.0509,-0.0898 -0.14445,-0.222832 -0.20794,-0.295639 l -0.11542,-0.132372 0.007,-0.257035 c 0.008,-0.300975 -0.005,-0.334511 -0.24592,-0.634708 -0.17924,-0.223488 -0.21476,-0.293211 -0.26344,-0.517018 -0.0297,-0.136684 -0.0263,-0.1709 0.0394,-0.394568 0.0656,-0.223128 0.0719,-0.285971 0.0712,-0.706874 -5.1e-4,-0.312979 0.0164,-0.585042 0.0523,-0.843555 0.0292,-0.209863 0.0721,-0.577504 0.0954,-0.816965 0.0499,-0.513198 0.15173,-1.033403 0.33913,-1.733769 0.0749,-0.279775 0.1732,-0.683738 0.21854,-0.897694 0.0453,-0.213956 0.15473,-0.664526 0.24314,-1.001269 0.0884,-0.336743 0.1685,-0.679607 0.17796,-0.761921 0.0399,-0.347801 0.18359,-1.193838 0.22341,-1.315899 0.0322,-0.09882 0.0389,-0.187674 0.0262,-0.351483 -0.0156,-0.201788 -0.0404,-0.351046 -0.17988,-1.080975 -0.0272,-0.142179 -0.11319,-0.429939 -0.19116,-0.639468 -0.34531,-0.927974 -0.42144,-1.343585 -0.40103,-2.189334 0.0165,-0.683117 0.0293,-0.742886 0.26027,-1.212102 0.19534,-0.396896 0.47882,-1.043042 0.72229,-1.646292 l 0.18124,-0.448988 0.12852,-0.05108 c 0.22456,-0.08928 1.16357,-0.578406 1.393,-0.725583 0.23993,-0.153911 0.32739,-0.272454 0.32739,-0.44383 0,-0.175262 -0.11267,-0.65675 -0.1932,-0.825754 -0.16752,-0.351531 -0.4485,-0.577005 -1.23302,-0.989362 -0.5093,-0.267694 -0.58597,-0.336032 -0.93528,-0.833748 -0.2751,-0.391967 -0.33244,-0.5084 -0.33244,-0.674902 0,-0.201435 -0.0296,-0.289666 -0.11281,-0.337025 -0.0425,-0.02419 -0.0774,-0.05488 -0.0775,-0.0682 -8e-5,-0.01332 -0.018,-0.03781 -0.0399,-0.05442 -0.0532,-0.04045 -0.0873,-0.28207 -0.12579,-0.89163 -0.0363,-0.575414 -0.0162,-0.7320855 0.13911,-1.0859615 0.18165,-0.4138553 0.23564,-0.8445603 0.14802,-1.1809233 -0.11414,-0.438225 -0.61247,-0.961683 -1.09509,-1.150364 -0.17834,-0.06973 -0.20135,-0.0718 -0.9041,-0.08124 -0.10009,-0.0013 -0.19074,-0.0022 -0.27319,-0.0024 z m -3.11549,7.9650778 0.0756,0.0898 c 0.0416,0.0494 0.16727,0.272506 0.27931,0.495759 0.1597,0.318184 0.20375,0.43139 0.20375,0.523822 0,0.06485 -0.009,0.116842 -0.0204,0.115536 -0.0224,-0.0026 -0.34802,-0.207266 -0.64627,-0.40619 -0.10477,-0.06987 -0.25478,-0.162662 -0.33334,-0.206183 -0.0786,-0.04352 -0.14285,-0.09184 -0.14286,-0.107371 -3e-5,-0.04199 0.23564,-0.260676 0.42132,-0.390939 l 0.16287,-0.114231 z"
     style="fill:#000000"
     inkscape:connector-curvature="0" /><path
     d="m 332.86312,7.5542952 c -1.68187,0 -2.28358,1.531606 -3.03588,3.0358848 l -1.51794,3.035885 -6.07176,0 c -2.52283,0 -4.55384,2.031006 -4.55384,4.553827 l 0,15.179418 c 0,2.522819 2.03101,4.553825 4.55384,4.553825 l 30.35883,0 c 2.52282,0 4.55383,-2.031006 4.55383,-4.553825 l 0,-15.179418 c 0,-2.522821 -2.03101,-4.553827 -4.55383,-4.553827 l -6.07176,0 -1.51795,-3.035885 c -0.75897,-1.5179408 -1.35399,-3.0358848 -3.03588,-3.0358848 l -9.10766,0 z m -10.62558,9.1076528 c 0.8382,0 1.51795,0.679734 1.51795,1.517944 0,0.838207 -0.67975,1.517941 -1.51795,1.517941 -0.83821,0 -1.51794,-0.679734 -1.51794,-1.517941 0,-0.83821 0.67973,-1.517944 1.51794,-1.517944 z m 15.17942,0 c 5.03016,0 9.10765,4.077496 9.10765,9.107653 0,5.030155 -4.07749,9.107653 -9.10765,9.107653 -5.03016,0 -9.10766,-4.077498 -9.10766,-9.107653 0,-5.030157 4.0775,-9.107653 9.10766,-9.107653 z m 0,4.553827 c -2.51492,0 -4.55384,2.038899 -4.55384,4.553826 l 0,0 c 0,2.514926 2.03892,4.553825 4.55384,4.553825 l 0,0 c 2.51492,0 4.55382,-2.038899 4.55382,-4.553825 l 0,0 c 0,-2.514927 -2.0389,-4.553826 -4.55382,-4.553826 l 0,0 z"
     id="rect7143"
     inkscape:connector-curvature="0" /><path
     id="path4173"
     d="m 244.65236,18.316587 0,4.449799 -14.46184,0 0,-4.449799 14.46184,0 z m 4.44979,0 0,4.449799 14.46186,0 0,-4.449799 -14.46186,0 z m -16.68673,6.674696 0,10.012045 c 0,1.843105 1.49424,3.337347 3.33734,3.337347 l 8.8996,0 0,-13.349392 -12.23694,0 z m 16.68673,0 0,13.349392 8.89961,0 c 1.84311,0 3.33735,-1.494242 3.33735,-3.337347 l 0,-10.012045 -12.23696,0 z m 4.44981,-17.7991898 c -3.1222,-0.09878 -5.89532,1.98105 -6.6747,5.0060228 -0.77938,-3.0249728 -3.5525,-5.1048088 -6.6747,-5.0060228 -2.38265,-0.07498 -4.37482,1.795937 -4.4498,4.1785818 -0.003,0.09032 -0.003,0.180885 0,0.271217 -0.34641,2.09741 1.07284,4.078461 3.17026,4.424878 0.35688,0.05897 0.7202,0.06741 1.0793,0.02493 l 13.63863,0 c 2.12433,0.333065 4.11673,-1.118904 4.44981,-3.243236 0.0628,-0.399815 0.0628,-0.806748 0,-1.206563 4.4e-4,-2.4576238 -1.99129,-4.4502428 -4.44892,-4.4506878 -0.0301,0 -0.0599,2.22e-4 -0.0898,8.9e-4 z m -13.3494,6.6746958 c -1.1258,0.103012 -2.12189,-0.726206 -2.2249,-1.851782 -0.0115,-0.124149 -0.0115,-0.248966 0,-0.373115 -0.10296,-1.125801 0.72621,-2.1218868 1.85179,-2.2248998 0.12417,-0.0113 0.24896,-0.0113 0.37311,0 2.45763,0 4.4498,1.9921728 4.4498,4.4497968 l -4.4498,0 z m 13.3494,0 -4.44981,0 c 0,-2.457624 1.99218,-4.4497968 4.44981,-4.4497968 1.22881,0 2.2249,0.9960858 2.2249,2.2248998 0.10296,1.125797 -0.72622,2.121885 -1.85179,2.224897 -0.12417,0.0113 -0.24896,0.0113 -0.37311,0 z"
     inkscape:connector-curvature="0" /><path
     inkscape:connector-curvature="0"
     d="m 61.27498,26.39367 c 1.683386,0.0014 3.32631,-0.516119 4.704824,-1.482019 1.090813,0.76077 2.350294,1.245132 3.669762,1.411447 l 1.035061,0 -3.387473,13.07941 c -0.254531,0.597748 -0.945434,0.875803 -1.543182,0.621037 -0.279467,-0.119032 -0.502005,-0.34157 -0.621037,-0.621037 L 61.27498,26.39367 Z"
     id="path4193" /><path
     inkscape:connector-curvature="0"
     d="m 75.389451,18.160229 c 0,2.598474 -2.106349,4.704824 -4.704824,4.704824 -2.598474,0 -4.704823,-2.10635 -4.704823,-4.704824 l 0,0 0,0 0,0 c 0,2.598474 -2.10635,4.704824 -4.704824,4.704824 -2.598474,0 -4.704824,-2.10635 -4.704824,-4.704824 0,-2.598474 2.10635,-4.704824 4.704824,-4.704824 l 0.282289,0 c -0.904267,-2.435922 0.337571,-5.1437838 2.773494,-6.0480508 2.435922,-0.904267 5.143784,0.337571 6.048051,2.7734938 0.392147,1.056233 0.392147,2.218089 0,3.274322 l 0.305813,0 c 2.598475,2.35e-4 4.704824,2.106585 4.704824,4.705059 z"
     id="path4195" /><path
     d="m 140.21024,10.011234 c -0.74069,0 -1.23445,0.493782 -1.23445,1.234454 l 0,18.516812 0,4.937818 c 0,0.740672 0.49376,1.234453 1.23445,1.234453 0.74067,0 1.23446,-0.493781 1.23446,-1.234453 l 0,-3.703363 32.09581,0 0,3.703363 c 0,0.740672 0.49377,1.234453 1.23445,1.234453 0.74068,0 1.23444,-0.493781 1.23444,-1.234453 l 0,-4.937818 c 0,-0.740671 -0.49376,-1.234455 -1.23444,-1.234455 l -33.33026,0 0,-17.282357 c 0,-0.740672 -0.49379,-1.234454 -1.23446,-1.234454 z m 7.40672,1.234454 c -1.97513,0 -3.70335,1.728237 -3.70335,3.703363 l 0,0 c 0,1.975126 1.72822,3.703363 3.70335,3.703363 l 0,0 c 1.97514,0 3.70338,-1.728237 3.70338,-3.703363 l 0,0 c 0,-1.975126 -1.72824,-3.703363 -3.70338,-3.703363 l 0,0 z m 8.64119,2.468909 c -3.70336,0 -3.70336,3.703361 -3.70336,3.703361 l 0,3.703363 -7.40673,0 c -0.74067,0 -1.23445,0.493783 -1.23445,1.234455 l 0,2.468907 c 0,0.740674 0.49378,1.234456 1.23445,1.234456 l 8.64118,0 22.22016,0 0,-6.17227 c 0,-6.172272 -6.17226,-6.172272 -6.17226,-6.172272 l -13.57899,0 z"
     style="fill:#010101"
     id="rect6507"
     inkscape:connector-curvature="0" /><path
     id="path4217"
     d="m 305.0856,4.5525312 c -0.20516,0.0021 -0.40675,0.05462 -0.58692,0.153113 l -22.38,6.2265878 c -0.70456,0 -1.27592,0.571367 -1.27592,1.275941 l 0,16.025807 c -0.77298,-0.458826 -1.65311,-0.705084 -2.5519,-0.714526 -2.81879,0 -5.10375,2.284953 -5.10375,5.103762 0,2.818807 2.28496,5.10376 5.10375,5.10376 2.81882,0 5.10377,-2.284953 5.10377,-5.10376 l 0,-11.840726 20.41504,-5.665175 0,9.288845 c -0.77296,-0.458827 -1.65311,-0.705085 -2.55188,-0.714526 -2.81881,0 -5.10375,2.284954 -5.10375,5.103761 0,2.818808 2.28494,5.10376 5.10375,5.10376 2.81882,0 5.10376,-2.284952 5.10376,-5.10376 l 0,-22.9669238 c 0,-0.704575 -0.57136,-1.27594 -1.27595,-1.27594 z m -1.27593,8.0129048 -20.41504,5.665174 0,-5.103759 20.41504,-5.6651768 c 0,0 0,5.1037618 0,5.1037618 z"
     inkscape:connector-curvature="0" /><path
     d="M 12.529208,6.3156582 10.09776,19.68862 c -0.355963,1.957315 4.331624,2.871539 4.255033,4.862895 L 13.74493,40.355922 c -0.09337,2.429747 2.431448,2.431448 2.431448,2.431448 0,0 2.524815,-0.0018 2.431447,-2.431448 L 17.999963,24.551515 c -0.07634,-1.987951 4.214672,-2.871053 4.255034,-4.862895 l -2.431448,-13.3729618 -1.215724,0 0.607862,9.7257898 -1.823583,1.215725 -0.607863,-10.9415148 -1.215725,0 -0.607862,10.9415148 -1.823584,-1.215725 0.60786,-9.7257898 -1.215722,0 z m 20.667302,0 c -1.790517,0 -4.775849,1.592355 -5.969447,3.9795488 -0.994705,1.790519 -1.324895,5.790493 -1.324895,8.177688 l 0,6.07862 c 0,1.98941 2.652466,2.431448 3.64717,2.431448 l -1.215722,13.372959 c -0.220046,2.421479 2.431447,2.431448 2.431447,2.431448 0,0 2.431447,0 2.431447,-2.431448 l 0,-34.0402638 z"
     id="path11774"
     inkscape:connector-curvature="0" /><path
     d="m 479.28829,8.2554012 c -0.27935,0 -1.08234,0.364091 -1.08234,0.364091 l -8.25675,4.1744758 c -1.09946,0.4379 -1.53515,2.191744 -0.87357,3.067546 l 2.41245,3.49973 -9.86819,5.043321 4.96552,3.727877 6.21811,-3.727877 6.21313,3.727877 2.49021,-2.490222 -7.45575,-9.941005 6.35379,-3.800695 c 1.31371,-0.661573 1.10196,-1.750861 1.10196,-2.4124338 -0.0103,-0.521654 -0.89542,-1.232685 -2.21857,-1.232685 z m 5.32017,7.4557538 c -2.40398,0 -4.35415,1.945208 -4.35415,4.34919 0,2.403984 1.95017,4.354161 4.35415,4.354161 2.40399,0 4.34919,-1.950177 4.34919,-4.354161 0,-2.403982 -1.94545,-4.34919 -4.34919,-4.34919 z m -24.23617,12.426257 -6.21314,3.727878 0,3.727875 6.21314,-3.727875 6.21312,3.727875 6.21811,-3.727875 6.21313,3.727875 4.96552,-3.727875 7.45576,3.727875 0,-3.727875 -7.45576,-3.727878 -4.96552,3.727878 -6.21313,-3.727878 -6.21811,3.727878 -6.21312,-3.727878 z"
     inkscape:connector-curvature="0"
     id="path16388" /><path
     d="m 366.81757,6.7084312 c 0,0 -2.70025,0 -2.70025,2.700232 l 0,13.9283458 c 0,4.672215 0.95588,10.373756 9.45083,10.373756 l 1.3501,0 0,-8.100701 -6.75057,2.700235 c 0,0 0,-6.750584 6.75057,-6.750584 l 0,-4.05035 c 0,-1.911226 0.23439,-3.566738 1.35012,-4.793994 1.03016,-1.133019 2.71266,-3.3947348 7.17237,-1.271 l 2.27845,1.481886 0,-3.5175938 c 0,0 0,-2.700232 -2.70023,-2.700232 -1.91123,0 -5.33999,2.700232 -8.10071,2.700232 -2.76071,0 -5.97695,-2.700232 -8.10068,-2.700232 z m 2.70022,5.4004678 c 1.49135,0 2.70024,1.208895 2.70024,2.700232 0,1.491339 -1.20889,2.700234 -2.70024,2.700234 -1.49134,0 -2.70022,-1.208895 -2.70022,-2.700234 0,-1.491337 1.20888,-2.700232 2.70022,-2.700232 z m 10.80094,2.700232 c 0,0 -2.70024,0 -2.70024,2.700234 l 0,13.501166 c 0,5.400469 2.70024,10.800934 10.80093,10.800934 8.1007,0 10.80095,-5.400465 10.80095,-10.800934 l 0,-13.501166 c 0,-2.700234 -2.70025,-2.700234 -2.70025,-2.700234 -1.91123,0 -5.33997,2.700234 -8.1007,2.700234 -2.76072,0 -5.97698,-2.700234 -8.10069,-2.700234 z m 2.70023,5.400469 c 1.49133,0 2.70023,1.208894 2.70023,2.700232 0,1.491338 -1.2089,2.700232 -2.70023,2.700232 -1.49134,0 -2.70023,-1.208894 -2.70023,-2.700232 0,-1.491338 1.20889,-2.700232 2.70023,-2.700232 z m 10.80092,0 c 1.49136,0 2.70024,1.208894 2.70024,2.700232 0,1.491338 -1.20888,2.700232 -2.70024,2.700232 -1.49133,0 -2.70022,-1.208894 -2.70022,-2.700232 0,-1.491338 1.20889,-2.700232 2.70022,-2.700232 z m -12.15103,10.800931 6.75057,0 6.75057,0 c 0,0 0,6.750583 -6.75057,6.750583 -6.75057,0 -6.75057,-6.750583 -6.75057,-6.750583 z"
     id="path6342-3"
     inkscape:connector-curvature="0" /><path
     d="m 203.89703,7.0580552 -15.23891,8.0773348 0,1.300465 30.47785,0 0,-1.300465 -15.23894,-8.0773348 z m -12.89446,11.7222508 0,11.722249 -2.34445,3.644916 0,3.388434 30.47785,0 0,-3.388434 -2.34445,-3.644916 0,-11.722249 -25.78895,0 z m 4.68889,2.344449 2.34446,0 0,12.894474 -2.34446,0 0,-12.894474 z m 7.03335,0 2.34446,0 0,12.894474 -2.34446,0 0,-12.894474 z m 7.03335,0 2.34447,0 0,12.894474 -2.34447,0 0,-12.894474 z"
     id="path7509"
     inkscape:connector-curvature="0" /><rect
     style="fill:none;fill-opacity:1;stroke:#000000;stroke-width:0.80000001;stroke-miterlimit:4;stroke-dasharray:none;stroke-opacity:1"
     id="rect4178"
     width="45"
     height="45"
     x="0.20115723"
     y="1.1026183" /><rect
     style="fill:none;fill-opacity:1;stroke:#000000;stroke-width:0.80000001;stroke-miterlimit:4;stroke-dasharray:none;stroke-opacity:1"
     id="rect4205"
     width="45"
     height="45"
     x="540.0564"
     y="1.1026183" /><rect
     y="1.1026183"
     x="495.06848"
     height="45"
     width="45"
     id="rect4207"
     style="fill:none;fill-opacity:1;stroke:#000000;stroke-width:0.80000001;stroke-miterlimit:4;stroke-dasharray:none;stroke-opacity:1" /><rect
     style="fill:none;fill-opacity:1;stroke:#000000;stroke-width:0.80000001;stroke-miterlimit:4;stroke-dasharray:none;stroke-opacity:1"
     id="rect4209"
     width="45"
     height="45"
     x="450.08057"
     y="1.1026183" /><rect
     y="1.1026183"
     x="405.09259"
     height="45"
     width="45"
     id="rect4211"
     style="fill:none;fill-opacity:1;stroke:#000000;stroke-width:0.80000001;stroke-miterlimit:4;stroke-dasharray:none;stroke-opacity:1" /><rect
     style="fill:none;fill-opacity:1;stroke:#000000;stroke-width:0.80000001;stroke-miterlimit:4;stroke-dasharray:none;stroke-opacity:1"
     id="rect4213"
     width="45"
     height="45"
     x="360.10468"
     y="1.1026183" /><rect
     y="1.1026183"
     x="315.1167"
     height="45"
     width="45"
     id="rect4215"
     style="fill:none;fill-opacity:1;stroke:#000000;stroke-width:0.80000001;stroke-miterlimit:4;stroke-dasharray:none;stroke-opacity:1" /><rect
     style="fill:none;fill-opacity:1;stroke:#000000;stroke-width:0.80000001;stroke-miterlimit:4;stroke-dasharray:none;stroke-opacity:1"
     id="rect4217"
     width="45"
     height="45"
     x="270.12878"
     y="1.1026183" /><rect
     y="1.1026183"
     x="225.14085"
     height="45"
     width="45"
     id="rect4219"
     style="fill:none;fill-opacity:1;stroke:#000000;stroke-width:0.80000001;stroke-miterlimit:4;stroke-dasharray:none;stroke-opacity:1" /><rect
     style="fill:none;fill-opacity:1;stroke:#000000;stroke-width:0.80000001;stroke-miterlimit:4;stroke-dasharray:none;stroke-opacity:1"
     id="rect4221"
     width="45"
     height="45"
     x="180.15289"
     y="1.1026183" /><rect
     y="1.0731822"
     x="135.16496"
     height="45"
     width="45"
     id="rect4223"
     style="fill:none;fill-opacity:1;stroke:#000000;stroke-width:0.80000001;stroke-miterlimit:4;stroke-dasharray:none;stroke-opacity:1" /><rect
     style="fill:none;fill-opacity:1;stroke:#000000;stroke-width:0.80000001;stroke-miterlimit:4;stroke-dasharray:none;stroke-opacity:1"
     id="rect4225"
     width="45"
     height="45"
     x="630.03229"
     y="1.1026183" /><rect
     style="fill:none;fill-opacity:1;stroke:#000000;stroke-width:0.80000001;stroke-miterlimit:4;stroke-dasharray:none;stroke-opacity:1"
     id="rect4236"
     width="45"
     height="45"
     x="90.177032"
     y="1.1026183" /><rect
     y="1.1026183"
     x="45.189095"
     height="45"
     width="45"
     id="rect4238"
     style="fill:none;fill-opacity:1;stroke:#000000;stroke-width:0.80000001;stroke-miterlimit:4;stroke-dasharray:none;stroke-opacity:1" /><path
     sodipodi:nodetypes="ccccccccssscscscccccccsccccccsccccccsccccccsccccccscscscccscccccsscccscss"
     inkscape:connector-curvature="0"
     id="rect4783-8-1"
     style="fill:#000000;stroke:none"
     d="m 625.84715,21.244204 c 0.303,-0.22675 0.64746,-0.74333 0.53566,-1.10488 -1.55956,-5.21051 -6.24398,-9.211391 -12.24639,-10.8353908 -3.45305,-0.59518 -7.8874,-0.60309 -10.40559,-0.26271 -6.51044,1.4123598 -11.84213,5.5865008 -13.49181,11.0982608 -0.16535,0.55007 0.31212,1.19124 0.88648,1.19044 l 24.81953,-0.0459 z m -32.70798,2.4921 c -1.00808,0 -1.84899,1.05747 -1.84899,2.31755 0,1.26016 0.84091,2.30501 1.84899,2.30501 l 31.20698,0 c 1.36956,0 1.87246,-1.28619 1.87246,-2.46478 0,-1.09407 -0.74866,-2.15778 -1.85722,-2.15778 z m 2.97618,5.83832 c -2.51481,0 -4.52202,1.53314 -4.69851,3.40672 l -0.0379,0.2913 0.45592,0 1.82368,0 0.37993,0 0.0506,-0.24064 c 0.13357,-0.85009 0.98716,-1.46908 2.02629,-1.46908 1.03912,0 1.91694,0.61993 2.05161,1.46908 l 0.0633,0.24064 0.3546,0 3.21674,0 0.36726,0 0.0253,-0.24064 c 0.13353,-0.85009 0.99979,-1.46908 2.03899,-1.46908 1.03927,0 1.91709,0.61993 2.0516,1.46908 l 0.0633,0.24064 0.35461,0 3.20411,0 0.37993,0 0.0379,-0.24064 c 0.13358,-0.85009 0.99964,-1.46908 2.03898,-1.46908 1.03905,0 1.91702,0.61993 2.05161,1.46908 l 0.0506,0.24064 0.35461,0 3.21673,0 0.37993,0 0.0253,-0.24064 c 0.13349,-0.85009 0.99964,-1.46908 2.03898,-1.46908 1.03905,0 1.92965,0.61993 2.06431,1.46908 l 0.0506,0.24064 0.3546,0 1.849,0 0.44325,0 -0.0253,-0.2913 c -0.17747,-1.87416 -2.22179,-3.40672 -4.73653,-3.40672 -1.77282,0 -3.2361,0.7833 -4.03996,1.887 -0.80708,-1.10516 -2.30368,-1.887 -4.07797,-1.887 -1.77788,0 -3.2386,0.80356 -4.03996,1.91232 -0.80458,-1.11052 -2.29825,-1.91232 -4.07797,-1.91232 -1.77245,0 -3.24858,0.78352 -4.05258,1.887 -0.80701,-1.10539 -2.30339,-1.887 -4.07797,-1.887 z m -4.03996,4.92644 c -0.51959,0 -0.92391,0.15116 -1.30441,0.44327 -0.19027,0.14606 -0.38645,0.33394 -0.50658,0.68384 -0.11999,0.35011 -0.008,0.88957 0.25329,1.17782 l 1.74772,1.93764 c 0.0474,0.0525 0.13299,0.22071 0.34195,0.48121 0.20883,0.26075 0.70886,0.60789 1.22845,0.60789 l 28.96336,0 c 0.51959,0 1.03222,-0.34714 1.24107,-0.60789 0.20884,-0.26059 0.2817,-0.42869 0.32928,-0.48121 l 1.74772,-1.93764 c 0.26059,-0.28831 0.36067,-0.82785 0.24063,-1.17782 -0.12,-0.34986 -0.31623,-0.53778 -0.50658,-0.68384 -0.38045,-0.29215 -0.77237,-0.44327 -1.29179,-0.44327 z" /><g
     id="g4223"
     transform="translate(-0.03537737,5.0253962)"
     style="fill:#800080;stroke:#000000"><path
       inkscape:connector-curvature="0"
       style="fill:#000000;fill-rule:evenodd;stroke:none"
       sodipodi:nodetypes="ccccccc"
       d="m 546.29759,32.026044 c 0.81708,1.876024 3.5925,3.219755 5.22536,3.557741 l 10.84208,0 10.83783,0 c 1.63301,-0.336946 4.4127,-1.681033 5.22975,-3.557741 l -16.06731,0 z"
       id="path123" /><path
       inkscape:connector-curvature="0"
       style="color:#000000;text-indent:0;text-transform:none;block-progression:tb;fill:#000000;stroke:none"
       d="m 571.89416,13.822729 c -3.62752,0 -6.59769,2.970165 -6.59769,6.597692 0,3.627527 2.97017,6.597693 6.59769,6.597693 3.62753,0 6.5977,-2.970166 6.5977,-6.597693 0,-3.627527 -2.97017,-6.597692 -6.5977,-6.597692 z m 0,2.73686 c 2.14847,0 3.86084,1.712368 3.86084,3.860832 0,2.148465 -1.71237,3.860833 -3.86084,3.860833 -2.14846,0 -3.86083,-1.712368 -3.86083,-3.860833 0,-2.148464 1.71237,-3.860832 3.86083,-3.860832 z"
       id="path3102" /><path
       id="path7593"
       style="fill:none;stroke:#000000;stroke-width:1.0812794;stroke-linecap:round"
       sodipodi:nodetypes="cc"
       inkscape:connector-curvature="0"
       d="m 558.12088,2.5220602 c 4.12427,4.3026811 -3.80989,4.5846247 0,8.9854318" /><path
       id="path7595"
       d="m 562.72172,2.5220602 c 4.12427,4.3026811 -3.80989,4.5846247 0,8.9854318"
       sodipodi:nodetypes="cc"
       style="fill:none;stroke:#000000;stroke-width:1.0812794;stroke-linecap:round"
       inkscape:connector-curvature="0" /><path
       id="path7597"
       style="fill:none;stroke:#000000;stroke-width:1.0812794;stroke-linecap:round"
       sodipodi:nodetypes="cc"
       inkscape:connector-curvature="0"
       d="m 567.32256,2.5220602 c 4.12427,4.3026811 -3.80988,4.5846247 0,8.9854318" /><path
       inkscape:connector-curvature="0"
       style="fill:#000000;fill-rule:evenodd;stroke:none"
       sodipodi:nodetypes="ccccccc"
       d="m 551.6877,13.822729 c 0.18037,4.018604 1.3204,14.562105 3.95115,17.116836 l 6.72632,0 6.72632,0 c 2.63081,-2.555689 3.77079,-13.098642 3.95114,-17.116836 l -10.67746,0 z"
       id="path121" /></g><g
     id="g4266"
     transform="translate(-0.70627293,5.5539302)"><ellipse
       ry="3.9774756"
       rx="12.197592"
       cy="7.8768945"
       cx="652.21765"
       id="path4231"
       style="fill:#000000;fill-opacity:1;stroke:#000000;stroke-width:0.80000001;stroke-miterlimit:4;stroke-dasharray:none;stroke-opacity:1" /><path
       sodipodi:nodetypes="csssscssssc"
       inkscape:connector-curvature="0"
       id="path4239"
       d="m 640.63702,9.1187192 c 7.31249,7.2499998 9.81249,7.8124998 10.12499,10.0624998 0.3125,2.25 0,10.187499 0,11.499999 0,1.3125 -0.5,1.25 -1.5625,1.75 -1.0625,0.5 -6.18749,1.125 -6.18749,1.5625 0,0.4375 8.79245,0 8.79245,0 0,0 8.79244,0.4375 8.79244,0 0,-0.4375 -5.12499,-1.0625 -6.18749,-1.5625 -1.0625,-0.5 -1.5625,-0.4375 -1.5625,-1.75 0,-1.3125 -0.3125,-9.249999 0,-11.499999 0.3125,-2.25 2.8125,-2.8125 10.12499,-10.0624999"
       style="fill:#000000;fill-rule:evenodd;stroke:#000000;stroke-width:1px;stroke-linecap:butt;stroke-linejoin:miter;stroke-opacity:1" /><ellipse
       ry="2.328125"
       rx="9.765625"
       cy="7.734376"
       cx="651.82812"
       id="path4243"
       style="fill:#ffffff;fill-opacity:1;stroke:none;stroke-width:0.80000001;stroke-miterlimit:4;stroke-dasharray:none;stroke-opacity:1" /><circle
       r="4.6845822"
       cy="6.2638078"
       cx="664.2605"
       id="path4235"
       style="fill:#000000;fill-opacity:1;stroke:#000000;stroke-width:0.80000001;stroke-miterlimit:4;stroke-dasharray:none;stroke-opacity:1" /><path
       inkscape:connector-curvature="0"
       id="path4245"
       d="m 661.96242,3.6342543 c -0.68501,0.9943688 -0.83969,1.4584077 -0.39775,1.5026018 0.44194,0.044194 2.43068,0.7292039 2.2539,0.3093592 -0.17677,-0.4198446 -1.65728,-2.1213203 -1.85615,-1.811961 z"
       style="fill:#ffffff;fill-rule:evenodd;stroke:none;stroke-width:1px;stroke-linecap:butt;stroke-linejoin:miter;stroke-opacity:1" /><path
       style="fill:#ffffff;fill-rule:evenodd;stroke:none;stroke-width:1px;stroke-linecap:butt;stroke-linejoin:miter;stroke-opacity:1"
       d="m 664.95699,2.8063115 c -1.20285,-0.1055524 -1.68282,-0.011276 -1.50333,0.3949819 0.1795,0.4062583 0.56431,2.4741637 0.84238,2.1133315 0.27806,-0.360827 1.02815,-2.487868 0.66094,-2.5083156 z"
       id="path4247"
       inkscape:connector-curvature="0" /><path
       inkscape:connector-curvature="0"
       id="path4249"
       d="m 667.31806,5.2447282 c -0.54784,-1.0760367 -0.88212,-1.4331324 -1.13155,-1.065645 -0.24943,0.3674961 -1.79926,1.7895779 -1.34591,1.8342057 0.45335,0.044622 2.65469,-0.4463141 2.47746,-0.7685704 z"
       style="fill:#ffffff;fill-rule:evenodd;stroke:none;stroke-width:1px;stroke-linecap:butt;stroke-linejoin:miter;stroke-opacity:1" /><path
       style="fill:#ffffff;fill-rule:evenodd;stroke:none;stroke-width:1px;stroke-linecap:butt;stroke-linejoin:miter;stroke-opacity:1"
       d="m 666.22797,8.5361031 c 0.84102,-0.8664112 1.0708,-1.2982182 0.6424,-1.4153885 -0.42842,-0.1171675 -2.27532,-1.1237668 -2.17093,-0.6803487 0.1044,0.4434162 1.28092,2.3676639 1.52853,2.095734 z"
       id="path4251"
       inkscape:connector-curvature="0" /><path
       inkscape:connector-curvature="0"
       id="path4253"
       d="m 663.13899,8.7035493 c 1.17198,0.2905916 1.66076,0.2717852 1.54636,-0.1573635 -0.11439,-0.4291684 -0.17427,-2.5317123 -0.50484,-2.2183198 -0.33059,0.3134053 -1.40108,2.2985966 -1.04148,2.3756742 z"
       style="fill:#ffffff;fill-rule:evenodd;stroke:none;stroke-width:1px;stroke-linecap:butt;stroke-linejoin:miter;stroke-opacity:1" /><path
       style="fill:#ffffff;fill-rule:evenodd;stroke:none;stroke-width:1px;stroke-linecap:butt;stroke-linejoin:miter;stroke-opacity:1"
       d="m 661.18852,6.6400557 c 0.53649,1.0817409 0.867,1.4423278 1.12027,1.0774894 0.2533,-0.3648436 1.818,-1.7705408 1.36517,-1.8199209 -0.45285,-0.049387 -2.65923,0.4183614 -2.48541,0.7424561 z"
       id="path4255"
       inkscape:connector-curvature="0" /><path
       sodipodi:nodetypes="cccc"
       style="fill:#ffffff;fill-rule:evenodd;stroke:none;stroke-width:1px;stroke-linecap:butt;stroke-linejoin:miter;stroke-opacity:1"
       d="m 653.65814,14.714565 c 0.75945,0.938734 0.54191,0.290508 0.70955,-0.120783 0.16763,-0.411299 4.61436,-3.803728 4.16163,-3.753192 -0.45272,0.05054 -5.11149,3.595582 -4.87118,3.873975 z"
       id="path4257"
       inkscape:connector-curvature="0" /></g><path
     inkscape:connector-curvature="0"
     d="m 534.14732,19.027713 c -2.07357,4.042395 -7.62082,9.540052 -10.75777,12.468541 -0.33726,0.308661 -0.85017,0.308661 -1.18742,0 -3.15467,-2.928489 -8.70191,-8.426146 -10.77549,-12.468541 -4.55476,-8.893272 6.92964,-14.8221178 11.36035,-5.928846 4.4307,-8.8932718 15.9151,-2.964426 11.36033,5.928846 z"
     id="path4259"
     style="stroke:#ffffff" /><path
     id="path4183"
     d="m 524.60908,25.800124 c -2.07357,4.042395 -7.62081,9.540052 -10.75776,12.468541 -0.33726,0.308661 -0.85017,0.308661 -1.18742,0 -3.15468,-2.928489 -8.70192,-8.426146 -10.77549,-12.468541 -4.55476,-8.893273 6.92963,-14.822119 11.36034,-5.928845 4.43071,-8.893274 15.91511,-2.964428 11.36033,5.928845 z"
     inkscape:connector-curvature="0"
     style="stroke:#ffffff" /><g
     id="g4094"
     style="fill:#800080;filter:url(#filter4238-6)"
     transform="matrix(0.01627943,0,0,0.01627943,689.48742,25.275813)"><g
       transform="matrix(61.427212,0,0,61.427212,-37690.602,-21788.014)"
       inkscape:label="Calque 1"
       id="layer1-1"
       style="fill:#000000;stroke:#ffffff"><g
         id="g4158"
         transform="matrix(0.06919744,0,0,0.06919744,597.91106,308.84794)"
         style="fill:#000000;stroke:#ffffff"><g
           id="g4173"
           style="fill:#000000;stroke:#ffffff"
           transform="translate(-5.5111279,5.5111279)"><g
             id="g4168"
             style="fill:#000000;stroke:#ffffff;stroke-width:9.66798782;stroke-miterlimit:4;stroke-dasharray:none;stroke-opacity:1"
             transform="matrix(1.222256,0,0,1.222256,-87.561552,14.782215)"><g
               id="g4165"
               style="fill:#000000;stroke:#ffffff;stroke-width:9.66798782;stroke-miterlimit:4;stroke-dasharray:none;stroke-opacity:1"><path
                 d="m 347,294.74 c -15.609,1.3517 -29.034,15.263 -31.628,33.928 l -2.8752,21.277 c -0.5774,1.0227 -1.2176,1.9796 -1.7252,3.067 l -55.588,119.23 c -2.2496,4.8193 -3.5652,9.8737 -4.0254,14.76 l -30.094,0 c -19.705,0 -35.653,15.756 -35.653,35.462 l 0,112.52 c 0,19.705 15.948,35.653 35.653,35.653 l 52.33,0 c 11.978,10.839 27.737,17.443 45.238,17.443 l 71.307,0 c 37.439,0 67.473,-30.034 67.473,-67.473 l 0,-115.97 c 0,-37.439 -30.034,-67.473 -67.473,-67.473 l -22.044,0 13.61,-98.909 c 2.9652,-21.332 -9.2642,-40.618 -27.602,-43.321 -2.2923,-0.338 -4.6709,-0.38427 -6.9006,-0.19113 z"
                 inkscape:connector-curvature="0"
                 style="color:#000000;fill:#000000;stroke:#ffffff;stroke-width:9.66798782;stroke-miterlimit:4;stroke-dasharray:none;stroke-opacity:1"
                 id="rect9675" /></g></g><rect
             x="544.55182"
             y="-565.0127"
             width="74.828957"
             height="187.09073"
             ry="34.743851"
             transform="matrix(0,1,-1,0,0,0)"
             style="color:#000000;fill:#000000;stroke:#ffffff;stroke-width:13.28225517"
             id="rect9623-6" /><rect
             height="215.93596"
             x="621.51727"
             y="-593.85791"
             width="74.828957"
             ry="37.414478"
             transform="matrix(0,1,-1,0,0,0)"
             inkscape:transform-center-y="-8.3651992"
             inkscape:transform-center-x="-3.661163"
             style="color:#000000;fill:#000000;stroke:#ffffff;stroke-width:13.28225517"
             id="rect9623-6-5" /><rect
             height="192.02864"
             x="698.48279"
             y="-569.96289"
             width="74.828957"
             ry="37.414478"
             transform="matrix(0,1,-1,0,0,0)"
             inkscape:transform-center-y="-8.3651981"
             inkscape:transform-center-x="-3.25593"
             style="color:#000000;fill:#000000;stroke:#ffffff;stroke-width:13.28225517"
             id="rect9671" /><rect
             height="166.48349"
             x="775.44824"
             y="-544.40552"
             width="74.828957"
             ry="37.414478"
             transform="matrix(0,1,-1,0,0,0)"
             inkscape:transform-center-y="-8.3652012"
             inkscape:transform-center-x="-2.8227342"
             style="color:#000000;fill:#000000;stroke:#ffffff;stroke-width:13.28225517"
             id="rect9673" /></g></g></g></g><rect
     y="1.1026183"
     x="674.9726"
     height="45"
     width="45"
     id="rect4274"
     style="fill:none;fill-opacity:1;stroke:none;stroke-width:0.80000001;stroke-miterlimit:4;stroke-dasharray:none;stroke-opacity:1" /><path
     sodipodi:nodetypes="cccccc"
     inkscape:connector-curvature="0"
     id="path4216"
     d="M 55.935027,221.07013 -65.905573,325.06671 465.91203,1170.3139 954.66491,334.97857 798.02338,255.9322 C 518.79118,354.55972 342.52633,366.73309 55.935027,221.07013 Z"
     style="fill:#000000;fill-opacity:1;stroke:#1a1a1a;stroke-width:43.90217209;stroke-miterlimit:4;stroke-dasharray:none;stroke-opacity:1;filter:url(#filter4238-3)"
     transform="matrix(0.01548219,0,0,0.0136745,15.379468,47.915454)" /><path
     transform="matrix(0.01548219,0,0,0.0136745,694.57759,47.915454)"
     style="fill:#000000;fill-opacity:1;stroke:#1a1a1a;stroke-width:43.90217209;stroke-miterlimit:4;stroke-dasharray:none;stroke-opacity:1;filter:url(#filter4238-3)"
     d="M 55.935027,221.07013 -65.905573,325.06671 465.91203,1170.3139 954.66491,334.97857 798.02338,255.9322 C 518.79118,354.55972 342.52633,366.73309 55.935027,221.07013 Z"
     id="path4264"
     inkscape:connector-curvature="0"
     sodipodi:nodetypes="cccccc" /><path
     sodipodi:nodetypes="cccccc"
     inkscape:connector-curvature="0"
     id="path4266"
     d="M 55.935027,221.07013 -65.905573,325.06671 465.91203,1170.3139 954.66491,334.97857 798.02338,255.9322 C 518.79118,354.55972 342.52633,366.73309 55.935027,221.07013 Z"
     style="fill:#000000;fill-opacity:1;stroke:#1a1a1a;stroke-width:43.90217209;stroke-miterlimit:4;stroke-dasharray:none;stroke-opacity:1;filter:url(#filter4238-3)"
     transform="matrix(0.01548219,0,0,0.0136745,649.29768,47.915454)" /><path
     transform="matrix(0.01548219,0,0,0.0136745,604.01783,47.915454)"
     style="fill:#000000;fill-opacity:1;stroke:#1a1a1a;stroke-width:43.90217209;stroke-miterlimit:4;stroke-dasharray:none;stroke-opacity:1;filter:url(#filter4238-3)"
     d="M 55.935027,221.07013 -65.905573,325.06671 465.91203,1170.3139 954.66491,334.97857 798.02338,255.9322 C 518.79118,354.55972 342.52633,366.73309 55.935027,221.07013 Z"
     id="path4268"
     inkscape:connector-curvature="0"
     sodipodi:nodetypes="cccccc" /><path
     sodipodi:nodetypes="cccccc"
     inkscape:connector-curvature="0"
     id="path4270"
     d="M 55.935027,221.07013 -65.905573,325.06671 465.91203,1170.3139 954.66491,334.97857 798.02338,255.9322 C 518.79118,354.55972 342.52633,366.73309 55.935027,221.07013 Z"
     style="fill:#000000;fill-opacity:1;stroke:#1a1a1a;stroke-width:43.90217209;stroke-miterlimit:4;stroke-dasharray:none;stroke-opacity:1;filter:url(#filter4238-3)"
     transform="matrix(0.01548219,0,0,0.0136745,558.73793,47.915454)" /><path
     transform="matrix(0.01548219,0,0,0.0136745,513.45811,47.915454)"
     style="fill:#000000;fill-opacity:1;stroke:#1a1a1a;stroke-width:43.90217209;stroke-miterlimit:4;stroke-dasharray:none;stroke-opacity:1;filter:url(#filter4238-3)"
     d="M 55.935027,221.07013 -65.905573,325.06671 465.91203,1170.3139 954.66491,334.97857 798.02338,255.9322 C 518.79118,354.55972 342.52633,366.73309 55.935027,221.07013 Z"
     id="path4272"
     inkscape:connector-curvature="0"
     sodipodi:nodetypes="cccccc" /><path
     sodipodi:nodetypes="cccccc"
     inkscape:connector-curvature="0"
     id="path4274"
     d="M 55.935027,221.07013 -65.905573,325.06671 465.91203,1170.3139 954.66491,334.97857 798.02338,255.9322 C 518.79118,354.55972 342.52633,366.73309 55.935027,221.07013 Z"
     style="fill:#000000;fill-opacity:1;stroke:#1a1a1a;stroke-width:43.90217209;stroke-miterlimit:4;stroke-dasharray:none;stroke-opacity:1;filter:url(#filter4238-3)"
     transform="matrix(0.01548219,0,0,0.0136745,468.17821,47.915454)" /><path
     transform="matrix(0.01548219,0,0,0.0136745,422.89831,47.915454)"
     style="fill:#000000;fill-opacity:1;stroke:#1a1a1a;stroke-width:43.90217209;stroke-miterlimit:4;stroke-dasharray:none;stroke-opacity:1;filter:url(#filter4238-3)"
     d="M 55.935027,221.07013 -65.905573,325.06671 465.91203,1170.3139 954.66491,334.97857 798.02338,255.9322 C 518.79118,354.55972 342.52633,366.73309 55.935027,221.07013 Z"
     id="path4276"
     inkscape:connector-curvature="0"
     sodipodi:nodetypes="cccccc" /><path
     sodipodi:nodetypes="cccccc"
     inkscape:connector-curvature="0"
     id="path4278"
     d="M 55.935027,221.07013 -65.905573,325.06671 465.91203,1170.3139 954.66491,334.97857 798.02338,255.9322 C 518.79118,354.55972 342.52633,366.73309 55.935027,221.07013 Z"
     style="fill:#000000;fill-opacity:1;stroke:#1a1a1a;stroke-width:43.90217209;stroke-miterlimit:4;stroke-dasharray:none;stroke-opacity:1;filter:url(#filter4238-3)"
     transform="matrix(0.01548219,0,0,0.0136745,377.61844,47.915454)" /><path
     transform="matrix(0.01548219,0,0,0.0136745,287.05868,47.915454)"
     style="fill:#000000;fill-opacity:1;stroke:#1a1a1a;stroke-width:43.90217209;stroke-miterlimit:4;stroke-dasharray:none;stroke-opacity:1;filter:url(#filter4238-3)"
     d="M 55.935027,221.07013 -65.905573,325.06671 465.91203,1170.3139 954.66491,334.97857 798.02338,255.9322 C 518.79118,354.55972 342.52633,366.73309 55.935027,221.07013 Z"
     id="path4280"
     inkscape:connector-curvature="0"
     sodipodi:nodetypes="cccccc" /><path
     sodipodi:nodetypes="cccccc"
     inkscape:connector-curvature="0"
     id="path4282"
     d="M 55.935027,221.07013 -65.905573,325.06671 465.91203,1170.3139 954.66491,334.97857 798.02338,255.9322 C 518.79118,354.55972 342.52633,366.73309 55.935027,221.07013 Z"
     style="fill:#000000;fill-opacity:1;stroke:#1a1a1a;stroke-width:43.90217209;stroke-miterlimit:4;stroke-dasharray:none;stroke-opacity:1;filter:url(#filter4238-3)"
     transform="matrix(0.01548219,0,0,0.0136745,241.77884,47.915454)" /><path
     transform="matrix(0.01548219,0,0,0.0136745,196.49897,47.915454)"
     style="fill:#000000;fill-opacity:1;stroke:#1a1a1a;stroke-width:43.90217209;stroke-miterlimit:4;stroke-dasharray:none;stroke-opacity:1;filter:url(#filter4238-3)"
     d="M 55.935027,221.07013 -65.905573,325.06671 465.91203,1170.3139 954.66491,334.97857 798.02338,255.9322 C 518.79118,354.55972 342.52633,366.73309 55.935027,221.07013 Z"
     id="path4284"
     inkscape:connector-curvature="0"
     sodipodi:nodetypes="cccccc" /><path
     sodipodi:nodetypes="cccccc"
     inkscape:connector-curvature="0"
     id="path4286"
     d="M 55.935027,221.07013 -65.905573,325.06671 465.91203,1170.3139 954.66491,334.97857 798.02338,255.9322 C 518.79118,354.55972 342.52633,366.73309 55.935027,221.07013 Z"
     style="fill:#000000;fill-opacity:1;stroke:#1a1a1a;stroke-width:43.90217209;stroke-miterlimit:4;stroke-dasharray:none;stroke-opacity:1;filter:url(#filter4238-3)"
     transform="matrix(0.01548219,0,0,0.0136745,60.65934,47.915454)" /><path
     sodipodi:nodetypes="cccccc"
     inkscape:connector-curvature="0"
     id="path4286-9"
     d="M 55.935027,221.07013 -65.905573,325.06671 465.91203,1170.3139 954.66491,334.97857 798.02338,255.9322 C 518.79118,354.55972 342.52633,366.73309 55.935027,221.07013 Z"
     style="fill:#000000;fill-opacity:1;stroke:#1a1a1a;stroke-width:43.90217209;stroke-miterlimit:4;stroke-dasharray:none;stroke-opacity:1;filter:url(#filter4238-3-3)"
     transform="matrix(0.01548219,0,0,0.0136745,105.93921,47.915454)" /><path
     sodipodi:nodetypes="cccccc"
     inkscape:connector-curvature="0"
     id="path4328"
     d="M 55.935027,221.07013 -65.905573,325.06671 465.91203,1170.3139 954.66491,334.97857 798.02338,255.9322 C 518.79118,354.55972 342.52633,366.73309 55.935027,221.07013 Z"
     style="fill:#000000;fill-opacity:1;stroke:#1a1a1a;stroke-width:43.90217209;stroke-miterlimit:4;stroke-dasharray:none;stroke-opacity:1;filter:url(#filter4238-3)"
     transform="matrix(0.01548219,0,0,0.0136745,151.21909,47.915454)" /><path
     sodipodi:nodetypes="cccccc"
     inkscape:connector-curvature="0"
     id="path4330"
     d="M 55.935027,221.07013 -65.905573,325.06671 465.91203,1170.3139 954.66491,334.97857 798.02338,255.9322 C 518.79118,354.55972 342.52633,366.73309 55.935027,221.07013 Z"
     style="fill:#000000;fill-opacity:1;stroke:#1a1a1a;stroke-width:43.90217209;stroke-miterlimit:4;stroke-dasharray:none;stroke-opacity:1;filter:url(#filter4238-3)"
     transform="matrix(0.01548219,0,0,0.0136745,332.33857,47.915454)" /></svg>