<?xml version="1.0" encoding="UTF-8" standalone="no"?>
<!-- Generator: Adobe Illustrator 19.2.1, SVG Export Plug-In . SVG Version: 6.00 Build 0)  -->

<svg
   xmlns:dc="http://purl.org/dc/elements/1.1/"
   xmlns:cc="http://creativecommons.org/ns#"
   xmlns:rdf="http://www.w3.org/1999/02/22-rdf-syntax-ns#"
   xmlns:svg="http://www.w3.org/2000/svg"
   xmlns="http://www.w3.org/2000/svg"
   xmlns:sodipodi="http://sodipodi.sourceforge.net/DTD/sodipodi-0.dtd"
   xmlns:inkscape="http://www.inkscape.org/namespaces/inkscape"
   version="1.1"
   id="Layer_1"
   x="0px"
   y="0px"
   width="720"
   height="67"
   viewBox="0 0 720 67"
   xml:space="preserve"
   inkscape:version="0.91 r13725"
   sodipodi:docname="categorypinselected.svg"><metadata
     id="metadata9"><rdf:RDF><cc:Work
         rdf:about=""><dc:format>image/svg+xml</dc:format><dc:type
           rdf:resource="http://purl.org/dc/dcmitype/StillImage" /><dc:title /></cc:Work></rdf:RDF></metadata><defs
     id="defs7"><filter
       style="color-interpolation-filters:sRGB"
       inkscape:label="Fade to Black or White"
       id="filter4238"><feColorMatrix
         values="1 0 0 0 0 0 1 0 0 0 0 0 1 0 0 0 0 0 1 0"
         id="feColorMatrix4240"
         result="fbSourceGraphic" /><feColorMatrix
         result="fbSourceGraphicAlpha"
         in="fbSourceGraphic"
         values="0 0 0 -1 0 0 0 0 -1 0 0 0 0 -1 0 0 0 0 1 0"
         id="feColorMatrix4242" /><feColorMatrix
         id="feColorMatrix4244"
         values="1 0 0 0 0 0 1 0 0 0 0 0 1 0 0 0 0 0 1 0"
         in="fbSourceGraphic" /></filter><pattern
       id="EMFhbasepattern"
       patternUnits="userSpaceOnUse"
       width="6"
       height="6"
       x="0"
       y="0" /><filter
       style="color-interpolation-filters:sRGB"
       inkscape:label="Silhouette"
       id="filter4430"><feColorMatrix
         values="1 0 0 0 0 0 1 0 0 0 0 0 1 0 0 0 0 0 1 0"
         id="feColorMatrix4432"
         result="fbSourceGraphic" /><feColorMatrix
         result="fbSourceGraphicAlpha"
         in="fbSourceGraphic"
         values="0 0 0 -1 0 0 0 0 -1 0 0 0 0 -1 0 0 0 0 1 0"
         id="feColorMatrix4434" /><feColorMatrix
         id="feColorMatrix4436"
         values="1 0 0 0 0 0 1 0 0 0 0 0 1 0 0 0 0 0 1 0"
         in="fbSourceGraphic"
         result="fbSourceGraphic" /><feColorMatrix
         result="fbSourceGraphicAlpha"
         in="fbSourceGraphic"
         values="0 0 0 -1 0 0 0 0 -1 0 0 0 0 -1 0 0 0 0 1 0"
         id="feColorMatrix4438" /><feColorMatrix
         id="feColorMatrix4440"
         values="1 0 0 0 0 0 1 0 0 0 0 0 1 0 0 0 0 0 1 0"
         in="fbSourceGraphic"
         result="fbSourceGraphic" /><feColorMatrix
         result="fbSourceGraphicAlpha"
         in="fbSourceGraphic"
         values="0 0 0 -1 0 0 0 0 -1 0 0 0 0 -1 0 0 0 0 1 0"
         id="feColorMatrix4442" /><feColorMatrix
         id="feColorMatrix4444"
         values="1 0 0 0 0 0 1 0 0 0 0 0 1 0 0 0 0 0 1 0"
         in="fbSourceGraphic"
         result="fbSourceGraphic" /><feColorMatrix
         result="fbSourceGraphicAlpha"
         in="fbSourceGraphic"
         values="0 0 0 -1 0 0 0 0 -1 0 0 0 0 -1 0 0 0 0 1 0"
         id="feColorMatrix4446" /><feColorMatrix
         id="feColorMatrix4448"
         values="1 0 0 0 0 0 1 0 0 0 0 0 1 0 0 0 0 0 1 0"
         in="fbSourceGraphic"
         result="fbSourceGraphic" /><feColorMatrix
         result="fbSourceGraphicAlpha"
         in="fbSourceGraphic"
         values="0 0 0 -1 0 0 0 0 -1 0 0 0 0 -1 0 0 0 0 1 0"
         id="feColorMatrix4450" /><feColorMatrix
         id="feColorMatrix4452"
         values="1 0 0 0 0 0 1 0 0 0 0 0 1 0 0 0 0 0 1 0"
         in="fbSourceGraphic"
         result="fbSourceGraphic" /><feColorMatrix
         result="fbSourceGraphicAlpha"
         in="fbSourceGraphic"
         values="0 0 0 -1 0 0 0 0 -1 0 0 0 0 -1 0 0 0 0 1 0"
         id="feColorMatrix4454" /><feColorMatrix
         id="feColorMatrix4456"
         values="1 0 0 0 0 0 1 0 0 0 0 0 1 0 0 0 0 0 1 0"
         in="fbSourceGraphic"
         result="fbSourceGraphic" /><feColorMatrix
         result="fbSourceGraphicAlpha"
         in="fbSourceGraphic"
         values="0 0 0 -1 0 0 0 0 -1 0 0 0 0 -1 0 0 0 0 1 0"
         id="feColorMatrix4458" /><feColorMatrix
         id="feColorMatrix4460"
         values="1 0 0 0 0 0 1 0 0 0 0 0 1 0 0 0 0 0 1 0"
         in="fbSourceGraphic"
         result="fbSourceGraphic" /><feColorMatrix
         result="fbSourceGraphicAlpha"
         in="fbSourceGraphic"
         values="0 0 0 -1 0 0 0 0 -1 0 0 0 0 -1 0 0 0 0 1 0"
         id="feColorMatrix4462" /><feColorMatrix
         id="feColorMatrix4464"
         values="1 0 0 0 0 0 1 0 0 0 0 0 1 0 0 0 0 0 1 0"
         in="fbSourceGraphic"
         result="fbSourceGraphic" /><feColorMatrix
         result="fbSourceGraphicAlpha"
         in="fbSourceGraphic"
         values="0 0 0 -1 0 0 0 0 -1 0 0 0 0 -1 0 0 0 0 1 0"
         id="feColorMatrix4466" /><feColorMatrix
         id="feColorMatrix4468"
         values="1 0 0 0 0 0 1 0 0 0 0 0 1 0 0 0 0 0 1 0"
         in="fbSourceGraphic"
         result="fbSourceGraphic" /><feColorMatrix
         result="fbSourceGraphicAlpha"
         in="fbSourceGraphic"
         values="0 0 0 -1 0 0 0 0 -1 0 0 0 0 -1 0 0 0 0 1 0"
         id="feColorMatrix4470" /><feFlood
         id="feFlood4472"
         flood-opacity="1"
         flood-color="rgb(0,0,0)"
         result="flood"
         in="fbSourceGraphic" /><feComposite
         id="feComposite4474"
         in2="fbSourceGraphic"
         in="flood"
         operator="in"
         result="composite" /><feGaussianBlur
         id="feGaussianBlur4476"
         stdDeviation="0.01"
         result="fbSourceGraphic" /><feColorMatrix
         result="fbSourceGraphicAlpha"
         in="fbSourceGraphic"
         values="0 0 0 -1 0 0 0 0 -1 0 0 0 0 -1 0 0 0 0 1 0"
         id="feColorMatrix4478" /><feFlood
         id="feFlood4480"
         flood-opacity="1"
         flood-color="rgb(0,0,0)"
         result="flood"
         in="fbSourceGraphic" /><feComposite
         id="feComposite4482"
         in2="fbSourceGraphic"
         in="flood"
         operator="in"
         result="composite" /><feGaussianBlur
         id="feGaussianBlur4484"
         stdDeviation="0.01"
         result="fbSourceGraphic" /><feColorMatrix
         result="fbSourceGraphicAlpha"
         in="fbSourceGraphic"
         values="0 0 0 -1 0 0 0 0 -1 0 0 0 0 -1 0 0 0 0 1 0"
         id="feColorMatrix4494" /><feFlood
         id="feFlood4496"
         flood-opacity="0.917647"
         flood-color="rgb(10,0,0)"
         result="flood"
         in="fbSourceGraphic" /><feComposite
         id="feComposite4498"
         in2="fbSourceGraphic"
         in="flood"
         operator="in"
         result="composite" /><feGaussianBlur
         id="feGaussianBlur4500"
         stdDeviation="0.01"
         result="fbSourceGraphic" /><feColorMatrix
         result="fbSourceGraphicAlpha"
         in="fbSourceGraphic"
         values="0 0 0 -1 0 0 0 0 -1 0 0 0 0 -1 0 0 0 0 1 0"
         id="feColorMatrix4502" /><feFlood
         id="feFlood4504"
         flood-opacity="0.917647"
         flood-color="rgb(10,0,0)"
         result="flood"
         in="fbSourceGraphic" /><feComposite
         id="feComposite4506"
         in2="fbSourceGraphic"
         in="flood"
         operator="out"
         result="composite" /><feGaussianBlur
         id="feGaussianBlur4508"
         stdDeviation="0.01" /></filter><filter
       id="filter4238-6"
       inkscape:label="Fade to Black or White"
       style="color-interpolation-filters:sRGB"><feColorMatrix
         result="fbSourceGraphic"
         id="feColorMatrix4240-7"
         values="1 0 0 0 0 0 1 0 0 0 0 0 1 0 0 0 0 0 1 0" /><feColorMatrix
         id="feColorMatrix4242-5"
         values="0 0 0 -1 0 0 0 0 -1 0 0 0 0 -1 0 0 0 0 1 0"
         in="fbSourceGraphic"
         result="fbSourceGraphicAlpha" /><feColorMatrix
         in="fbSourceGraphic"
         values="1 0 0 0 0 0 1 0 0 0 0 0 1 0 0 0 0 0 1 0"
         id="feColorMatrix4244-3" /></filter><filter
       style="color-interpolation-filters:sRGB"
       inkscape:label="Fade to Black or White"
       id="filter4238-3"><feColorMatrix
         values="1 0 0 0 0 0 1 0 0 0 0 0 1 0 0 0 0 0 1 0"
         id="feColorMatrix4240-6"
         result="fbSourceGraphic" /><feColorMatrix
         result="fbSourceGraphicAlpha"
         in="fbSourceGraphic"
         values="0 0 0 -1 0 0 0 0 -1 0 0 0 0 -1 0 0 0 0 1 0"
         id="feColorMatrix4242-7" /><feColorMatrix
         id="feColorMatrix4244-5"
         values="1 0 0 0 0 0 1 0 0 0 0 0 1 0 0 0 0 0 1 0"
         in="fbSourceGraphic" /></filter><filter
       style="color-interpolation-filters:sRGB"
       inkscape:label="Fade to Black or White"
       id="filter4238-3-3"><feColorMatrix
         values="1 0 0 0 0 0 1 0 0 0 0 0 1 0 0 0 0 0 1 0"
         id="feColorMatrix4240-6-5"
         result="fbSourceGraphic" /><feColorMatrix
         result="fbSourceGraphicAlpha"
         in="fbSourceGraphic"
         values="0 0 0 -1 0 0 0 0 -1 0 0 0 0 -1 0 0 0 0 1 0"
         id="feColorMatrix4242-7-6" /><feColorMatrix
         id="feColorMatrix4244-5-2"
         values="1 0 0 0 0 0 1 0 0 0 0 0 1 0 0 0 0 0 1 0"
         in="fbSourceGraphic" /></filter></defs><sodipodi:namedview
     pagecolor="#ffffff"
     bordercolor="#666666"
     borderopacity="1"
     objecttolerance="10"
     gridtolerance="10"
     guidetolerance="10"
     inkscape:pageopacity="0"
     inkscape:pageshadow="2"
     inkscape:window-width="1865"
     inkscape:window-height="1056"
     id="namedview5"
     showgrid="false"
     inkscape:zoom="1.2388978"
     inkscape:cx="447.60741"
     inkscape:cy="168.25639"
     inkscape:window-x="55"
     inkscape:window-y="24"
     inkscape:window-maximized="1"
     inkscape:current-layer="Layer_1"
     inkscape:snap-text-baseline="true" /><path
     d="m 123.15108,12.210838 -9.25576,-9.5777562 c -0.62947,-0.6590157 -1.65376,-0.663385 -2.28839,-0.00975 -0.005,0.00334 -0.005,0.0064 -0.0107,0.00975 l -9.22341,9.5777562 -9.029224,0 c -0.893534,0 -1.618132,0.752443 -1.618132,1.680309 l 0,30.245542 c 0,0.927867 0.724598,1.680308 1.618132,1.680308 l 38.835434,0 c 0.89353,0 1.61813,-0.752441 1.61813,-1.680308 l 0,-30.245542 c 0,-0.927866 -0.7246,-1.680309 -1.61813,-1.680309 l -9.02923,0 z m -10.38847,-6.015504 5.79294,6.015504 -11.5859,0 5.79296,-6.015504 z m 17.79957,36.261048 -35.599139,0 0,-26.884927 35.599139,0 0,26.884927 z M 104.67192,25.653303 c -1.78743,0 -3.23632,-1.504548 -3.23632,-3.360618 0,-1.856067 1.44889,-3.360615 3.23632,-3.360615 1.78738,0 3.23627,1.504548 3.23627,3.360615 0,1.85607 -1.44889,3.360618 -3.23627,3.360618 z m 22.65399,13.442463 -24.27217,0 4.85445,-10.081846 4.04536,8.401539 7.28162,-15.122774 8.09074,16.803081 z"
     id="path3"
     inkscape:connector-curvature="0"
     style="fill:#ff0000" /><path
     id="path4381"
     d="m 433.49286,2.5425017 c -0.80488,-0.00251 -1.05084,0.036747 -1.35143,0.1804107 -0.40913,0.1955292 -0.51376,0.4215743 -0.35355,0.7636263 0.0807,0.1723543 0.084,0.2033778 0.0413,0.3865972 -0.0255,0.1095571 -0.0644,0.448654 -0.0865,0.7535882 l -0.04,0.5544387 0.10543,0.1593835 0.10543,0.1593821 -0.0852,0.1969335 c -0.41582,0.9613938 -0.41767,0.9787059 -0.11868,1.1414475 0.19401,0.1056104 0.20301,0.1229727 0.19164,0.3714996 -0.006,0.1110213 0.0125,0.1523883 0.0884,0.2017546 0.0767,0.05026 0.0915,0.08518 0.0771,0.1829446 -0.0141,0.096169 0.007,0.1477124 0.10068,0.2527496 0.1,0.1113561 0.11394,0.1498377 0.0895,0.2466651 -0.0754,0.3008036 0.01,0.5654502 0.19899,0.6127804 0.0547,0.013667 0.28927,-0.011854 0.52131,-0.056926 0.23206,-0.045044 0.43474,-0.08168 0.4504,-0.081275 0.0414,8.911e-4 0.035,0.4074111 -0.008,0.4850242 -0.0199,0.036245 -0.10669,0.3134662 -0.19259,0.6161036 -0.1934,0.6809909 -0.26072,0.8728079 -0.30643,0.8728079 -0.0489,0 -0.26168,-0.341481 -0.26168,-0.420199 0,-0.0351 0.0257,-0.0851 0.0569,-0.111077 0.0365,-0.03029 0.0569,-0.1143266 0.0569,-0.2340918 0,-0.147757 -0.0195,-0.2062758 -0.0932,-0.2799465 -0.0512,-0.051236 -0.11365,-0.093129 -0.13876,-0.093129 -0.0279,0 -0.0192,-0.029007 0.0223,-0.074944 0.0657,-0.072601 0.064,-0.078458 -0.0522,-0.1869721 -0.0708,-0.066158 -0.24113,-0.1523995 -0.41593,-0.2106114 -0.32297,-0.1075629 -0.47171,-0.229777 -0.60574,-0.4976771 -0.0424,-0.084873 -0.10292,-0.1756344 -0.1343,-0.2016779 -0.0883,-0.073215 -0.14863,0.0779 -0.16878,0.4224124 l -0.0172,0.2940971 -0.23671,0 c -0.4088,0 -0.5478,0.2050541 -0.34327,0.5064489 0.0911,0.1341572 0.0915,0.1386338 0.0194,0.1772493 -0.0929,0.049744 -0.17407,0.204301 -0.2095,0.3991711 -0.0151,0.08277 -0.0591,0.213813 -0.0982,0.291252 -0.0894,0.177718 -0.0886,0.20185 0.01,0.29963 0.0672,0.0672 0.0717,0.08804 0.0285,0.130531 -0.1191,0.116879 -0.52265,0.326532 -0.98854,0.513488 -0.689,0.276481 -1.53267,0.741906 -1.90903,1.053138 -0.17054,0.141025 -0.47513,0.271319 -0.63524,0.271724 -0.22486,5.67e-4 -0.48204,-0.118803 -0.9257,-0.42984 -1.06094,-0.743812 -1.19274,-0.991675 -0.89629,-1.684898 l 0.14215,-0.332523 -0.01,-0.5122979 c -0.006,-0.2817635 -0.0286,-0.6062231 -0.0516,-0.7210153 -0.0522,-0.2610668 -0.21872,-0.6020255 -0.42502,-0.8700386 -0.25862,-0.3359801 -0.85495,-0.7944462 -1.37356,-1.0559871 -1.13737,-0.5735694 -2.72652,-0.3867925 -3.25121,0.3820885 -0.18408,0.2697368 -0.30843,0.3490653 -0.63334,0.4039902 -0.56591,0.095667 -0.82351,0.2681303 -0.91661,0.6138905 -0.0939,0.3485646 0.007,0.6853409 0.50266,1.6784137 0.31706,0.635249 0.40302,0.744282 0.99116,1.257352 0.18768,0.163722 0.22197,0.21462 0.24974,0.371338 0.0395,0.222537 0.0971,0.289119 0.38264,0.441303 0.36982,0.197112 0.74287,0.277162 1.34156,0.287776 0.6676,0.01185 0.67575,0.01763 0.70053,0.501154 0.0155,0.301226 0.0331,0.365338 0.1812,0.65729 0.23449,0.462239 0.23925,0.534408 0.0718,1.09955 -0.10892,0.367727 -0.14069,0.540806 -0.14112,0.770111 -5.4e-4,0.283199 0.008,0.314696 0.21614,0.739987 0.11924,0.244312 0.32561,0.623535 0.45877,0.842687 0.13318,0.219153 0.3667,0.663143 0.51887,0.986652 l 0.27662,0.588198 -0.0148,0.28461 c -0.037,0.710741 -0.0262,0.88357 0.0699,1.136862 0.0632,0.166373 0.14081,0.288204 0.242,0.379481 0.43721,0.394337 0.40502,0.340539 0.40502,0.676821 0,0.717567 -0.15406,1.657698 -0.34794,2.123438 -0.0635,0.152359 -0.19743,0.42351 -0.29781,0.602585 -0.22588,0.40293 -0.43357,1.018746 -0.55271,1.638967 -0.22214,1.156567 -0.20629,1.411429 0.13262,2.130549 0.35927,0.762393 0.37176,0.819709 0.70688,3.245995 0.0749,0.542661 0.18553,1.242801 0.24571,1.55587 0.22155,1.152783 0.34716,1.938887 0.35346,2.211668 l 0.007,0.279869 -0.43641,0.113295 c -0.76363,0.198233 -1.28578,0.433653 -1.95433,0.881028 -0.18784,0.125706 -0.48668,0.32567 -0.66409,0.444392 -0.99195,0.663816 -2.07284,1.161818 -2.71844,1.252448 -0.40771,0.05723 -0.71367,-0.0035 -1.1661,-0.231564 -0.52295,-0.26356 -0.58052,-0.257383 -0.98983,0.106099 -0.10319,0.09171 -0.24992,0.198424 -0.32588,0.237174 -0.20703,0.105624 -0.70314,0.222026 -1.14365,0.268324 -0.58773,0.06177 -0.54966,0.04503 -0.57318,0.252279 -0.0112,0.09943 -0.014,0.187847 -0.006,0.196461 0.008,0.0086 0.29831,-0.0088 0.64416,-0.03874 0.34585,-0.02993 0.71734,-0.0455 0.82553,-0.03463 l 0.1967,0.01976 0.0125,0.151793 c 0.0204,0.239569 -0.0618,0.52638 -0.21914,0.765917 -0.0798,0.121425 -0.37724,0.467858 -0.66109,0.769876 -0.68136,0.724978 -0.7317,0.820397 -0.78237,1.484561 -0.0862,1.129858 -0.0381,1.521239 0.21425,1.742771 0.12272,0.107786 0.15785,0.119486 0.30754,0.102626 0.30159,-0.03399 0.45248,-0.217427 0.69374,-0.843239 0.17064,-0.442635 0.31508,-0.637696 0.83928,-1.133547 0.74081,-0.700723 1.15364,-0.970664 2.03948,-1.333481 0.22489,-0.09211 0.55245,-0.236998 0.72781,-0.321926 0.17538,-0.08493 0.54084,-0.224483 0.81217,-0.31015 1.35574,-0.428026 2.43289,-0.896751 3.27557,-1.425346 0.21533,-0.135077 0.39792,-0.239204 0.40572,-0.231404 0.008,0.0078 -0.0194,0.08917 -0.0605,0.180883 -0.12147,0.271451 -0.25294,0.844348 -0.37909,1.652958 -0.11575,0.742278 -0.11784,0.779829 -0.0971,1.707671 0.0112,0.521787 0.0509,1.196313 0.087,1.49895 0.0665,0.557899 0.0795,1.119107 0.0329,1.429384 -0.0195,0.130238 -0.11882,0.309482 -0.4198,0.75738 -0.22811,0.339488 -0.40496,0.643398 -0.41957,0.721253 -0.014,0.07401 -0.0169,0.250742 -0.007,0.392686 0.0162,0.226377 0.0478,0.313365 0.25828,0.708127 0.42319,0.794017 0.44408,0.846712 0.51325,1.297272 l 0.065,0.424072 0.18272,0 0.18261,0 -0.0555,-0.180252 c -0.31355,-1.018299 -0.37874,-1.304356 -0.3216,-1.411121 0.0566,-0.105708 0.13611,-0.09828 0.3677,0.03456 0.26881,0.154174 0.44007,0.378057 0.75201,0.982856 0.19184,0.371952 0.29411,0.530068 0.36454,0.563451 0.17753,0.08416 1.27441,0.132762 1.98627,0.088 0.74132,-0.04662 0.85022,-0.06338 0.94222,-0.144523 0.13764,-0.121369 0.0441,-0.234036 -0.28951,-0.348803 -0.46791,-0.160985 -0.71664,-0.311005 -1.00381,-0.605511 -0.15303,-0.156922 -0.37789,-0.434403 -0.49973,-0.616578 -0.18051,-0.269855 -0.23344,-0.386116 -0.28533,-0.627409 -0.035,-0.162896 -0.13862,-0.595 -0.23021,-0.960249 -0.38022,-1.515821 -0.37476,-1.970693 0.0393,-3.259431 0.31873,-0.991877 0.81566,-3.089454 0.96902,-4.090338 0.0851,-0.554795 0.0954,-0.593068 0.19939,-0.743229 0.11087,-0.159946 0.25436,-0.213979 0.6814,-0.256388 0.51702,-0.05135 0.6279,-0.08508 0.91756,-0.279315 l 0.2446,-0.164049 0.27063,0.562188 c 0.14884,0.309158 0.34532,0.789151 0.43664,1.066661 0.16789,0.510204 0.21612,0.722969 0.53468,2.361638 0.1874,0.964017 0.59192,2.437325 1.01124,3.682794 0.37714,1.120263 0.39092,1.143926 1.07235,1.837638 0.34719,0.353467 0.61357,0.657433 0.6478,0.739357 0.0746,0.178515 0.0255,0.359043 -0.16768,0.616659 -0.0757,0.101064 -0.17021,0.256581 -0.20983,0.345641 -0.11923,0.268013 -0.29524,0.336595 -1.09804,0.427789 -0.67225,0.07637 -0.89724,0.190574 -0.89724,0.455377 0,0.180913 0.11574,0.32758 0.29616,0.375293 0.0771,0.0204 0.31102,0.04861 0.51973,0.06269 0.37573,0.02535 0.38004,0.02676 0.4364,0.141755 0.10278,0.209631 0.19889,0.246252 0.81589,0.31062 0.31306,0.03266 0.82537,0.07461 1.13844,0.09321 0.91313,0.05425 1.47976,0.02353 1.99229,-0.108065 0.24002,-0.06163 0.56318,-0.131131 0.71816,-0.154399 0.20176,-0.03029 0.37219,-0.0892 0.60013,-0.207531 0.30947,-0.160654 0.32159,-0.163652 0.43554,-0.10681 0.10111,0.05045 0.15923,0.05204 0.42328,0.01158 0.56729,-0.08684 1.31411,-0.380521 1.31411,-0.516726 0,-0.02355 -0.0324,-0.169328 -0.0718,-0.323982 -0.0396,-0.154659 -0.0923,-0.511747 -0.11728,-0.793512 -0.0524,-0.591485 -0.11952,-0.925302 -0.22912,-1.140184 -0.0427,-0.08356 -0.23886,-0.37248 -0.43601,-0.642036 -0.66643,-0.911188 -1.01973,-1.49563 -1.11346,-1.841831 -0.0226,-0.08348 -0.0851,-0.348171 -0.13904,-0.588194 -0.11156,-0.497149 -0.75256,-2.246565 -0.9525,-2.599453 -0.071,-0.125232 -0.20144,-0.310754 -0.28998,-0.412288 l -0.16097,-0.184601 0.01,-0.358453 c 0.0111,-0.419729 -0.007,-0.466497 -0.34295,-0.885141 -0.24997,-0.311669 -0.2995,-0.408902 -0.36739,-0.721016 -0.0414,-0.190614 -0.0367,-0.238331 0.055,-0.55025 0.0915,-0.311167 0.10027,-0.398806 0.0993,-0.985782 -7.1e-4,-0.43647 0.0229,-0.81588 0.0729,-1.176393 0.0407,-0.292668 0.10054,-0.805367 0.13304,-1.139311 0.0696,-0.715688 0.21159,-1.441148 0.47294,-2.417854 0.10445,-0.390164 0.24153,-0.953517 0.30476,-1.251893 0.0632,-0.298375 0.21579,-0.926725 0.33908,-1.396335 0.12328,-0.46961 0.23498,-0.947756 0.24818,-1.062548 0.0556,-0.485031 0.25602,-1.664885 0.31156,-1.835107 0.0449,-0.137811 0.0542,-0.261724 0.0365,-0.490166 -0.0217,-0.281407 -0.0563,-0.489557 -0.25085,-1.50749 -0.0379,-0.198278 -0.15785,-0.599578 -0.26659,-0.89178 -0.48155,-1.294121 -0.58772,-1.873717 -0.55926,-3.053169 0.023,-0.952652 0.0409,-1.036003 0.36296,-1.690356 0.27242,-0.553497 0.66775,-1.45459 1.00729,-2.295861 l 0.25275,-0.626144 0.17923,-0.07123 c 0.31316,-0.124507 1.62267,-0.806625 1.94263,-1.011873 0.33459,-0.214639 0.45656,-0.379955 0.45656,-0.61895 0,-0.244414 -0.15712,-0.91588 -0.26943,-1.151567 -0.23362,-0.490233 -0.62546,-0.804672 -1.71953,-1.37973 -0.71025,-0.373317 -0.81717,-0.468619 -1.3043,-1.162716 -0.38365,-0.5466237 -0.46361,-0.7089971 -0.46361,-0.941195 0,-0.2809143 -0.0413,-0.4039582 -0.15732,-0.4700034 -0.0593,-0.033734 -0.10794,-0.076534 -0.10808,-0.095109 -1.1e-4,-0.018576 -0.0251,-0.052729 -0.0557,-0.075892 -0.0742,-0.05641 -0.12174,-0.393365 -0.17542,-1.2434362 -0.0506,-0.8024524 -0.0226,-1.0209417 0.194,-1.5144449 0.25332,-0.5771478 0.32861,-1.177794 0.20642,-1.6468742 -0.15917,-0.6111334 -0.85413,-1.3411297 -1.52717,-1.6042577 -0.24871,-0.097243 -0.2808,-0.1001297 -1.26083,-0.1132944 -0.13958,-0.00181 -0.266,-0.00307 -0.38098,-0.00335 z m -4.34476,11.1078213 0.10543,0.125232 c 0.058,0.06889 0.23327,0.380027 0.38952,0.691368 0.22271,0.443729 0.28414,0.601602 0.28414,0.730504 0,0.09044 -0.0126,0.162944 -0.0285,0.161123 -0.0312,-0.0036 -0.48534,-0.289046 -0.90126,-0.566459 -0.14611,-0.09744 -0.35531,-0.226843 -0.46487,-0.287535 -0.10961,-0.06069 -0.19921,-0.128077 -0.19923,-0.149736 -4e-5,-0.05856 0.32862,-0.36353 0.58756,-0.54519 l 0.22713,-0.159303 z"
     style="fill:#ff0000"
     inkscape:connector-curvature="0" /><path
     d="m 332.73894,7.3990708 c -1.91405,0 -2.59883,1.7430453 -3.45498,3.4549922 l -1.72749,3.454992 -6.90998,0 c -2.87111,0 -5.1825,2.311388 -5.1825,5.182487 l 0,17.274953 c 0,2.871097 2.31139,5.182485 5.1825,5.182485 l 34.5499,0 c 2.8711,0 5.18249,-2.311388 5.18249,-5.182485 l 0,-17.274953 c 0,-2.871099 -2.31139,-5.182487 -5.18249,-5.182487 l -6.90997,0 -1.72751,-3.454992 C 345.69517,9.1265681 345.018,7.3990708 343.10393,7.3990708 l -10.36499,0 z M 320.64649,17.764045 c 0.95392,0 1.72751,0.773572 1.72751,1.727497 0,0.953923 -0.77359,1.727495 -1.72751,1.727495 -0.95392,0 -1.72749,-0.773572 -1.72749,-1.727495 0,-0.953925 0.77357,-1.727497 1.72749,-1.727497 z m 17.27496,0 c 5.72458,0 10.36497,4.640398 10.36497,10.364974 0,5.724573 -4.64039,10.364973 -10.36497,10.364973 -5.72458,0 -10.36498,-4.6404 -10.36498,-10.364973 0,-5.724576 4.6404,-10.364974 10.36498,-10.364974 z m 0,5.182487 c -2.86211,0 -5.18251,2.320371 -5.18251,5.182487 l 0,0 c 0,2.862114 2.3204,5.182485 5.18251,5.182485 l 0,0 c 2.8621,0 5.18248,-2.320371 5.18248,-5.182485 l 0,0 c 0,-2.862116 -2.32038,-5.182487 -5.18248,-5.182487 l 0,0 z"
     id="rect7143"
     inkscape:connector-curvature="0"
     style="fill:#ff0000" /><path
     id="path4173"
     d="m 244.88245,17.625459 0,5.948665 -19.33315,0 0,-5.948665 19.33315,0 z m 5.94866,0 0,5.948665 19.33318,0 0,-5.948665 -19.33318,0 z m -22.30748,8.922994 0,13.384494 c 0,2.463935 1.99756,4.461496 4.46149,4.461496 l 11.89733,0 0,-17.84599 -16.35882,0 z m 22.30748,0 0,17.84599 11.89734,0 c 2.46395,0 4.4615,-1.997561 4.4615,-4.461496 l 0,-13.384494 -16.35884,0 z m 5.94868,-23.7946532 c -4.17388,-0.132053 -7.8811,2.6483452 -8.923,6.6922474 -1.04191,-4.0439022 -4.74912,-6.8243084 -8.923,-6.6922474 -3.18522,-0.1002362 -5.84843,2.4008789 -5.94867,5.5860919 -0.004,0.1207433 -0.004,0.2418142 0,0.3625735 -0.46309,2.8038998 1.43421,5.4522458 4.23813,5.9153498 0.47709,0.07883 0.96279,0.09012 1.44285,0.03333 l 18.23265,0 c 2.83989,0.445254 5.50341,-1.495795 5.94868,-4.335685 0.084,-0.5344888 0.084,-1.0784924 0,-1.6129807 5.9e-4,-3.285448 -2.66203,-5.949259 -5.94749,-5.9498539 -0.0402,0 -0.0801,2.967e-4 -0.12005,0.00119 z m -17.846,8.9229942 c -1.50502,0.137711 -2.83663,-0.97082 -2.97434,-2.475534 -0.0154,-0.1659673 -0.0154,-0.3328275 0,-0.4987948 -0.13764,-1.5050148 0.97083,-2.8366215 2.47555,-2.9743334 0.16599,-0.015106 0.33282,-0.015106 0.49879,0 3.28545,0 5.94866,2.6632149 5.94866,5.9486622 l -5.94866,0 z m 17.846,0 -5.94868,0 c 0,-3.2854473 2.66322,-5.9486622 5.94868,-5.9486622 1.64272,0 2.97433,1.3316068 2.97433,2.9743334 0.13764,1.5050098 -0.97084,2.8366188 -2.47554,2.9743288 -0.166,0.01511 -0.33282,0.01511 -0.49879,0 z"
     inkscape:connector-curvature="0"
     style="fill:#ff0000" /><path
     inkscape:connector-curvature="0"
     d="m 60.395959,29.797251 c 2.67673,0.0022 5.289122,-0.820674 7.481079,-2.35654 1.734488,1.209691 3.737172,1.979869 5.83524,2.244324 l 1.645837,0 -5.386376,20.797399 c -0.404727,0.950471 -1.503322,1.392603 -2.453793,0.987504 -0.444377,-0.189272 -0.798231,-0.543127 -0.987503,-0.987504 L 60.395959,29.797251 Z"
     id="path4193"
     style="fill:#ff0000" /><path
     inkscape:connector-curvature="0"
     d="m 82.660419,19.02946 c 0,4.131801 -3.349279,7.48108 -7.481079,7.48108 -4.1318,0 -7.481079,-3.349279 -7.481079,-7.48108 l 0,0 0,0 0,0 c 0,4.131801 -3.349279,7.48108 -7.481078,7.48108 -4.131801,0 -7.48108,-3.349279 -7.48108,-7.48108 0,-4.131799 3.349279,-7.481078 7.48108,-7.481078 l 0.448865,0 c -1.437865,-3.8733283 0.536766,-8.1790641 4.410095,-9.6169276 3.873328,-1.4378622 8.179065,0.5367672 9.616927,4.4100957 0.623548,1.6795032 0.623548,3.5269563 0,5.2064569 l 0.48627,0 c 4.1318,3.75e-4 7.481079,3.349654 7.481079,7.481453 z"
     id="path4195"
     style="fill:#ff0000" /><path
     d="m 137.41205,13.038118 c -0.87791,0 -1.46315,0.593717 -1.46315,1.484292 l 0,22.264382 0,5.937171 c 0,0.890574 0.58524,1.48429 1.46315,1.48429 0.87789,0 1.46316,-0.593716 1.46316,-1.48429 l 0,-4.452878 38.04196,0 0,4.452878 c 0,0.890574 0.58524,1.48429 1.46314,1.48429 0.8779,0 1.46314,-0.593716 1.46314,-1.48429 l 0,-5.937171 c 0,-0.890573 -0.58524,-1.484293 -1.46314,-1.484293 l -39.5051,0 0,-20.780089 c 0,-0.890575 -0.58527,-1.484292 -1.46316,-1.484292 z m 8.77891,1.484292 c -2.34105,0 -4.38945,2.07801 -4.38945,4.452877 l 0,0 c 0,2.374867 2.0484,4.452877 4.38945,4.452877 l 0,0 c 2.34105,0 4.38947,-2.07801 4.38947,-4.452877 l 0,0 c 0,-2.374867 -2.04842,-4.452877 -4.38947,-4.452877 l 0,0 z m 10.24207,2.968585 c -4.38945,0 -4.38945,4.452875 -4.38945,4.452875 l 0,4.452877 -8.77892,0 c -0.87789,0 -1.46315,0.593718 -1.46315,1.484293 l 0,2.968583 c 0,0.890577 0.58526,1.484294 1.46315,1.484294 l 10.24207,0 26.33672,0 0,-7.42146 c 0,-7.421462 -7.31575,-7.421462 -7.31575,-7.421462 l -16.09467,0 z"
     style="fill:#ff0000"
     id="rect6507"
     inkscape:connector-curvature="0" /><path
     id="path4217"
     d="m 312.37341,2.3328159 c -0.26631,0.00273 -0.52799,0.0709 -0.76186,0.1987491 l -29.05048,8.082456 c -0.91456,0 -1.65621,0.741666 -1.65621,1.656242 l 0,20.802385 c -1.00337,-0.595582 -2.14583,-0.915238 -3.31251,-0.927495 -3.65895,0 -6.62495,2.965996 -6.62495,6.624966 0,3.658968 2.966,6.624963 6.62495,6.624963 3.65898,0 6.62498,-2.965995 6.62498,-6.624963 l 0,-15.369918 26.49985,-7.353711 0,12.057435 c -1.00335,-0.595582 -2.14583,-0.915239 -3.31248,-0.927494 -3.65897,0 -6.62495,2.965997 -6.62495,6.624964 0,3.658969 2.96598,6.624963 6.62495,6.624963 3.65898,0 6.62496,-2.965994 6.62496,-6.624963 l 0,-29.8123383 c 0,-0.9145774 -0.74166,-1.6562408 -1.65625,-1.6562408 z m -1.65623,10.4011941 -26.49985,7.35371 0,-6.624962 26.49985,-7.3537134 c 0,0 0,6.6249654 0,6.6249654 z"
     inkscape:connector-curvature="0"
     style="fill:#ff0000" /><path
     d="M 8.2844172,1.674436 5.059253,19.412838 c -0.4721632,2.596255 5.745629,3.808916 5.644035,6.450327 L 9.896997,46.826727 c -0.1238503,3.222908 3.225164,3.225164 3.225164,3.225164 0,0 3.34901,-0.0024 3.225163,-3.225164 L 15.541032,25.863165 c -0.101264,-2.636894 5.5905,-3.808274 5.644038,-6.450327 l -3.225164,-17.738402 -1.612582,0 0.806291,12.900654 -2.41887,1.612583 -0.806291,-14.513237 -1.612585,0 -0.80629,14.513237 L 9.0907077,14.57509 9.896997,1.674436 l -1.6125798,0 z m 27.4138888,0 c -2.375009,0 -6.334866,2.1121599 -7.918099,5.2786239 -1.319415,2.3750119 -1.757391,7.6807281 -1.757391,10.8471931 l 0,8.062912 c 0,2.638828 3.51833,3.225164 4.837744,3.225164 l -1.61258,17.738398 c -0.291877,3.211941 3.225163,3.225164 3.225163,3.225164 0,0 3.225163,0 3.225163,-3.225164 l 0,-45.152291 z"
     id="path11774"
     inkscape:connector-curvature="0"
     style="fill:#ff0000" /><path
     d="m 481.54843,13.138775 c -0.32018,0 -1.24053,0.417304 -1.24053,0.417304 l -9.46349,4.784587 c -1.26015,0.5019 -1.75952,2.512073 -1.00125,3.515876 l 2.76504,4.011224 -11.31045,5.780416 5.69124,4.272716 7.1269,-4.272716 7.1212,4.272716 2.85416,-2.854175 -8.54543,-11.393909 7.28242,-4.356176 c 1.50571,-0.758264 1.26301,-2.006754 1.26301,-2.765018 -0.0118,-0.597895 -1.02629,-1.412845 -2.54282,-1.412845 z m 6.09773,8.545432 c -2.75533,0 -4.99052,2.229505 -4.99052,4.984836 0,2.755332 2.23519,4.990533 4.99052,4.990533 2.75534,0 4.98483,-2.235201 4.98483,-4.990533 0,-2.755331 -2.22978,-4.984836 -4.98483,-4.984836 z m -27.77835,14.242387 -7.12121,4.272717 0,4.272714 7.12121,-4.272714 7.12118,4.272714 7.1269,-4.272714 7.1212,4.272714 5.69124,-4.272714 8.54544,4.272714 0,-4.272714 -8.54544,-4.272717 -5.69124,4.272717 -7.1212,-4.272717 -7.1269,4.272717 -7.12118,-4.272717 z"
     inkscape:connector-curvature="0"
     id="path16388"
     style="fill:#ff0000" /><path
     d="m 364.08561,3.4797549 c 0,0 -3.19697,0 -3.19697,3.1969512 l 0,16.4905239 c 0,5.531689 1.13172,12.282053 11.18935,12.282053 l 1.59846,0 0,-9.590859 -7.99237,3.196954 c 0,0 0,-7.992382 7.99237,-7.992382 l 0,-4.79543 c 0,-2.262804 0.27751,-4.222854 1.59848,-5.675869 1.21966,-1.3414428 3.21166,-4.0192108 8.49176,-1.504806 l 2.69758,1.754485 0,-4.1646699 c 0,0 0,-3.1969512 -3.19695,-3.1969512 -2.26281,0 -6.3223,3.1969512 -9.59087,3.1969512 -3.26856,0 -7.07644,-3.1969512 -9.59084,-3.1969512 z m 3.19694,6.3939069 c 1.76569,0 3.19696,1.4312762 3.19696,3.1969512 0,1.765677 -1.43127,3.196953 -3.19696,3.196953 -1.76568,0 -3.19694,-1.431276 -3.19694,-3.196953 0,-1.765675 1.43126,-3.1969512 3.19694,-3.1969512 z m 12.78782,3.1969512 c 0,0 -3.19696,0 -3.19696,3.196953 l 0,15.984763 c 0,6.393909 3.19696,12.787812 12.78781,12.787812 9.59086,0 12.78783,-6.393903 12.78783,-12.787812 l 0,-15.984763 c 0,-3.196953 -3.19697,-3.196953 -3.19697,-3.196953 -2.26281,0 -6.32228,3.196953 -9.59086,3.196953 -3.26857,0 -7.07647,-3.196953 -9.59085,-3.196953 z m 3.19695,6.393908 c 1.76567,0 3.19695,1.431275 3.19695,3.196951 0,1.765676 -1.43128,3.196952 -3.19695,3.196952 -1.76568,0 -3.19695,-1.431276 -3.19695,-3.196952 0,-1.765676 1.43127,-3.196951 3.19695,-3.196951 z m 12.78779,0 c 1.76571,0 3.19697,1.431275 3.19697,3.196951 0,1.765676 -1.43126,3.196952 -3.19697,3.196952 -1.76566,0 -3.19693,-1.431276 -3.19693,-3.196952 0,-1.765676 1.43127,-3.196951 3.19693,-3.196951 z m -14.38626,12.787808 7.99237,0 7.99236,0 c 0,0 0,7.992382 -7.99236,7.992382 -7.99237,0 -7.99237,-7.992382 -7.99237,-7.992382 z"
     id="path6342-3"
     inkscape:connector-curvature="0"
     style="fill:#ff0000" /><path
     d="m 201.67731,2.2150407 -19.67833,11.3395913 0,1.825694 39.35671,0 0,-1.825694 -19.67838,-11.3395913 z m -16.65089,16.4566073 0,16.456606 -3.02744,5.117017 0,4.756948 39.35671,0 0,-4.756948 -3.02743,-5.117017 0,-16.456606 -33.30184,0 z m 6.05487,3.291321 3.02745,0 0,18.102266 -3.02745,0 0,-18.102266 z m 9.08231,0 3.02746,0 0,18.102266 -3.02746,0 0,-18.102266 z m 9.08232,0 3.02746,0 0,18.102266 -3.02746,0 0,-18.102266 z"
     id="path7509"
     inkscape:connector-curvature="0"
     style="fill:#ff0000" /><rect
     style="fill:none;fill-opacity:1;stroke:#000000;stroke-width:0.80000001;stroke-miterlimit:4;stroke-dasharray:none;stroke-opacity:1"
     id="rect4178"
     width="45"
     height="45"
     x="0.20115723"
     y="1.1026183" /><rect
     style="fill:none;fill-opacity:1;stroke:#000000;stroke-width:0.80000001;stroke-miterlimit:4;stroke-dasharray:none;stroke-opacity:1"
     id="rect4205"
     width="45"
     height="45"
     x="540.0564"
     y="1.1026183" /><rect
     y="1.1026183"
     x="495.06848"
     height="45"
     width="45"
     id="rect4207"
     style="fill:none;fill-opacity:1;stroke:#000000;stroke-width:0.80000001;stroke-miterlimit:4;stroke-dasharray:none;stroke-opacity:1" /><rect
     style="fill:none;fill-opacity:1;stroke:#000000;stroke-width:0.80000001;stroke-miterlimit:4;stroke-dasharray:none;stroke-opacity:1"
     id="rect4209"
     width="45"
     height="45"
     x="450.08057"
     y="1.1026183" /><rect
     y="1.1026183"
     x="405.09259"
     height="45"
     width="45"
     id="rect4211"
     style="fill:none;fill-opacity:1;stroke:#000000;stroke-width:0.80000001;stroke-miterlimit:4;stroke-dasharray:none;stroke-opacity:1" /><rect
     style="fill:none;fill-opacity:1;stroke:#000000;stroke-width:0.80000001;stroke-miterlimit:4;stroke-dasharray:none;stroke-opacity:1"
     id="rect4213"
     width="45"
     height="45"
     x="360.10468"
     y="1.1026183" /><rect
     y="1.1026183"
     x="315.1167"
     height="45"
     width="45"
     id="rect4215"
     style="fill:none;fill-opacity:1;stroke:#000000;stroke-width:0.80000001;stroke-miterlimit:4;stroke-dasharray:none;stroke-opacity:1" /><rect
     style="fill:none;fill-opacity:1;stroke:#000000;stroke-width:0.80000001;stroke-miterlimit:4;stroke-dasharray:none;stroke-opacity:1"
     id="rect4217"
     width="45"
     height="45"
     x="270.12878"
     y="1.1026183" /><rect
     y="1.1026183"
     x="225.14085"
     height="45"
     width="45"
     id="rect4219"
     style="fill:none;fill-opacity:1;stroke:#000000;stroke-width:0.80000001;stroke-miterlimit:4;stroke-dasharray:none;stroke-opacity:1" /><rect
     style="fill:none;fill-opacity:1;stroke:#000000;stroke-width:0.80000001;stroke-miterlimit:4;stroke-dasharray:none;stroke-opacity:1"
     id="rect4221"
     width="45"
     height="45"
     x="180.15289"
     y="1.1026183" /><rect
     y="1.0731822"
     x="135.16496"
     height="45"
     width="45"
     id="rect4223"
     style="fill:none;fill-opacity:1;stroke:#000000;stroke-width:0.80000001;stroke-miterlimit:4;stroke-dasharray:none;stroke-opacity:1" /><rect
     style="fill:none;fill-opacity:1;stroke:#000000;stroke-width:0.80000001;stroke-miterlimit:4;stroke-dasharray:none;stroke-opacity:1"
     id="rect4225"
     width="45"
     height="45"
     x="630.03229"
     y="1.1026183" /><rect
     style="fill:none;fill-opacity:1;stroke:#000000;stroke-width:0.80000001;stroke-miterlimit:4;stroke-dasharray:none;stroke-opacity:1"
     id="rect4236"
     width="45"
     height="45"
     x="90.177032"
     y="1.1026183" /><rect
     y="0.6990338"
     x="45.592678"
     height="45"
     width="45"
     id="rect4238"
     style="fill:none;fill-opacity:1;stroke:#000000;stroke-width:0.80000001;stroke-miterlimit:4;stroke-dasharray:none;stroke-opacity:1" /><path
     sodipodi:nodetypes="ccccccccssscscscccccccsccccccsccccccsccccccsccccccscscscccscccccsscccscss"
     inkscape:connector-curvature="0"
     id="rect4783-8-1"
     style="fill:#ff0000;stroke:none"
     d="m 628.75831,23.464309 c 0.36549,-0.273515 0.781,-0.896633 0.64614,-1.332749 -1.8812,-6.285116 -7.53173,-11.111131 -14.77206,-13.0700615 -4.16521,-0.7179288 -9.51409,-0.7274701 -12.55162,-0.3168908 -7.85314,1.7036423 -14.28443,6.7386503 -16.27434,13.3871453 -0.19945,0.663516 0.37649,1.436919 1.06931,1.435954 l 29.93826,-0.05537 z m -39.45361,3.006066 c -1.21598,0 -2.23032,1.27556 -2.23032,2.795517 0,1.520053 1.01434,2.780391 2.23032,2.780391 l 37.64305,0 c 1.65202,0 2.25863,-1.551452 2.25863,-2.973112 0,-1.319709 -0.90306,-2.602796 -2.24025,-2.602796 z m 3.58998,7.042404 c -3.03346,0 -5.45463,1.849332 -5.66752,4.109315 l -0.0457,0.351377 0.54994,0 2.1998,0 0.45828,0 0.061,-0.290269 c 0.16111,-1.025411 1.19075,-1.77206 2.44419,-1.77206 1.25342,0 2.31228,0.747783 2.47473,1.77206 l 0.0764,0.290269 0.42773,0 3.88016,0 0.443,0 0.0305,-0.290269 c 0.16107,-1.025411 1.20598,-1.77206 2.45951,-1.77206 1.2536,0 2.31246,0.747783 2.47471,1.77206 l 0.0764,0.290269 0.42774,0 3.86492,0 0.45829,0 0.0457,-0.290269 c 0.16113,-1.025411 1.20581,-1.77206 2.4595,-1.77206 1.25334,0 2.31238,0.747783 2.47473,1.77206 l 0.061,0.290269 0.42774,0 3.88014,0 0.45829,0 0.0305,-0.290269 c 0.16102,-1.025411 1.2058,-1.77206 2.45949,-1.77206 1.25334,0 2.32762,0.747783 2.49005,1.77206 l 0.061,0.290269 0.42773,0 2.23033,0 0.53467,0 -0.0305,-0.351377 c -0.21407,-2.260683 -2.68001,-4.109315 -5.71338,-4.109315 -2.13845,0 -3.90351,0.944846 -4.87316,2.276171 -0.97353,-1.333086 -2.77878,-2.276171 -4.919,-2.276171 -2.14455,0 -3.90652,0.969284 -4.87315,2.306713 -0.97052,-1.339552 -2.77224,-2.306713 -4.91901,-2.306713 -2.13799,0 -3.91856,0.945111 -4.88837,2.276171 -0.97345,-1.333364 -2.77844,-2.276171 -4.91901,-2.276171 z m -4.87315,5.942459 c -0.62675,0 -1.11446,0.182335 -1.57343,0.53469 -0.22951,0.176183 -0.46615,0.402811 -0.61106,0.824873 -0.14473,0.422316 -0.01,1.073034 0.30553,1.420732 l 2.10817,2.337255 c 0.0572,0.06333 0.16042,0.266229 0.41247,0.580454 0.2519,0.314526 0.85506,0.73326 1.48181,0.73326 l 34.9367,0 c 0.62675,0 1.24511,-0.418734 1.49703,-0.73326 0.25191,-0.314334 0.3398,-0.517102 0.39719,-0.580454 l 2.10817,-2.337255 c 0.31433,-0.347771 0.43505,-0.998584 0.29025,-1.420732 -0.14474,-0.422014 -0.38144,-0.64869 -0.61105,-0.824873 -0.45892,-0.352403 -0.93166,-0.53469 -1.55821,-0.53469 z" /><g
     id="g4223"
     transform="matrix(1.2701937,0,0,1.2701937,-151.47557,-0.55327179)"
     style="fill:#ff0000;stroke:#000000"><path
       inkscape:connector-curvature="0"
       style="fill:#ff0000;fill-rule:evenodd;stroke:none"
       sodipodi:nodetypes="ccccccc"
       d="m 546.29759,32.026044 c 0.81708,1.876024 3.5925,3.219755 5.22536,3.557741 l 10.84208,0 10.83783,0 c 1.63301,-0.336946 4.4127,-1.681033 5.22975,-3.557741 l -16.06731,0 z"
       id="path123" /><path
       inkscape:connector-curvature="0"
       style="color:#000000;text-indent:0;text-transform:none;block-progression:tb;fill:#ff0000;stroke:none"
       d="m 571.89416,13.822729 c -3.62752,0 -6.59769,2.970165 -6.59769,6.597692 0,3.627527 2.97017,6.597693 6.59769,6.597693 3.62753,0 6.5977,-2.970166 6.5977,-6.597693 0,-3.627527 -2.97017,-6.597692 -6.5977,-6.597692 z m 0,2.73686 c 2.14847,0 3.86084,1.712368 3.86084,3.860832 0,2.148465 -1.71237,3.860833 -3.86084,3.860833 -2.14846,0 -3.86083,-1.712368 -3.86083,-3.860833 0,-2.148464 1.71237,-3.860832 3.86083,-3.860832 z"
       id="path3102" /><path
       id="path7593"
       style="fill:#ff0000;stroke:#000000;stroke-width:1.0812794;stroke-linecap:round"
       sodipodi:nodetypes="cc"
       inkscape:connector-curvature="0"
       d="m 558.12088,2.5220602 c 4.12427,4.3026811 -3.80989,4.5846247 0,8.9854318" /><path
       id="path7595"
       d="m 562.72172,2.5220602 c 4.12427,4.3026811 -3.80989,4.5846247 0,8.9854318"
       sodipodi:nodetypes="cc"
       style="fill:#ff0000;stroke:#000000;stroke-width:1.0812794;stroke-linecap:round"
       inkscape:connector-curvature="0" /><path
       id="path7597"
       style="fill:#ff0000;stroke:#000000;stroke-width:1.0812794;stroke-linecap:round"
       sodipodi:nodetypes="cc"
       inkscape:connector-curvature="0"
       d="m 567.32256,2.5220602 c 4.12427,4.3026811 -3.80988,4.5846247 0,8.9854318" /><path
       inkscape:connector-curvature="0"
       style="fill:#ff0000;fill-rule:evenodd;stroke:none"
       sodipodi:nodetypes="ccccccc"
       d="m 551.6877,13.822729 c 0.18037,4.018604 1.3204,14.562105 3.95115,17.116836 l 6.72632,0 6.72632,0 c 2.63081,-2.555689 3.77079,-13.098642 3.95114,-17.116836 l -10.67746,0 z"
       id="path121" /></g><g
     id="g4266"
     transform="matrix(1.3011017,0,0,1.3011017,-198.74536,0.35584862)"><ellipse
       ry="3.9774756"
       rx="12.197592"
       cy="7.8768945"
       cx="652.21765"
       id="path4231"
       style="fill:#ff0000;fill-opacity:1;stroke:#000000;stroke-width:0.80000001;stroke-miterlimit:4;stroke-dasharray:none;stroke-opacity:1" /><path
       sodipodi:nodetypes="csssscssssc"
       inkscape:connector-curvature="0"
       id="path4239"
       d="m 640.63702,9.1187192 c 7.31249,7.2499998 9.81249,7.8124998 10.12499,10.0624998 0.3125,2.25 0,10.187499 0,11.499999 0,1.3125 -0.5,1.25 -1.5625,1.75 -1.0625,0.5 -6.18749,1.125 -6.18749,1.5625 0,0.4375 8.79245,0 8.79245,0 0,0 8.79244,0.4375 8.79244,0 0,-0.4375 -5.12499,-1.0625 -6.18749,-1.5625 -1.0625,-0.5 -1.5625,-0.4375 -1.5625,-1.75 0,-1.3125 -0.3125,-9.249999 0,-11.499999 0.3125,-2.25 2.8125,-2.8125 10.12499,-10.0624999"
       style="fill:#ff0000;fill-rule:evenodd;stroke:#000000;stroke-width:1px;stroke-linecap:butt;stroke-linejoin:miter;stroke-opacity:1" /><ellipse
       ry="2.328125"
       rx="9.765625"
       cy="7.734376"
       cx="651.82812"
       id="path4243"
       style="fill:#ffffff;fill-opacity:1;stroke:none;stroke-width:0.80000001;stroke-miterlimit:4;stroke-dasharray:none;stroke-opacity:1" /><circle
       r="4.6845822"
       cy="6.2638078"
       cx="664.2605"
       id="path4235"
       style="fill:#ff0000;fill-opacity:1;stroke:#000000;stroke-width:0.80000001;stroke-miterlimit:4;stroke-dasharray:none;stroke-opacity:1" /><path
       inkscape:connector-curvature="0"
       id="path4245"
       d="m 661.96242,3.6342543 c -0.68501,0.9943688 -0.83969,1.4584077 -0.39775,1.5026018 0.44194,0.044194 2.43068,0.7292039 2.2539,0.3093592 -0.17677,-0.4198446 -1.65728,-2.1213203 -1.85615,-1.811961 z"
       style="fill:#ffffff;fill-rule:evenodd;stroke:none;stroke-width:1px;stroke-linecap:butt;stroke-linejoin:miter;stroke-opacity:1" /><path
       style="fill:#ffffff;fill-rule:evenodd;stroke:none;stroke-width:1px;stroke-linecap:butt;stroke-linejoin:miter;stroke-opacity:1"
       d="m 664.95699,2.8063115 c -1.20285,-0.1055524 -1.68282,-0.011276 -1.50333,0.3949819 0.1795,0.4062583 0.56431,2.4741637 0.84238,2.1133315 0.27806,-0.360827 1.02815,-2.487868 0.66094,-2.5083156 z"
       id="path4247"
       inkscape:connector-curvature="0" /><path
       inkscape:connector-curvature="0"
       id="path4249"
       d="m 667.31806,5.2447282 c -0.54784,-1.0760367 -0.88212,-1.4331324 -1.13155,-1.065645 -0.24943,0.3674961 -1.79926,1.7895779 -1.34591,1.8342057 0.45335,0.044622 2.65469,-0.4463141 2.47746,-0.7685704 z"
       style="fill:#ffffff;fill-rule:evenodd;stroke:none;stroke-width:1px;stroke-linecap:butt;stroke-linejoin:miter;stroke-opacity:1" /><path
       style="fill:#ffffff;fill-rule:evenodd;stroke:none;stroke-width:1px;stroke-linecap:butt;stroke-linejoin:miter;stroke-opacity:1"
       d="m 666.22797,8.5361031 c 0.84102,-0.8664112 1.0708,-1.2982182 0.6424,-1.4153885 -0.42842,-0.1171675 -2.27532,-1.1237668 -2.17093,-0.6803487 0.1044,0.4434162 1.28092,2.3676639 1.52853,2.095734 z"
       id="path4251"
       inkscape:connector-curvature="0" /><path
       inkscape:connector-curvature="0"
       id="path4253"
       d="m 663.13899,8.7035493 c 1.17198,0.2905916 1.66076,0.2717852 1.54636,-0.1573635 -0.11439,-0.4291684 -0.17427,-2.5317123 -0.50484,-2.2183198 -0.33059,0.3134053 -1.40108,2.2985966 -1.04148,2.3756742 z"
       style="fill:#ffffff;fill-rule:evenodd;stroke:none;stroke-width:1px;stroke-linecap:butt;stroke-linejoin:miter;stroke-opacity:1" /><path
       style="fill:#ffffff;fill-rule:evenodd;stroke:none;stroke-width:1px;stroke-linecap:butt;stroke-linejoin:miter;stroke-opacity:1"
       d="m 661.18852,6.6400557 c 0.53649,1.0817409 0.867,1.4423278 1.12027,1.0774894 0.2533,-0.3648436 1.818,-1.7705408 1.36517,-1.8199209 -0.45285,-0.049387 -2.65923,0.4183614 -2.48541,0.7424561 z"
       id="path4255"
       inkscape:connector-curvature="0" /><path
       sodipodi:nodetypes="cccc"
       style="fill:#ffffff;fill-rule:evenodd;stroke:none;stroke-width:1px;stroke-linecap:butt;stroke-linejoin:miter;stroke-opacity:1"
       d="m 653.65814,14.714565 c 0.75945,0.938734 0.54191,0.290508 0.70955,-0.120783 0.16763,-0.411299 4.61436,-3.803728 4.16163,-3.753192 -0.45272,0.05054 -5.11149,3.595582 -4.87118,3.873975 z"
       id="path4257"
       inkscape:connector-curvature="0" /></g><path
     inkscape:connector-curvature="0"
     d="m 538.58733,19.63254 c -2.61842,5.104586 -9.62328,12.046824 -13.58451,15.744811 -0.42588,0.389766 -1.07356,0.389766 -1.49943,0 -3.9836,-3.697987 -10.98845,-10.640225 -13.60689,-15.744811 -5.75158,-11.2300948 8.75049,-18.71682185 14.34543,-7.486727 5.59492,-11.23009485 20.097,-3.7433678 14.3454,7.486727 z"
     id="path4259"
     style="stroke:#ffffff;stroke-width:1.2627629;fill:#ff0000" /><path
     id="path4183"
     d="m 526.5428,28.184489 c -2.61843,5.104587 -9.62328,12.046825 -13.5845,15.744812 -0.42588,0.389766 -1.07357,0.389766 -1.49943,0 -3.98361,-3.697987 -10.98846,-10.640225 -13.60689,-15.744812 -5.75158,-11.230095 8.75048,-18.7168224 14.34541,-7.486725 5.59494,-11.2300974 20.09702,-3.74337 14.34541,7.486725 z"
     inkscape:connector-curvature="0"
     style="stroke:#ffffff;stroke-width:1.2627629;fill:#ff0000" /><g
     id="g4094"
     style="fill:#ff0000;filter:url(#filter4238-6)"
     transform="matrix(0.0202775,0,0,0.0202775,686.41713,29.357276)"><g
       transform="matrix(61.427212,0,0,61.427212,-37690.602,-21788.014)"
       inkscape:label="Calque 1"
       id="layer1-1"
       style="fill:#ff0000;stroke:#ffffff"><g
         id="g4158"
         transform="matrix(0.06919744,0,0,0.06919744,597.91106,308.84794)"
         style="fill:#ff0000;stroke:#ffffff"><g
           id="g4173"
           style="fill:#ff0000;stroke:#ffffff"
           transform="translate(-5.5111279,5.5111279)"><g
             id="g4168"
             style="fill:#ff0000;stroke:#ffffff;stroke-width:9.66798782;stroke-miterlimit:4;stroke-dasharray:none;stroke-opacity:1"
             transform="matrix(1.222256,0,0,1.222256,-87.561552,14.782215)"><g
               id="g4165"
               style="fill:#ff0000;stroke:#ffffff;stroke-width:9.66798782;stroke-miterlimit:4;stroke-dasharray:none;stroke-opacity:1"><path
                 d="m 347,294.74 c -15.609,1.3517 -29.034,15.263 -31.628,33.928 l -2.8752,21.277 c -0.5774,1.0227 -1.2176,1.9796 -1.7252,3.067 l -55.588,119.23 c -2.2496,4.8193 -3.5652,9.8737 -4.0254,14.76 l -30.094,0 c -19.705,0 -35.653,15.756 -35.653,35.462 l 0,112.52 c 0,19.705 15.948,35.653 35.653,35.653 l 52.33,0 c 11.978,10.839 27.737,17.443 45.238,17.443 l 71.307,0 c 37.439,0 67.473,-30.034 67.473,-67.473 l 0,-115.97 c 0,-37.439 -30.034,-67.473 -67.473,-67.473 l -22.044,0 13.61,-98.909 c 2.9652,-21.332 -9.2642,-40.618 -27.602,-43.321 -2.2923,-0.338 -4.6709,-0.38427 -6.9006,-0.19113 z"
                 inkscape:connector-curvature="0"
                 style="color:#000000;fill:#ff0000;stroke:#ffffff;stroke-width:9.66798782;stroke-miterlimit:4;stroke-dasharray:none;stroke-opacity:1"
                 id="rect9675" /></g></g><rect
             x="544.55182"
             y="-565.0127"
             width="74.828957"
             height="187.09073"
             ry="34.743851"
             transform="matrix(0,1,-1,0,0,0)"
             style="color:#000000;fill:#ff0000;stroke:#ffffff;stroke-width:13.28225517"
             id="rect9623-6" /><rect
             height="215.93596"
             x="621.51727"
             y="-593.85791"
             width="74.828957"
             ry="37.414478"
             transform="matrix(0,1,-1,0,0,0)"
             inkscape:transform-center-y="-8.3651992"
             inkscape:transform-center-x="-3.661163"
             style="color:#000000;fill:#ff0000;stroke:#ffffff;stroke-width:13.28225517"
             id="rect9623-6-5" /><rect
             height="192.02864"
             x="698.48279"
             y="-569.96289"
             width="74.828957"
             ry="37.414478"
             transform="matrix(0,1,-1,0,0,0)"
             inkscape:transform-center-y="-8.3651981"
             inkscape:transform-center-x="-3.25593"
             style="color:#000000;fill:#ff0000;stroke:#ffffff;stroke-width:13.28225517"
             id="rect9671" /><rect
             height="166.48349"
             x="775.44824"
             y="-544.40552"
             width="74.828957"
             ry="37.414478"
             transform="matrix(0,1,-1,0,0,0)"
             inkscape:transform-center-y="-8.3652012"
             inkscape:transform-center-x="-2.8227342"
             style="color:#000000;fill:#ff0000;stroke:#ffffff;stroke-width:13.28225517"
             id="rect9673" /></g></g></g></g><rect
     y="1.1026183"
     x="674.9726"
     height="45"
     width="45"
     id="rect4274"
     style="fill:none;fill-opacity:1;stroke:none;stroke-width:0.80000001;stroke-miterlimit:4;stroke-dasharray:none;stroke-opacity:1" /><path
     sodipodi:nodetypes="cccccc"
     inkscape:connector-curvature="0"
     id="path4216"
     d="M 55.935027,221.07013 -65.905573,325.06671 465.91203,1170.3139 954.66491,334.97857 798.02338,255.9322 C 518.79118,354.55972 342.52633,366.73309 55.935027,221.07013 Z"
     style="fill:#ff0000;fill-opacity:1;stroke:none;stroke-width:43.90217209;stroke-miterlimit:4;stroke-dasharray:none;stroke-opacity:1;filter:url(#filter4238-3)"
     transform="matrix(0.01548219,0,0,0.0136745,15.379468,47.915454)" /><path
     transform="matrix(0.01548219,0,0,0.0136745,694.57759,47.915454)"
     style="fill:#ff0000;fill-opacity:1;stroke:none;stroke-width:43.90217209;stroke-miterlimit:4;stroke-dasharray:none;stroke-opacity:1;filter:url(#filter4238-3)"
     d="M 55.935027,221.07013 -65.905573,325.06671 465.91203,1170.3139 954.66491,334.97857 798.02338,255.9322 C 518.79118,354.55972 342.52633,366.73309 55.935027,221.07013 Z"
     id="path4264"
     inkscape:connector-curvature="0"
     sodipodi:nodetypes="cccccc" /><path
     sodipodi:nodetypes="cccccc"
     inkscape:connector-curvature="0"
     id="path4266"
     d="M 55.935027,221.07013 -65.905573,325.06671 465.91203,1170.3139 954.66491,334.97857 798.02338,255.9322 C 518.79118,354.55972 342.52633,366.73309 55.935027,221.07013 Z"
     style="fill:#ff0000;fill-opacity:1;stroke:none;stroke-width:43.90217209;stroke-miterlimit:4;stroke-dasharray:none;stroke-opacity:1;filter:url(#filter4238-3)"
     transform="matrix(0.01548219,0,0,0.0136745,649.29768,47.915454)" /><path
     transform="matrix(0.01548219,0,0,0.0136745,604.01783,47.915454)"
     style="fill:#ff0000;fill-opacity:1;stroke:none;stroke-width:43.90217209;stroke-miterlimit:4;stroke-dasharray:none;stroke-opacity:1;filter:url(#filter4238-3)"
     d="M 55.935027,221.07013 -65.905573,325.06671 465.91203,1170.3139 954.66491,334.97857 798.02338,255.9322 C 518.79118,354.55972 342.52633,366.73309 55.935027,221.07013 Z"
     id="path4268"
     inkscape:connector-curvature="0"
     sodipodi:nodetypes="cccccc" /><path
     sodipodi:nodetypes="cccccc"
     inkscape:connector-curvature="0"
     id="path4270"
     d="M 55.935027,221.07013 -65.905573,325.06671 465.91203,1170.3139 954.66491,334.97857 798.02338,255.9322 C 518.79118,354.55972 342.52633,366.73309 55.935027,221.07013 Z"
     style="fill:#ff0000;fill-opacity:1;stroke:none;stroke-width:43.90217209;stroke-miterlimit:4;stroke-dasharray:none;stroke-opacity:1;filter:url(#filter4238-3)"
     transform="matrix(0.01548219,0,0,0.0136745,558.73793,47.915454)" /><path
     transform="matrix(0.01548219,0,0,0.0136745,513.45811,47.915454)"
     style="fill:#ff0000;fill-opacity:1;stroke:none;stroke-width:43.90217209;stroke-miterlimit:4;stroke-dasharray:none;stroke-opacity:1;filter:url(#filter4238-3)"
     d="M 55.935027,221.07013 -65.905573,325.06671 465.91203,1170.3139 954.66491,334.97857 798.02338,255.9322 C 518.79118,354.55972 342.52633,366.73309 55.935027,221.07013 Z"
     id="path4272"
     inkscape:connector-curvature="0"
     sodipodi:nodetypes="cccccc" /><path
     sodipodi:nodetypes="cccccc"
     inkscape:connector-curvature="0"
     id="path4274"
     d="M 55.935027,221.07013 -65.905573,325.06671 465.91203,1170.3139 954.66491,334.97857 798.02338,255.9322 C 518.79118,354.55972 342.52633,366.73309 55.935027,221.07013 Z"
     style="fill:#ff0000;fill-opacity:1;stroke:none;stroke-width:43.90217209;stroke-miterlimit:4;stroke-dasharray:none;stroke-opacity:1;filter:url(#filter4238-3)"
     transform="matrix(0.01548219,0,0,0.0136745,468.17821,47.915454)" /><path
     transform="matrix(0.01548219,0,0,0.0136745,422.89831,47.915454)"
     style="fill:#ff0000;fill-opacity:1;stroke:none;stroke-width:43.90217209;stroke-miterlimit:4;stroke-dasharray:none;stroke-opacity:1;filter:url(#filter4238-3)"
     d="M 55.935027,221.07013 -65.905573,325.06671 465.91203,1170.3139 954.66491,334.97857 798.02338,255.9322 C 518.79118,354.55972 342.52633,366.73309 55.935027,221.07013 Z"
     id="path4276"
     inkscape:connector-curvature="0"
     sodipodi:nodetypes="cccccc" /><path
     sodipodi:nodetypes="cccccc"
     inkscape:connector-curvature="0"
     id="path4278"
     d="M 55.935027,221.07013 -65.905573,325.06671 465.91203,1170.3139 954.66491,334.97857 798.02338,255.9322 C 518.79118,354.55972 342.52633,366.73309 55.935027,221.07013 Z"
     style="fill:#ff0000;fill-opacity:1;stroke:none;stroke-width:43.90217209;stroke-miterlimit:4;stroke-dasharray:none;stroke-opacity:1;filter:url(#filter4238-3)"
     transform="matrix(0.01548219,0,0,0.0136745,377.61844,47.915454)" /><path
     transform="matrix(0.01548219,0,0,0.0136745,287.05868,47.915454)"
     style="fill:#ff0000;fill-opacity:1;stroke:none;stroke-width:43.90217209;stroke-miterlimit:4;stroke-dasharray:none;stroke-opacity:1;filter:url(#filter4238-3)"
     d="M 55.935027,221.07013 -65.905573,325.06671 465.91203,1170.3139 954.66491,334.97857 798.02338,255.9322 C 518.79118,354.55972 342.52633,366.73309 55.935027,221.07013 Z"
     id="path4280"
     inkscape:connector-curvature="0"
     sodipodi:nodetypes="cccccc" /><path
     sodipodi:nodetypes="cccccc"
     inkscape:connector-curvature="0"
     id="path4282"
     d="M 55.935027,221.07013 -65.905573,325.06671 465.91203,1170.3139 954.66491,334.97857 798.02338,255.9322 C 518.79118,354.55972 342.52633,366.73309 55.935027,221.07013 Z"
     style="fill:#ff0000;fill-opacity:1;stroke:none;stroke-width:43.90217209;stroke-miterlimit:4;stroke-dasharray:none;stroke-opacity:1;filter:url(#filter4238-3)"
     transform="matrix(0.01548219,0,0,0.0136745,241.77884,47.915454)" /><path
     transform="matrix(0.01548219,0,0,0.0136745,196.49897,47.915454)"
     style="fill:#ff0000;fill-opacity:1;stroke:none;stroke-width:43.90217209;stroke-miterlimit:4;stroke-dasharray:none;stroke-opacity:1;filter:url(#filter4238-3)"
     d="M 55.935027,221.07013 -65.905573,325.06671 465.91203,1170.3139 954.66491,334.97857 798.02338,255.9322 C 518.79118,354.55972 342.52633,366.73309 55.935027,221.07013 Z"
     id="path4284"
     inkscape:connector-curvature="0"
     sodipodi:nodetypes="cccccc" /><path
     sodipodi:nodetypes="cccccc"
     inkscape:connector-curvature="0"
     id="path4286"
     d="M 55.935027,221.07013 -65.905573,325.06671 465.91203,1170.3139 954.66491,334.97857 798.02338,255.9322 C 518.79118,354.55972 342.52633,366.73309 55.935027,221.07013 Z"
     style="fill:#ff0000;fill-opacity:1;stroke:none;stroke-width:43.90217209;stroke-miterlimit:4;stroke-dasharray:none;stroke-opacity:1;filter:url(#filter4238-3)"
     transform="matrix(0.01548219,0,0,0.0136745,60.65934,47.915454)" /><path
     sodipodi:nodetypes="cccccc"
     inkscape:connector-curvature="0"
     id="path4286-9"
     d="M 55.935027,221.07013 -65.905573,325.06671 465.91203,1170.3139 954.66491,334.97857 798.02338,255.9322 C 518.79118,354.55972 342.52633,366.73309 55.935027,221.07013 Z"
     style="fill:#ff0000;fill-opacity:1;stroke:none;stroke-width:43.90217209;stroke-miterlimit:4;stroke-dasharray:none;stroke-opacity:1;filter:url(#filter4238-3-3)"
     transform="matrix(0.01548219,0,0,0.0136745,105.93921,47.915454)" /><path
     sodipodi:nodetypes="cccccc"
     inkscape:connector-curvature="0"
     id="path4328"
     d="M 55.935027,221.07013 -65.905573,325.06671 465.91203,1170.3139 954.66491,334.97857 798.02338,255.9322 C 518.79118,354.55972 342.52633,366.73309 55.935027,221.07013 Z"
     style="fill:#ff0000;fill-opacity:1;stroke:none;stroke-width:43.90217209;stroke-miterlimit:4;stroke-dasharray:none;stroke-opacity:1;filter:url(#filter4238-3)"
     transform="matrix(0.01548219,0,0,0.0136745,151.21909,47.915454)" /><path
     sodipodi:nodetypes="cccccc"
     inkscape:connector-curvature="0"
     id="path4330"
     d="M 55.935027,221.07013 -65.905573,325.06671 465.91203,1170.3139 954.66491,334.97857 798.02338,255.9322 C 518.79118,354.55972 342.52633,366.73309 55.935027,221.07013 Z"
     style="fill:#ff0000;fill-opacity:1;stroke:none;stroke-width:43.90217209;stroke-miterlimit:4;stroke-dasharray:none;stroke-opacity:1;filter:url(#filter4238-3)"
     transform="matrix(0.01548219,0,0,0.0136745,332.33857,47.915454)" /></svg>