<?xml version="1.0" encoding="UTF-8" standalone="no"?>
<!-- Generator: Adobe Illustrator 19.2.1, SVG Export Plug-In . SVG Version: 6.00 Build 0)  -->

<svg
   xmlns:dc="http://purl.org/dc/elements/1.1/"
   xmlns:cc="http://creativecommons.org/ns#"
   xmlns:rdf="http://www.w3.org/1999/02/22-rdf-syntax-ns#"
   xmlns:svg="http://www.w3.org/2000/svg"
   xmlns="http://www.w3.org/2000/svg"
   xmlns:sodipodi="http://sodipodi.sourceforge.net/DTD/sodipodi-0.dtd"
   xmlns:inkscape="http://www.inkscape.org/namespaces/inkscape"
   version="1.1"
   id="Layer_1"
   x="0px"
   y="0px"
   width="675"
   height="45"
   viewBox="0 0 675 45"
   xml:space="preserve"
   inkscape:version="0.91 r13725"
   sodipodi:docname="categorysprite.svg"><metadata
     id="metadata9"><rdf:RDF><cc:Work
         rdf:about=""><dc:format>image/svg+xml</dc:format><dc:type
           rdf:resource="http://purl.org/dc/dcmitype/StillImage" /><dc:title /></cc:Work></rdf:RDF></metadata><defs
     id="defs7"><filter
       style="color-interpolation-filters:sRGB"
       inkscape:label="Fade to Black or White"
       id="filter4238"><feColorMatrix
         values="1 0 0 0 0 0 1 0 0 0 0 0 1 0 0 0 0 0 1 0"
         id="feColorMatrix4240"
         result="fbSourceGraphic" /><feColorMatrix
         result="fbSourceGraphicAlpha"
         in="fbSourceGraphic"
         values="0 0 0 -1 0 0 0 0 -1 0 0 0 0 -1 0 0 0 0 1 0"
         id="feColorMatrix4242" /><feColorMatrix
         id="feColorMatrix4244"
         values="1 0 0 0 0 0 1 0 0 0 0 0 1 0 0 0 0 0 1 0"
         in="fbSourceGraphic" /></filter><pattern
       id="EMFhbasepattern"
       patternUnits="userSpaceOnUse"
       width="6"
       height="6"
       x="0"
       y="0" /><filter
       style="color-interpolation-filters:sRGB;"
       inkscape:label="Silhouette"
       id="filter4430"><feColorMatrix
         values="1 0 0 0 0 0 1 0 0 0 0 0 1 0 0 0 0 0 1 0"
         id="feColorMatrix4432"
         result="fbSourceGraphic" /><feColorMatrix
         result="fbSourceGraphicAlpha"
         in="fbSourceGraphic"
         values="0 0 0 -1 0 0 0 0 -1 0 0 0 0 -1 0 0 0 0 1 0"
         id="feColorMatrix4434" /><feColorMatrix
         id="feColorMatrix4436"
         values="1 0 0 0 0 0 1 0 0 0 0 0 1 0 0 0 0 0 1 0"
         in="fbSourceGraphic"
         result="fbSourceGraphic" /><feColorMatrix
         result="fbSourceGraphicAlpha"
         in="fbSourceGraphic"
         values="0 0 0 -1 0 0 0 0 -1 0 0 0 0 -1 0 0 0 0 1 0"
         id="feColorMatrix4438" /><feColorMatrix
         id="feColorMatrix4440"
         values="1 0 0 0 0 0 1 0 0 0 0 0 1 0 0 0 0 0 1 0"
         in="fbSourceGraphic"
         result="fbSourceGraphic" /><feColorMatrix
         result="fbSourceGraphicAlpha"
         in="fbSourceGraphic"
         values="0 0 0 -1 0 0 0 0 -1 0 0 0 0 -1 0 0 0 0 1 0"
         id="feColorMatrix4442" /><feColorMatrix
         id="feColorMatrix4444"
         values="1 0 0 0 0 0 1 0 0 0 0 0 1 0 0 0 0 0 1 0"
         in="fbSourceGraphic"
         result="fbSourceGraphic" /><feColorMatrix
         result="fbSourceGraphicAlpha"
         in="fbSourceGraphic"
         values="0 0 0 -1 0 0 0 0 -1 0 0 0 0 -1 0 0 0 0 1 0"
         id="feColorMatrix4446" /><feColorMatrix
         id="feColorMatrix4448"
         values="1 0 0 0 0 0 1 0 0 0 0 0 1 0 0 0 0 0 1 0"
         in="fbSourceGraphic"
         result="fbSourceGraphic" /><feColorMatrix
         result="fbSourceGraphicAlpha"
         in="fbSourceGraphic"
         values="0 0 0 -1 0 0 0 0 -1 0 0 0 0 -1 0 0 0 0 1 0"
         id="feColorMatrix4450" /><feColorMatrix
         id="feColorMatrix4452"
         values="1 0 0 0 0 0 1 0 0 0 0 0 1 0 0 0 0 0 1 0"
         in="fbSourceGraphic"
         result="fbSourceGraphic" /><feColorMatrix
         result="fbSourceGraphicAlpha"
         in="fbSourceGraphic"
         values="0 0 0 -1 0 0 0 0 -1 0 0 0 0 -1 0 0 0 0 1 0"
         id="feColorMatrix4454" /><feColorMatrix
         id="feColorMatrix4456"
         values="1 0 0 0 0 0 1 0 0 0 0 0 1 0 0 0 0 0 1 0"
         in="fbSourceGraphic"
         result="fbSourceGraphic" /><feColorMatrix
         result="fbSourceGraphicAlpha"
         in="fbSourceGraphic"
         values="0 0 0 -1 0 0 0 0 -1 0 0 0 0 -1 0 0 0 0 1 0"
         id="feColorMatrix4458" /><feColorMatrix
         id="feColorMatrix4460"
         values="1 0 0 0 0 0 1 0 0 0 0 0 1 0 0 0 0 0 1 0"
         in="fbSourceGraphic"
         result="fbSourceGraphic" /><feColorMatrix
         result="fbSourceGraphicAlpha"
         in="fbSourceGraphic"
         values="0 0 0 -1 0 0 0 0 -1 0 0 0 0 -1 0 0 0 0 1 0"
         id="feColorMatrix4462" /><feColorMatrix
         id="feColorMatrix4464"
         values="1 0 0 0 0 0 1 0 0 0 0 0 1 0 0 0 0 0 1 0"
         in="fbSourceGraphic"
         result="fbSourceGraphic" /><feColorMatrix
         result="fbSourceGraphicAlpha"
         in="fbSourceGraphic"
         values="0 0 0 -1 0 0 0 0 -1 0 0 0 0 -1 0 0 0 0 1 0"
         id="feColorMatrix4466" /><feColorMatrix
         id="feColorMatrix4468"
         values="1 0 0 0 0 0 1 0 0 0 0 0 1 0 0 0 0 0 1 0"
         in="fbSourceGraphic"
         result="fbSourceGraphic" /><feColorMatrix
         result="fbSourceGraphicAlpha"
         in="fbSourceGraphic"
         values="0 0 0 -1 0 0 0 0 -1 0 0 0 0 -1 0 0 0 0 1 0"
         id="feColorMatrix4470" /><feFlood
         id="feFlood4472"
         flood-opacity="1"
         flood-color="rgb(0,0,0)"
         result="flood"
         in="fbSourceGraphic" /><feComposite
         id="feComposite4474"
         in2="fbSourceGraphic"
         in="flood"
         operator="in"
         result="composite" /><feGaussianBlur
         id="feGaussianBlur4476"
         stdDeviation="0.01"
         result="fbSourceGraphic" /><feColorMatrix
         result="fbSourceGraphicAlpha"
         in="fbSourceGraphic"
         values="0 0 0 -1 0 0 0 0 -1 0 0 0 0 -1 0 0 0 0 1 0"
         id="feColorMatrix4478" /><feFlood
         id="feFlood4480"
         flood-opacity="1"
         flood-color="rgb(0,0,0)"
         result="flood"
         in="fbSourceGraphic" /><feComposite
         id="feComposite4482"
         in2="fbSourceGraphic"
         in="flood"
         operator="in"
         result="composite" /><feGaussianBlur
         id="feGaussianBlur4484"
         stdDeviation="0.01"
         result="fbSourceGraphic" /><feColorMatrix
         result="fbSourceGraphicAlpha"
         in="fbSourceGraphic"
         values="0 0 0 -1 0 0 0 0 -1 0 0 0 0 -1 0 0 0 0 1 0"
         id="feColorMatrix4494" /><feFlood
         id="feFlood4496"
         flood-opacity="0.917647"
         flood-color="rgb(10,0,0)"
         result="flood"
         in="fbSourceGraphic" /><feComposite
         id="feComposite4498"
         in2="fbSourceGraphic"
         in="flood"
         operator="in"
         result="composite" /><feGaussianBlur
         id="feGaussianBlur4500"
         stdDeviation="0.01"
         result="fbSourceGraphic" /><feColorMatrix
         result="fbSourceGraphicAlpha"
         in="fbSourceGraphic"
         values="0 0 0 -1 0 0 0 0 -1 0 0 0 0 -1 0 0 0 0 1 0"
         id="feColorMatrix4502" /><feFlood
         id="feFlood4504"
         flood-opacity="0.917647"
         flood-color="rgb(10,0,0)"
         result="flood"
         in="fbSourceGraphic" /><feComposite
         id="feComposite4506"
         in2="fbSourceGraphic"
         in="flood"
         operator="out"
         result="composite" /><feGaussianBlur
         id="feGaussianBlur4508"
         stdDeviation="0.01" /></filter></defs><sodipodi:namedview
     pagecolor="#ffffff"
     bordercolor="#666666"
     borderopacity="1"
     objecttolerance="10"
     gridtolerance="10"
     guidetolerance="10"
     inkscape:pageopacity="0"
     inkscape:pageshadow="2"
     inkscape:window-width="1865"
     inkscape:window-height="1056"
     id="namedview5"
     showgrid="false"
     inkscape:zoom="2"
     inkscape:cx="492.87913"
     inkscape:cy="85.448181"
     inkscape:window-x="55"
     inkscape:window-y="24"
     inkscape:window-maximized="1"
     inkscape:current-layer="Layer_1" /><path
     d="m 119.35345,8.5861422 -6.90287,-6.8787429 c -0.46945,-0.473305 -1.23336,-0.4764434 -1.70666,-0.007 -0.004,0.00238 -0.004,0.00463 -0.008,0.007 l -6.87874,6.8787429 -6.733924,0 c -0.66639,0 -1.206789,0.5404044 -1.206789,1.2067974 l 0,21.7223414 c 0,0.666394 0.540399,1.206797 1.206789,1.206797 l 28.963134,0 c 0.66639,0 1.20679,-0.540403 1.20679,-1.206797 l 0,-21.7223414 c 0,-0.666393 -0.5404,-1.2067974 -1.20679,-1.2067974 l -6.73392,0 z m -7.74763,-4.3203335 4.32032,4.3203335 -8.64066,0 4.32034,-4.3203335 z m 13.27476,26.0426763 -26.549534,0 0,-19.308749 26.549534,0 0,19.308749 z M 105.57185,18.240517 c -1.33305,0 -2.41362,-1.080566 -2.41362,-2.413595 0,-1.333027 1.08057,-2.413593 2.41362,-2.413593 1.33301,0 2.41358,1.080566 2.41358,2.413593 0,1.333029 -1.08057,2.413595 -2.41358,2.413595 z m 16.89515,9.654374 -18.10197,0 3.6204,-7.24078 3.017,6.033984 5.43057,-10.861173 6.034,12.067969 z"
     id="path3"
     inkscape:connector-curvature="0" /><path
     id="path4381"
     d="m 430.38838,1.0332953 c -0.57715,-0.00177 -0.75352,0.026352 -0.96907,0.129367 -0.29337,0.1402079 -0.3684,0.3022983 -0.25352,0.547573 0.0579,0.1235908 0.0602,0.145836 0.0296,0.2772173 -0.0183,0.078555 -0.0462,0.3217164 -0.062,0.5403746 l -0.0287,0.3975718 0.0756,0.1142882 0.0756,0.1142881 -0.0611,0.1412152 c -0.29817,0.689386 -0.2995,0.7018003 -0.0851,0.8184975 0.13912,0.075725 0.14557,0.088185 0.13742,0.2663908 -0.004,0.079608 0.009,0.1092726 0.0634,0.1446721 0.055,0.036044 0.0656,0.061078 0.0553,0.1311839 -0.0101,0.068959 0.005,0.1059201 0.0722,0.1812385 0.0717,0.079849 0.0817,0.107444 0.0642,0.176876 -0.0541,0.2156976 0.007,0.4054668 0.14269,0.4394063 0.0392,0.00984 0.20743,-0.00852 0.37382,-0.040816 0.1664,-0.032297 0.31174,-0.058568 0.32297,-0.058277 0.0297,6.385e-4 0.0251,0.2921422 -0.006,0.3477959 -0.0143,0.025987 -0.0765,0.2247768 -0.1381,0.4417893 -0.13868,0.4883173 -0.18695,0.6258636 -0.21973,0.6258636 -0.0351,0 -0.18764,-0.2448654 -0.18764,-0.3013114 0,-0.025171 0.0184,-0.061018 0.0408,-0.079649 0.0262,-0.021717 0.0408,-0.08198 0.0408,-0.1678607 0,-0.105952 -0.014,-0.1479142 -0.0668,-0.2007407 -0.0367,-0.036735 -0.0815,-0.066782 -0.0995,-0.066782 -0.02,0 -0.0138,-0.0208 0.016,-0.053744 0.0471,-0.05206 0.0459,-0.056257 -0.0374,-0.1340719 -0.0508,-0.047436 -0.17291,-0.1092813 -0.29825,-0.1510229 -0.23159,-0.077127 -0.33825,-0.1647665 -0.43436,-0.3568693 -0.0304,-0.060864 -0.0738,-0.1259419 -0.0963,-0.1446169 -0.0633,-0.052496 -0.10658,0.055857 -0.12103,0.3028991 l -0.0123,0.2108881 -0.16974,0 c -0.29314,0 -0.39281,0.1470377 -0.24615,0.3631591 0.0653,0.096197 0.0656,0.09941 0.0139,0.1271 -0.0666,0.035667 -0.12482,0.1464978 -0.15023,0.2862327 -0.0108,0.059346 -0.0424,0.1533188 -0.0704,0.2088476 -0.0641,0.1274367 -0.0635,0.1447418 0.007,0.2148559 0.0482,0.048194 0.0514,0.063128 0.0204,0.093596 -0.0854,0.083811 -0.37478,0.2341463 -0.70885,0.3682067 -0.49406,0.1982562 -1.09903,0.5319978 -1.36891,0.7551725 -0.12229,0.101125 -0.3407,0.1945554 -0.45551,0.1948457 -0.16124,4.063e-4 -0.34566,-0.085193 -0.66379,-0.3082254 -0.76077,-0.5333649 -0.85528,-0.7111001 -0.6427,-1.2081889 l 0.10193,-0.2384421 -0.007,-0.3673533 c -0.004,-0.202044 -0.0205,-0.4347042 -0.037,-0.5170178 -0.0374,-0.1872032 -0.15684,-0.4316942 -0.30477,-0.6238782 -0.18545,-0.2409209 -0.61306,-0.5696731 -0.98494,-0.7572159 -0.81557,-0.4112893 -1.9551,-0.2773567 -2.33134,0.2739838 -0.132,0.1934205 -0.22117,0.2503048 -0.45415,0.2896896 -0.4058,0.068596 -0.59051,0.1922682 -0.65727,0.4402017 -0.0673,0.2499449 0.005,0.4914375 0.36044,1.203539 0.22735,0.4555184 0.28899,0.5337017 0.71073,0.9016094 0.13458,0.1173996 0.15917,0.1538964 0.17908,0.2662746 0.0283,0.1595739 0.0696,0.207318 0.27438,0.3164454 0.26519,0.1413429 0.53269,0.1987438 0.96199,0.2063543 0.47872,0.00849 0.48456,0.012641 0.50233,0.3593626 0.0111,0.2159995 0.0237,0.2619731 0.12993,0.4713228 0.16815,0.3314574 0.17156,0.3832071 0.0515,0.7884532 -0.0781,0.2636856 -0.10088,0.3877964 -0.10119,0.5522234 -3.9e-4,0.203074 0.006,0.225659 0.15499,0.530622 0.0855,0.175189 0.23348,0.447118 0.32897,0.604265 0.0955,0.157148 0.26295,0.47552 0.37206,0.707498 l 0.19836,0.421779 -0.0106,0.204085 c -0.0265,0.509651 -0.0188,0.633581 0.0501,0.815209 0.0453,0.119301 0.10097,0.206662 0.17353,0.272114 0.31351,0.282767 0.29043,0.24419 0.29043,0.485328 0,0.514545 -0.11047,1.188684 -0.2495,1.522652 -0.0455,0.109252 -0.14157,0.303686 -0.21355,0.432095 -0.16197,0.288929 -0.3109,0.730512 -0.39633,1.175253 -0.15929,0.829339 -0.14792,1.012093 0.0951,1.527752 0.25762,0.546688 0.26658,0.587788 0.50688,2.327603 0.0537,0.389126 0.13304,0.891175 0.17619,1.115667 0.15887,0.826625 0.24894,1.390316 0.25346,1.585919 l 0.005,0.200686 -0.31293,0.08124 c -0.54758,0.142147 -0.922,0.310959 -1.40139,0.631758 -0.1347,0.09014 -0.34899,0.233528 -0.4762,0.31866 -0.7113,0.476002 -1.48637,0.833104 -1.94931,0.898092 -0.29236,0.04104 -0.51175,-0.0025 -0.83618,-0.166047 -0.37499,-0.188991 -0.41627,-0.184562 -0.70977,0.07608 -0.074,0.06576 -0.17921,0.142284 -0.23368,0.17007 -0.14846,0.07574 -0.5042,0.159208 -0.82008,0.192407 -0.42144,0.04429 -0.39414,0.03229 -0.41101,0.180902 -0.008,0.0713 -0.01,0.134699 -0.004,0.140876 0.006,0.0062 0.21391,-0.0063 0.46191,-0.02778 0.248,-0.02146 0.51438,-0.03263 0.59196,-0.02483 l 0.14105,0.01417 0.009,0.108846 c 0.0146,0.171788 -0.0443,0.377451 -0.15714,0.549216 -0.0572,0.08707 -0.27051,0.335486 -0.47405,0.552054 -0.48858,0.51986 -0.52468,0.588282 -0.56101,1.064533 -0.0618,0.810187 -0.0273,1.090834 0.15363,1.249688 0.088,0.07729 0.11319,0.08568 0.22053,0.07359 0.21626,-0.02437 0.32446,-0.15591 0.49746,-0.604661 0.12236,-0.3174 0.22593,-0.457272 0.60182,-0.812832 0.53121,-0.502467 0.82724,-0.696033 1.46245,-0.956198 0.16126,-0.06605 0.39614,-0.169944 0.52189,-0.230843 0.12576,-0.0609 0.38782,-0.16097 0.58238,-0.222399 0.97216,-0.306925 1.74455,-0.643033 2.34881,-1.022072 0.15441,-0.09686 0.28534,-0.171526 0.29093,-0.165933 0.006,0.0056 -0.0139,0.06394 -0.0434,0.129706 -0.0871,0.194649 -0.18137,0.605456 -0.27183,1.185285 -0.083,0.532265 -0.0845,0.559192 -0.0696,1.224519 0.008,0.374157 0.0365,0.857839 0.0624,1.074851 0.0477,0.400052 0.057,0.802477 0.0236,1.024967 -0.014,0.09339 -0.0852,0.22192 -0.30103,0.543094 -0.16357,0.243437 -0.29038,0.461361 -0.30086,0.517189 -0.01,0.05307 -0.0121,0.179799 -0.005,0.281583 0.0116,0.162328 0.0343,0.224704 0.1852,0.507776 0.30346,0.569365 0.31844,0.607151 0.36804,0.930234 l 0.0466,0.304089 0.13102,0 0.13095,0 -0.0398,-0.129253 c -0.22484,-0.730191 -0.27158,-0.935314 -0.23061,-1.011872 0.0406,-0.0758 0.0976,-0.07047 0.26367,0.02478 0.19275,0.110553 0.31556,0.271093 0.53924,0.704776 0.13756,0.266715 0.2109,0.380095 0.2614,0.404033 0.1273,0.06035 0.91384,0.0952 1.42429,0.0631 0.53158,-0.03343 0.60967,-0.04545 0.67564,-0.103633 0.0987,-0.08703 0.0316,-0.16782 -0.2076,-0.250116 -0.33552,-0.115437 -0.51388,-0.223012 -0.7198,-0.434193 -0.10973,-0.112524 -0.27097,-0.311497 -0.35834,-0.442129 -0.12944,-0.193505 -0.16739,-0.276872 -0.2046,-0.449896 -0.0251,-0.116808 -0.0994,-0.426656 -0.16508,-0.688565 -0.27264,-1.086949 -0.26873,-1.413124 0.0282,-2.337238 0.22855,-0.711245 0.58488,-2.215353 0.69485,-2.933056 0.061,-0.397827 0.0684,-0.425271 0.14298,-0.532947 0.0795,-0.114692 0.18239,-0.153438 0.48861,-0.183848 0.37074,-0.03682 0.45025,-0.06101 0.65795,-0.200288 l 0.1754,-0.117635 0.19406,0.403128 c 0.10673,0.221688 0.24762,0.565876 0.3131,0.76487 0.12039,0.365852 0.15497,0.518419 0.3834,1.693458 0.13438,0.691267 0.42445,1.747731 0.72513,2.640819 0.27044,0.803306 0.28032,0.820274 0.76895,1.317714 0.24896,0.25346 0.43997,0.471425 0.46452,0.53017 0.0535,0.128008 0.0183,0.257459 -0.12024,0.442187 -0.0543,0.07247 -0.12205,0.183987 -0.15046,0.247849 -0.0855,0.192184 -0.21171,0.241362 -0.78737,0.306754 -0.48205,0.05476 -0.64339,0.136655 -0.64339,0.326537 0,0.129727 0.083,0.234898 0.21237,0.269111 0.0553,0.01463 0.22302,0.03486 0.37268,0.04495 0.26943,0.01818 0.27252,0.01919 0.31293,0.101648 0.0737,0.15032 0.14262,0.17658 0.58505,0.222736 0.22449,0.02342 0.59185,0.0535 0.81634,0.06684 0.65478,0.0389 1.06109,0.01687 1.42861,-0.07749 0.17211,-0.04419 0.40384,-0.09403 0.51497,-0.110715 0.14468,-0.02172 0.26689,-0.06396 0.43034,-0.148814 0.22191,-0.1152 0.2306,-0.11735 0.31231,-0.07659 0.0725,0.03618 0.11418,0.03732 0.30352,0.0083 0.40679,-0.06227 0.94231,-0.27286 0.94231,-0.370528 0,-0.01689 -0.0232,-0.12142 -0.0515,-0.232318 -0.0284,-0.110901 -0.0662,-0.366958 -0.0841,-0.569003 -0.0376,-0.424136 -0.0857,-0.663506 -0.16429,-0.817591 -0.0306,-0.05992 -0.17128,-0.267094 -0.31265,-0.460384 -0.47788,-0.653385 -0.73122,-1.072471 -0.79843,-1.320721 -0.0162,-0.05986 -0.061,-0.249663 -0.0997,-0.421776 -0.08,-0.35649 -0.53964,-1.610943 -0.68301,-1.863988 -0.0509,-0.0898 -0.14445,-0.222832 -0.20794,-0.295639 l -0.11542,-0.132372 0.007,-0.257035 c 0.008,-0.300975 -0.005,-0.334511 -0.24592,-0.634708 -0.17924,-0.223488 -0.21476,-0.293211 -0.26344,-0.517018 -0.0297,-0.136684 -0.0263,-0.1709 0.0394,-0.394568 0.0656,-0.223128 0.0719,-0.285971 0.0712,-0.706874 -5.1e-4,-0.312979 0.0164,-0.585042 0.0523,-0.843555 0.0292,-0.209863 0.0721,-0.577504 0.0954,-0.816965 0.0499,-0.513198 0.15173,-1.033403 0.33913,-1.733769 0.0749,-0.279775 0.1732,-0.683738 0.21854,-0.897694 0.0453,-0.213956 0.15473,-0.664526 0.24314,-1.001269 0.0884,-0.336743 0.1685,-0.679607 0.17796,-0.761921 0.0399,-0.347801 0.18359,-1.193838 0.22341,-1.315899 0.0322,-0.09882 0.0389,-0.187674 0.0262,-0.351483 -0.0156,-0.201788 -0.0404,-0.351046 -0.17988,-1.080975 -0.0272,-0.142179 -0.11319,-0.429939 -0.19116,-0.639468 -0.34531,-0.927974 -0.42144,-1.343585 -0.40103,-2.189334 0.0165,-0.683117 0.0293,-0.742886 0.26027,-1.212102 0.19534,-0.396896 0.47882,-1.043042 0.72229,-1.646292 l 0.18124,-0.448988 0.12852,-0.05108 c 0.22456,-0.08928 1.16357,-0.5784066 1.393,-0.7255836 0.23993,-0.153911 0.32739,-0.2724543 0.32739,-0.4438299 0,-0.1752621 -0.11267,-0.6567497 -0.1932,-0.8257539 -0.16752,-0.3515315 -0.4485,-0.577005 -1.23302,-0.9893624 -0.5093,-0.267694 -0.58597,-0.3360318 -0.93528,-0.8337476 -0.2751,-0.3919669 -0.33244,-0.5084001 -0.33244,-0.6749023 0,-0.2014345 -0.0296,-0.2896664 -0.11281,-0.3370245 -0.0425,-0.02419 -0.0774,-0.054881 -0.0775,-0.068198 -8e-5,-0.013317 -0.018,-0.037806 -0.0399,-0.054423 -0.0532,-0.040453 -0.0873,-0.2820704 -0.12579,-0.8916303 -0.0363,-0.5754143 -0.0162,-0.7320856 0.13911,-1.0859623 0.18165,-0.4138552 0.23564,-0.8445597 0.14802,-1.1809224 -0.11414,-0.438225 -0.61247,-0.9616835 -1.09509,-1.1503642 -0.17834,-0.069725 -0.20135,-0.071803 -0.9041,-0.081237 -0.10009,-0.00134 -0.19074,-0.00218 -0.27319,-0.00244 z m -3.11549,7.9650781 0.0756,0.089796 c 0.0416,0.049404 0.16727,0.2725065 0.27931,0.4957595 0.1597,0.3181839 0.20375,0.4313897 0.20375,0.5238217 0,0.06485 -0.009,0.116842 -0.0204,0.115536 -0.0224,-0.0026 -0.34802,-0.207266 -0.64627,-0.4061896 -0.10477,-0.069873 -0.25478,-0.1626622 -0.33334,-0.2061831 -0.0786,-0.043524 -0.14285,-0.091843 -0.14286,-0.1073713 -3e-5,-0.041986 0.23564,-0.2606757 0.42132,-0.3909395 l 0.16287,-0.1142301 z"
     style="fill:#000000"
     inkscape:connector-curvature="0" /><path
     d="m 332.86312,2.5454084 c -1.68187,0 -2.28358,1.5316052 -3.03588,3.0358848 l -1.51794,3.0358846 -6.07176,0 c -2.52283,0 -4.55384,2.0310062 -4.55384,4.5538272 l 0,15.179418 c 0,2.522819 2.03101,4.553825 4.55384,4.553825 l 30.35883,0 c 2.52282,0 4.55383,-2.031006 4.55383,-4.553825 l 0,-15.179418 c 0,-2.522821 -2.03101,-4.5538272 -4.55383,-4.5538272 l -6.07176,0 -1.51795,-3.0358846 c -0.75897,-1.5179408 -1.35399,-3.0358848 -3.03588,-3.0358848 l -9.10766,0 z m -10.62558,9.1076526 c 0.8382,0 1.51795,0.679734 1.51795,1.517944 0,0.838207 -0.67975,1.517941 -1.51795,1.517941 -0.83821,0 -1.51794,-0.679734 -1.51794,-1.517941 0,-0.83821 0.67973,-1.517944 1.51794,-1.517944 z m 15.17942,0 c 5.03016,0 9.10765,4.077496 9.10765,9.107653 0,5.030155 -4.07749,9.107653 -9.10765,9.107653 -5.03016,0 -9.10766,-4.077498 -9.10766,-9.107653 0,-5.030157 4.0775,-9.107653 9.10766,-9.107653 z m 0,4.553827 c -2.51492,0 -4.55384,2.038899 -4.55384,4.553826 l 0,0 c 0,2.514926 2.03892,4.553825 4.55384,4.553825 l 0,0 c 2.51492,0 4.55382,-2.038899 4.55382,-4.553825 l 0,0 c 0,-2.514927 -2.0389,-4.553826 -4.55382,-4.553826 l 0,0 z"
     id="rect7143"
     inkscape:connector-curvature="0" /><path
     id="path4173"
     d="m 244.65236,13.3077 0,4.449799 -14.46184,0 0,-4.449799 14.46184,0 z m 4.44979,0 0,4.449799 14.46186,0 0,-4.449799 -14.46186,0 z m -16.68673,6.674696 0,10.012045 c 0,1.843105 1.49424,3.337347 3.33734,3.337347 l 8.8996,0 0,-13.349392 -12.23694,0 z m 16.68673,0 0,13.349392 8.89961,0 c 1.84311,0 3.33735,-1.494242 3.33735,-3.337347 l 0,-10.012045 -12.23696,0 z m 4.44981,-17.7991901 c -3.1222,-0.098781 -5.89532,1.9810504 -6.6747,5.0060229 -0.77938,-3.0249725 -3.5525,-5.1048086 -6.6747,-5.0060229 -2.38265,-0.074982 -4.37482,1.7959375 -4.4498,4.1785823 -0.003,0.090318 -0.003,0.1808847 0,0.2712163 -0.34641,2.0974109 1.07284,4.0784615 3.17026,4.4248785 0.35688,0.05897 0.7202,0.06741 1.0793,0.02493 l 13.63863,0 c 2.12433,0.333065 4.11673,-1.118904 4.44981,-3.2432361 0.0628,-0.3998152 0.0628,-0.8067481 0,-1.2065633 4.4e-4,-2.4576236 -1.99129,-4.4502425 -4.44892,-4.4506876 -0.0301,0 -0.0599,2.225e-4 -0.0898,8.901e-4 z m -13.3494,6.6746956 c -1.1258,0.1030129 -2.12189,-0.7262057 -2.2249,-1.8517816 -0.0115,-0.1241493 -0.0115,-0.2489661 0,-0.3731154 -0.10296,-1.1258007 0.72621,-2.1218865 1.85179,-2.2248993 0.12417,-0.0113 0.24896,-0.0113 0.37311,0 2.45763,0 4.4498,1.9921727 4.4498,4.4497963 l -4.4498,0 z m 13.3494,0 -4.44981,0 c 0,-2.4576236 1.99218,-4.4497963 4.44981,-4.4497963 1.22881,0 2.2249,0.9960858 2.2249,2.2248993 0.10296,1.1257973 -0.72622,2.1218854 -1.85179,2.224897 -0.12417,0.0113 -0.24896,0.0113 -0.37311,0 z"
     inkscape:connector-curvature="0" /><path
     inkscape:connector-curvature="0"
     d="m 62.133471,21.384783 c 1.683386,0.0014 3.32631,-0.516119 4.704824,-1.482019 1.090813,0.76077 2.350294,1.245132 3.669762,1.411447 l 1.035061,0 -3.387473,13.07941 c -0.254531,0.597748 -0.945434,0.875803 -1.543182,0.621037 -0.279467,-0.119032 -0.502005,-0.34157 -0.621037,-0.621037 L 62.133471,21.384783 Z"
     id="path4193" /><path
     inkscape:connector-curvature="0"
     d="m 76.247942,13.151342 c 0,2.598474 -2.106349,4.704824 -4.704824,4.704824 -2.598474,0 -4.704823,-2.10635 -4.704823,-4.704824 l 0,0 0,0 0,0 c 0,2.598474 -2.10635,4.704824 -4.704824,4.704824 -2.598474,0 -4.704824,-2.10635 -4.704824,-4.704824 0,-2.598474 2.10635,-4.704824 4.704824,-4.704824 l 0.282289,0 c -0.904267,-2.4359225 0.337571,-5.1437839 2.773494,-6.048051 2.435922,-0.9042672 5.143784,0.3375711 6.048051,2.7734936 0.392147,1.056233 0.392147,2.2180892 0,3.2743221 l 0.305813,0 c 2.598475,2.353e-4 4.704824,2.1065853 4.704824,4.7050593 z"
     id="path4195" /><path
     d="m 140.21024,6.1438563 c -0.74069,0 -1.23445,0.4937818 -1.23445,1.2344545 l 0,18.5168112 0,4.937818 c 0,0.740672 0.49376,1.234453 1.23445,1.234453 0.74067,0 1.23446,-0.493781 1.23446,-1.234453 l 0,-3.703363 32.09581,0 0,3.703363 c 0,0.740672 0.49377,1.234453 1.23445,1.234453 0.74068,0 1.23444,-0.493781 1.23444,-1.234453 l 0,-4.937818 c 0,-0.740671 -0.49376,-1.234455 -1.23444,-1.234455 l -33.33026,0 0,-17.2823562 c 0,-0.7406727 -0.49379,-1.2344545 -1.23446,-1.2344545 z m 7.40672,1.2344545 c -1.97513,0 -3.70335,1.7282363 -3.70335,3.7033622 l 0,0 c 0,1.975126 1.72822,3.703363 3.70335,3.703363 l 0,0 c 1.97514,0 3.70338,-1.728237 3.70338,-3.703363 l 0,0 c 0,-1.9751259 -1.72824,-3.7033622 -3.70338,-3.7033622 l 0,0 z m 8.64119,2.4689083 c -3.70336,0 -3.70336,3.7033609 -3.70336,3.7033609 l 0,3.703363 -7.40673,0 c -0.74067,0 -1.23445,0.493783 -1.23445,1.234455 l 0,2.468907 c 0,0.740674 0.49378,1.234456 1.23445,1.234456 l 8.64118,0 22.22016,0 0,-6.17227 c 0,-6.1722719 -6.17226,-6.1722719 -6.17226,-6.1722719 l -13.57899,0 z"
     style="fill:#010101"
     id="rect6507"
     inkscape:connector-curvature="0" /><path
     id="path4217"
     d="m 305.65635,1.5412851 c -0.20516,0.00212 -0.40675,0.054619 -0.58692,0.1531137 l -22.38,6.2265877 c -0.70456,0 -1.27592,0.5713672 -1.27592,1.2759405 l 0,16.025807 c -0.77298,-0.458826 -1.65311,-0.705084 -2.5519,-0.714526 -2.81879,0 -5.10375,2.284953 -5.10375,5.103762 0,2.818807 2.28496,5.10376 5.10375,5.10376 2.81882,0 5.10377,-2.284953 5.10377,-5.10376 l 0,-11.840726 20.41504,-5.665175 0,9.288845 c -0.77296,-0.458827 -1.65311,-0.705085 -2.55188,-0.714526 -2.81881,0 -5.10375,2.284954 -5.10375,5.103761 0,2.818808 2.28494,5.10376 5.10375,5.10376 2.81882,0 5.10376,-2.284952 5.10376,-5.10376 l 0,-22.9669234 c 0,-0.7045746 -0.57136,-1.2759405 -1.27595,-1.2759405 z m -1.27593,8.0129058 -20.41504,5.6651731 0,-5.103759 20.41504,-5.6651763 c 0,0 0,5.1037622 0,5.1037622 z"
     inkscape:connector-curvature="0" /><path
     d="M 12.625182,1.0190352 10.383986,13.345613 c -0.32811,1.804162 3.992691,2.646852 3.922093,4.482392 l -0.5603,14.567772 c -0.08606,2.239628 2.241196,2.241196 2.241196,2.241196 0,0 2.327258,-0.0017 2.241196,-2.241196 L 17.667872,17.828005 c -0.07037,-1.832402 3.884889,-2.646404 3.922093,-4.482392 l -2.241196,-12.3265778 -1.120598,0 0.560299,8.9647831 -1.680895,1.1205987 -0.5603,-10.0853818 -1.120599,0 -0.560299,10.0853818 -1.680895,-1.1205987 0.560297,-8.9647831 -1.120597,0 z m 19.050164,0 c -1.650416,0 -4.402157,1.467759 -5.50236,3.668164 -0.916873,1.6504181 -1.221227,5.3374088 -1.221227,7.5378148 l 0,5.602991 c 0,1.833746 2.44492,2.241196 3.361793,2.241196 l -1.120597,12.326576 c -0.202828,2.232007 2.241196,2.241196 2.241196,2.241196 0,0 2.241195,0 2.241195,-2.241196 l 0,-31.3767418 z"
     id="path11774"
     inkscape:connector-curvature="0" /><path
     d="m 478.43216,3.8172686 c -0.27935,0 -1.08234,0.3640908 -1.08234,0.3640908 l -8.25675,4.1744764 c -1.09946,0.4379004 -1.53515,2.1917442 -0.87357,3.0675462 l 2.41245,3.49973 -9.86819,5.043321 4.96552,3.727877 6.21811,-3.727877 6.21313,3.727877 2.49021,-2.490222 -7.45575,-9.941005 6.35379,-3.8006957 c 1.31371,-0.6615729 1.10196,-1.7508604 1.10196,-2.4124333 -0.0103,-0.5216545 -0.89542,-1.2326854 -2.21857,-1.2326854 z m 5.32017,7.4557544 c -2.40398,0 -4.35415,1.945208 -4.35415,4.34919 0,2.403984 1.95017,4.354161 4.35415,4.354161 2.40399,0 4.34919,-1.950177 4.34919,-4.354161 0,-2.403982 -1.94545,-4.34919 -4.34919,-4.34919 z m -24.23617,12.426257 -6.21314,3.727878 0,3.727875 6.21314,-3.727875 6.21312,3.727875 6.21811,-3.727875 6.21313,3.727875 4.96552,-3.727875 7.45576,3.727875 0,-3.727875 -7.45576,-3.727878 -4.96552,3.727878 -6.21313,-3.727878 -6.21811,3.727878 -6.21312,-3.727878 z"
     inkscape:connector-curvature="0"
     id="path16388" /><path
     d="m 366.53219,1.4141663 c 0,0 -2.70025,0 -2.70025,2.7002325 l 0,13.9283462 c 0,4.672215 0.95588,10.373756 9.45083,10.373756 l 1.3501,0 0,-8.100701 -6.75057,2.700235 c 0,0 0,-6.750584 6.75057,-6.750584 l 0,-4.05035 c 0,-1.911226 0.23439,-3.5667387 1.35012,-4.7939941 1.03016,-1.1330196 2.71266,-3.3947349 7.17237,-1.2710001 l 2.27845,1.4818856 0,-3.5175936 c 0,0 0,-2.7002325 -2.70023,-2.7002325 -1.91123,0 -5.33999,2.7002325 -8.10071,2.7002325 -2.76071,0 -5.97695,-2.7002325 -8.10068,-2.7002325 z m 2.70022,5.4004679 c 1.49135,0 2.70024,1.2088955 2.70024,2.7002326 0,1.4913392 -1.20889,2.7002342 -2.70024,2.7002342 -1.49134,0 -2.70022,-1.208895 -2.70022,-2.7002342 0,-1.4913371 1.20888,-2.7002326 2.70022,-2.7002326 z m 10.80094,2.7002326 c 0,0 -2.70024,0 -2.70024,2.7002342 l 0,13.501166 c 0,5.400469 2.70024,10.800934 10.80093,10.800934 8.1007,0 10.80095,-5.400465 10.80095,-10.800934 l 0,-13.501166 c 0,-2.7002342 -2.70025,-2.7002342 -2.70025,-2.7002342 -1.91123,0 -5.33997,2.7002342 -8.1007,2.7002342 -2.76072,0 -5.97698,-2.7002342 -8.10069,-2.7002342 z m 2.70023,5.4004692 c 1.49133,0 2.70023,1.208894 2.70023,2.700232 0,1.491338 -1.2089,2.700232 -2.70023,2.700232 -1.49134,0 -2.70023,-1.208894 -2.70023,-2.700232 0,-1.491338 1.20889,-2.700232 2.70023,-2.700232 z m 10.80092,0 c 1.49136,0 2.70024,1.208894 2.70024,2.700232 0,1.491338 -1.20888,2.700232 -2.70024,2.700232 -1.49133,0 -2.70022,-1.208894 -2.70022,-2.700232 0,-1.491338 1.20889,-2.700232 2.70022,-2.700232 z m -12.15103,10.800931 6.75057,0 6.75057,0 c 0,0 0,6.750583 -6.75057,6.750583 -6.75057,0 -6.75057,-6.750583 -6.75057,-6.750583 z"
     id="path6342-3"
     inkscape:connector-curvature="0" /><path
     d="m 201.89939,2.6199225 -15.23891,8.0773355 0,1.300465 30.47785,0 0,-1.300465 -15.23894,-8.0773355 z m -12.89446,11.7222515 0,11.722249 -2.34445,3.644916 0,3.388434 30.47785,0 0,-3.388434 -2.34445,-3.644916 0,-11.722249 -25.78895,0 z m 4.68889,2.344449 2.34446,0 0,12.894474 -2.34446,0 0,-12.894474 z m 7.03335,0 2.34446,0 0,12.894474 -2.34446,0 0,-12.894474 z m 7.03335,0 2.34447,0 0,12.894474 -2.34447,0 0,-12.894474 z"
     id="path7509"
     inkscape:connector-curvature="0" /><path
     sodipodi:nodetypes="cccccc"
     inkscape:connector-curvature="0"
     id="path4216"
     d="M 55.935027,221.07013 -65.905573,325.06671 465.91203,1170.3139 954.66491,334.97857 798.02338,255.9322 C 518.79118,354.55972 342.52633,366.73309 55.935027,221.07013 Z"
     style="fill:#ff6600;fill-opacity:1;stroke:#1a1a1a;stroke-width:43.90217209;stroke-miterlimit:4;stroke-dasharray:none;stroke-opacity:1;filter:url(#filter4238)"
     transform="matrix(0.01534715,0,0,0.0097661,601.01515,32.606069)" /><rect
     style="fill:none;fill-opacity:1;stroke:#000000;stroke-width:0.80000001;stroke-miterlimit:4;stroke-dasharray:none;stroke-opacity:1"
     id="rect4178"
     width="45"
     height="45"
     x="0.20115723"
     y="0.089014567" /><rect
     y="0.089014567"
     x="585.04437"
     height="45"
     width="45"
     id="rect4189"
     style="fill:none;fill-opacity:1;stroke:#000000;stroke-width:0.80000001;stroke-miterlimit:4;stroke-dasharray:none;stroke-opacity:1" /><rect
     style="fill:none;fill-opacity:1;stroke:#000000;stroke-width:0.80000001;stroke-miterlimit:4;stroke-dasharray:none;stroke-opacity:1"
     id="rect4205"
     width="45"
     height="45"
     x="540.0564"
     y="0.089014567" /><rect
     y="0.089014567"
     x="495.06848"
     height="45"
     width="45"
     id="rect4207"
     style="fill:none;fill-opacity:1;stroke:#000000;stroke-width:0.80000001;stroke-miterlimit:4;stroke-dasharray:none;stroke-opacity:1" /><rect
     style="fill:none;fill-opacity:1;stroke:#000000;stroke-width:0.80000001;stroke-miterlimit:4;stroke-dasharray:none;stroke-opacity:1"
     id="rect4209"
     width="45"
     height="45"
     x="450.08057"
     y="0.089014567" /><rect
     y="0.089014567"
     x="405.09259"
     height="45"
     width="45"
     id="rect4211"
     style="fill:none;fill-opacity:1;stroke:#000000;stroke-width:0.80000001;stroke-miterlimit:4;stroke-dasharray:none;stroke-opacity:1" /><rect
     style="fill:none;fill-opacity:1;stroke:#000000;stroke-width:0.80000001;stroke-miterlimit:4;stroke-dasharray:none;stroke-opacity:1"
     id="rect4213"
     width="45"
     height="45"
     x="360.10468"
     y="0.089014567" /><rect
     y="0.089014567"
     x="315.1167"
     height="45"
     width="45"
     id="rect4215"
     style="fill:none;fill-opacity:1;stroke:#000000;stroke-width:0.80000001;stroke-miterlimit:4;stroke-dasharray:none;stroke-opacity:1" /><rect
     style="fill:none;fill-opacity:1;stroke:#000000;stroke-width:0.80000001;stroke-miterlimit:4;stroke-dasharray:none;stroke-opacity:1"
     id="rect4217"
     width="45"
     height="45"
     x="270.12878"
     y="0.089014567" /><rect
     y="0.089014567"
     x="225.14085"
     height="45"
     width="45"
     id="rect4219"
     style="fill:none;fill-opacity:1;stroke:#000000;stroke-width:0.80000001;stroke-miterlimit:4;stroke-dasharray:none;stroke-opacity:1" /><rect
     style="fill:none;fill-opacity:1;stroke:#000000;stroke-width:0.80000001;stroke-miterlimit:4;stroke-dasharray:none;stroke-opacity:1"
     id="rect4221"
     width="45"
     height="45"
     x="180.15289"
     y="0.089014567" /><rect
     y="0.05957792"
     x="135.16496"
     height="45"
     width="45"
     id="rect4223"
     style="fill:none;fill-opacity:1;stroke:#000000;stroke-width:0.80000001;stroke-miterlimit:4;stroke-dasharray:none;stroke-opacity:1" /><rect
     style="fill:none;fill-opacity:1;stroke:#000000;stroke-width:0.80000001;stroke-miterlimit:4;stroke-dasharray:none;stroke-opacity:1"
     id="rect4225"
     width="45"
     height="45"
     x="630.03229"
     y="0.089014567" /><rect
     style="fill:none;fill-opacity:1;stroke:#000000;stroke-width:0.80000001;stroke-miterlimit:4;stroke-dasharray:none;stroke-opacity:1"
     id="rect4236"
     width="45"
     height="45"
     x="90.177032"
     y="0.089014567" /><rect
     y="0.089014567"
     x="45.189095"
     height="45"
     width="45"
     id="rect4238"
     style="fill:none;fill-opacity:1;stroke:#000000;stroke-width:0.80000001;stroke-miterlimit:4;stroke-dasharray:none;stroke-opacity:1" /><path
     transform="matrix(0.01534715,0,0,0.0097661,555.95159,32.606069)"
     style="fill:#ff6600;fill-opacity:1;stroke:#1a1a1a;stroke-width:43.90217209;stroke-miterlimit:4;stroke-dasharray:none;stroke-opacity:1;filter:url(#filter4238)"
     d="M 55.935027,221.07013 -65.905573,325.06671 465.91203,1170.3139 954.66491,334.97857 798.02338,255.9322 C 518.79118,354.55972 342.52633,366.73309 55.935027,221.07013 Z"
     id="path4240"
     inkscape:connector-curvature="0"
     sodipodi:nodetypes="cccccc" /><path
     sodipodi:nodetypes="cccccc"
     inkscape:connector-curvature="0"
     id="path4242"
     d="M 55.935027,221.07013 -65.905573,325.06671 465.91203,1170.3139 954.66491,334.97857 798.02338,255.9322 C 518.79118,354.55972 342.52633,366.73309 55.935027,221.07013 Z"
     style="fill:#ff6600;fill-opacity:1;stroke:#1a1a1a;stroke-width:43.90217209;stroke-miterlimit:4;stroke-dasharray:none;stroke-opacity:1;filter:url(#filter4238)"
     transform="matrix(0.01534715,0,0,0.0097661,510.88803,32.606069)" /><path
     transform="matrix(0.01534715,0,0,0.0097661,465.8244,32.606069)"
     style="fill:#ff6600;fill-opacity:1;stroke:#1a1a1a;stroke-width:43.90217209;stroke-miterlimit:4;stroke-dasharray:none;stroke-opacity:1;filter:url(#filter4238)"
     d="M 55.935027,221.07013 -65.905573,325.06671 465.91203,1170.3139 954.66491,334.97857 798.02338,255.9322 C 518.79118,354.55972 342.52633,366.73309 55.935027,221.07013 Z"
     id="path4244"
     inkscape:connector-curvature="0"
     sodipodi:nodetypes="cccccc" /><path
     sodipodi:nodetypes="cccccc"
     inkscape:connector-curvature="0"
     id="path4246"
     d="M 55.935027,221.07013 -65.905573,325.06671 465.91203,1170.3139 954.66491,334.97857 798.02338,255.9322 C 518.79118,354.55972 342.52633,366.73309 55.935027,221.07013 Z"
     style="fill:#ff6600;fill-opacity:1;stroke:#1a1a1a;stroke-width:43.90217209;stroke-miterlimit:4;stroke-dasharray:none;stroke-opacity:1;filter:url(#filter4238)"
     transform="matrix(0.01534715,0,0,0.0097661,420.76084,32.606069)" /><path
     transform="matrix(0.01534715,0,0,0.0097661,375.69728,32.606069)"
     style="fill:#ff6600;fill-opacity:1;stroke:#1a1a1a;stroke-width:43.90217209;stroke-miterlimit:4;stroke-dasharray:none;stroke-opacity:1;filter:url(#filter4238)"
     d="m 12.008407,-220.71829 c -152.870447,58.35462 -305.740897,-10.2911 -458.611347,-70.878 L 465.91203,1170.3139 1054.2319,477.63941 730.66923,591.87548 C 313.19838,764.77012 110.89096,261.16443 12.008407,-220.71829 Z"
     id="path4248"
     inkscape:connector-curvature="0"
     sodipodi:nodetypes="cccccc" /><path
     sodipodi:nodetypes="cccccc"
     inkscape:connector-curvature="0"
     id="path4250"
     d="M 55.935027,221.07013 -65.905573,325.06671 465.91203,1170.3139 954.66491,334.97857 798.02338,255.9322 C 518.79118,354.55972 342.52633,366.73309 55.935027,221.07013 Z"
     style="fill:#ff6600;fill-opacity:1;stroke:#1a1a1a;stroke-width:43.90217209;stroke-miterlimit:4;stroke-dasharray:none;stroke-opacity:1;filter:url(#filter4238)"
     transform="matrix(0.01534715,0,0,0.0097661,330.63371,32.606069)" /><path
     transform="matrix(0.01534715,0,0,0.0097661,285.57015,32.606069)"
     style="fill:#ff6600;fill-opacity:1;stroke:#1a1a1a;stroke-width:43.90217209;stroke-miterlimit:4;stroke-dasharray:none;stroke-opacity:1;filter:url(#filter4238)"
     d="M 55.935027,221.07013 -65.905573,325.06671 465.91203,1170.3139 954.66491,334.97857 798.02338,255.9322 C 518.79118,354.55972 342.52633,366.73309 55.935027,221.07013 Z"
     id="path4252"
     inkscape:connector-curvature="0"
     sodipodi:nodetypes="cccccc" /><path
     sodipodi:nodetypes="cccccc"
     inkscape:connector-curvature="0"
     id="path4254"
     d="M 55.935027,221.07013 -65.905573,325.06671 465.91203,1170.3139 954.66491,334.97857 798.02338,255.9322 C 518.79118,354.55972 342.52633,366.73309 55.935027,221.07013 Z"
     style="fill:#ff6600;fill-opacity:1;stroke:#1a1a1a;stroke-width:43.90217209;stroke-miterlimit:4;stroke-dasharray:none;stroke-opacity:1;filter:url(#filter4238)"
     transform="matrix(0.01534715,0,0,0.0097661,240.50655,32.606069)" /><path
     transform="matrix(0.01534715,0,0,0.0097661,195.44299,32.606069)"
     style="fill:#ff6600;fill-opacity:1;stroke:#1a1a1a;stroke-width:43.90217209;stroke-miterlimit:4;stroke-dasharray:none;stroke-opacity:1;filter:url(#filter4238)"
     d="M 55.935027,221.07013 -65.905573,325.06671 465.91203,1170.3139 954.66491,334.97857 798.02338,255.9322 C 518.79118,354.55972 342.52633,366.73309 55.935027,221.07013 Z"
     id="path4256"
     inkscape:connector-curvature="0"
     sodipodi:nodetypes="cccccc" /><path
     sodipodi:nodetypes="cccccc"
     inkscape:connector-curvature="0"
     id="path4258"
     d="M 55.935027,221.07013 -65.905573,325.06671 465.91203,1170.3139 954.66491,334.97857 798.02338,255.9322 C 518.79118,354.55972 342.52633,366.73309 55.935027,221.07013 Z"
     style="fill:#ff6600;fill-opacity:1;stroke:#1a1a1a;stroke-width:43.90217209;stroke-miterlimit:4;stroke-dasharray:none;stroke-opacity:1;filter:url(#filter4238)"
     transform="matrix(0.01534715,0,0,0.0097661,150.37943,32.606069)" /><path
     transform="matrix(0.01534715,0,0,0.0097661,105.31585,32.606069)"
     style="fill:#ff6600;fill-opacity:1;stroke:#1a1a1a;stroke-width:43.90217209;stroke-miterlimit:4;stroke-dasharray:none;stroke-opacity:1;filter:url(#filter4238)"
     d="M 55.935027,221.07013 -65.905573,325.06671 465.91203,1170.3139 954.66491,334.97857 798.02338,255.9322 C 518.79118,354.55972 342.52633,366.73309 55.935027,221.07013 Z"
     id="path4260"
     inkscape:connector-curvature="0"
     sodipodi:nodetypes="cccccc" /><path
     sodipodi:nodetypes="cccccc"
     inkscape:connector-curvature="0"
     id="path4262"
     d="M 55.935027,221.07013 -65.905573,325.06671 465.91203,1170.3139 954.66491,334.97857 798.02338,255.9322 C 518.79118,354.55972 342.52633,366.73309 55.935027,221.07013 Z"
     style="fill:#ff6600;fill-opacity:1;stroke:#1a1a1a;stroke-width:43.90217209;stroke-miterlimit:4;stroke-dasharray:none;stroke-opacity:1;filter:url(#filter4238)"
     transform="matrix(0.01534715,0,0,0.0097661,60.252275,32.606069)" /><path
     transform="matrix(0.01534715,0,0,0.0097661,15.188704,32.606069)"
     style="fill:#ff6600;fill-opacity:1;stroke:#1a1a1a;stroke-width:43.90217209;stroke-miterlimit:4;stroke-dasharray:none;stroke-opacity:1;filter:url(#filter4238)"
     d="M -51.846037,250.08811 -65.905573,325.06671 465.91203,1170.3139 1014.7736,283.16075 905.80444,326.40443 C 805.99156,347.28912 694.48538,286.97829 636.84543,248.5057 524.59402,173.58192 404.08624,179.71094 304.89592,249.67725 203.45808,321.22892 66.733126,373.18449 -51.846037,250.08811 Z"
     id="path4264"
     inkscape:connector-curvature="0"
     sodipodi:nodetypes="cccccssc" /><path
     sodipodi:nodetypes="cccccc"
     inkscape:connector-curvature="0"
     id="path4266"
     d="M 55.935027,221.07013 -65.905573,325.06671 465.91203,1170.3139 954.66491,334.97857 798.02338,255.9322 C 518.79118,354.55972 342.52633,366.73309 55.935027,221.07013 Z"
     style="fill:#ff6600;fill-opacity:1;stroke:#1a1a1a;stroke-width:43.90217209;stroke-miterlimit:4;stroke-dasharray:none;stroke-opacity:1;filter:url(#filter4238)"
     transform="matrix(0.01534715,0,0,0.0097661,646.07873,32.77783)" /><path
     sodipodi:nodetypes="cccccccssscscscccccccsccccccsccccccsccccccsccccccscscscccscccccsscccscss"
     inkscape:connector-curvature="0"
     id="rect4783-8-1"
     style="fill:#000000"
     d="m 626.13253,14.237675 c 0.303,-0.22675 0.64746,-0.74333 0.53566,-1.10488 -1.55956,-5.21051 -6.24398,-9.2113904 -12.24639,-10.8353904 -3.45305,-0.59518 -7.8874,-0.60309 -10.40559,-0.26271 -6.51044,1.41236 -11.84213,5.5865004 -13.49181,11.0982604 -0.16535,0.55007 0.31212,1.19124 0.88648,1.19044 l 24.81953,-0.0459 m -22.80586,2.45228 c -1.00808,0 -1.84899,1.05747 -1.84899,2.31755 0,1.26016 0.84091,2.30501 1.84899,2.30501 l 31.20698,0 c 1.36956,0 1.87246,-1.28619 1.87246,-2.46478 0,-1.09407 -0.74866,-2.15778 -1.85722,-2.15778 z m 2.97618,5.83832 c -2.51481,0 -4.52202,1.53314 -4.69851,3.40672 l -0.0379,0.2913 0.45592,0 1.82368,0 0.37993,0 0.0506,-0.24064 c 0.13357,-0.85009 0.98716,-1.46908 2.02629,-1.46908 1.03912,0 1.91694,0.61993 2.05161,1.46908 l 0.0633,0.24064 0.3546,0 3.21674,0 0.36726,0 0.0253,-0.24064 c 0.13353,-0.85009 0.99979,-1.46908 2.03899,-1.46908 1.03927,0 1.91709,0.61993 2.0516,1.46908 l 0.0633,0.24064 0.35461,0 3.20411,0 0.37993,0 0.0379,-0.24064 c 0.13358,-0.85009 0.99964,-1.46908 2.03898,-1.46908 1.03905,0 1.91702,0.61993 2.05161,1.46908 l 0.0506,0.24064 0.35461,0 3.21673,0 0.37993,0 0.0253,-0.24064 c 0.13349,-0.85009 0.99964,-1.46908 2.03898,-1.46908 1.03905,0 1.92965,0.61993 2.06431,1.46908 l 0.0506,0.24064 0.3546,0 1.849,0 0.44325,0 -0.0253,-0.2913 c -0.17747,-1.87416 -2.22179,-3.40672 -4.73653,-3.40672 -1.77282,0 -3.2361,0.7833 -4.03996,1.887 -0.80708,-1.10516 -2.30368,-1.887 -4.07797,-1.887 -1.77788,0 -3.2386,0.80356 -4.03996,1.91232 -0.80458,-1.11052 -2.29825,-1.91232 -4.07797,-1.91232 -1.77245,0 -3.24858,0.78352 -4.05258,1.887 -0.80701,-1.10539 -2.30339,-1.887 -4.07797,-1.887 z m -4.03996,4.92644 c -0.51959,0 -0.92391,0.15116 -1.30441,0.44327 -0.19027,0.14606 -0.38645,0.33394 -0.50658,0.68384 -0.11999,0.35011 -0.008,0.88957 0.25329,1.17782 l 1.74772,1.93764 c 0.0474,0.0525 0.13299,0.22071 0.34195,0.48121 0.20883,0.26075 0.70886,0.60789 1.22845,0.60789 l 28.96336,0 c 0.51959,0 1.03222,-0.34714 1.24107,-0.60789 0.20884,-0.26059 0.2817,-0.42869 0.32928,-0.48121 l 1.74772,-1.93764 c 0.26059,-0.28831 0.36067,-0.82785 0.24063,-1.17782 -0.12,-0.34986 -0.31623,-0.53778 -0.50658,-0.68384 -0.38045,-0.29215 -0.77237,-0.44327 -1.29179,-0.44327 z" /><g
     id="g4223"
     transform="translate(0.24999999,-1.125)"><path
       inkscape:connector-curvature="0"
       style="fill:#000000;fill-rule:evenodd"
       sodipodi:nodetypes="ccccccc"
       d="m 551.6877,13.822729 c 0.18037,4.018604 1.3204,14.562105 3.95115,17.116836 l 6.72632,0 6.72632,0 c 2.63081,-2.555689 3.77079,-13.098642 3.95114,-17.116836 l -10.67746,0 z"
       id="path121" /><path
       inkscape:connector-curvature="0"
       style="fill:#000000;fill-rule:evenodd"
       sodipodi:nodetypes="ccccccc"
       d="m 546.29759,32.026044 c 0.81708,1.876024 3.5925,3.219755 5.22536,3.557741 l 10.84208,0 10.83783,0 c 1.63301,-0.336946 4.4127,-1.681033 5.22975,-3.557741 l -16.06731,0 z"
       id="path123" /><path
       inkscape:connector-curvature="0"
       style="color:#000000;text-indent:0;text-transform:none;block-progression:tb;fill:#000000"
       d="m 571.89416,13.822729 c -3.62752,0 -6.59769,2.970165 -6.59769,6.597692 0,3.627527 2.97017,6.597693 6.59769,6.597693 3.62753,0 6.5977,-2.970166 6.5977,-6.597693 0,-3.627527 -2.97017,-6.597692 -6.5977,-6.597692 z m 0,2.73686 c 2.14847,0 3.86084,1.712368 3.86084,3.860832 0,2.148465 -1.71237,3.860833 -3.86084,3.860833 -2.14846,0 -3.86083,-1.712368 -3.86083,-3.860833 0,-2.148464 1.71237,-3.860832 3.86083,-3.860832 z"
       id="path3102" /><path
       id="path7593"
       style="fill:none;stroke:#000000;stroke-width:1.0812794;stroke-linecap:round"
       sodipodi:nodetypes="cc"
       inkscape:connector-curvature="0"
       d="m 558.12088,2.5220602 c 4.12427,4.3026811 -3.80989,4.5846247 0,8.9854318" /><path
       id="path7595"
       d="m 562.72172,2.5220602 c 4.12427,4.3026811 -3.80989,4.5846247 0,8.9854318"
       sodipodi:nodetypes="cc"
       style="fill:none;stroke:#000000;stroke-width:1.0812794;stroke-linecap:round"
       inkscape:connector-curvature="0" /><path
       id="path7597"
       style="fill:none;stroke:#000000;stroke-width:1.0812794;stroke-linecap:round"
       sodipodi:nodetypes="cc"
       inkscape:connector-curvature="0"
       d="m 567.32256,2.5220602 c 4.12427,4.3026811 -3.80988,4.5846247 0,8.9854318" /></g><ellipse
     style="fill:#000000;fill-opacity:1;stroke:none;stroke-width:0.80000001;stroke-miterlimit:4;stroke-dasharray:none;stroke-opacity:1"
     id="path4231"
     cx="652.21765"
     cy="7.8768945"
     rx="12.197592"
     ry="3.9774756" /><path
     style="fill:#000000;fill-rule:evenodd;stroke:none;stroke-width:1px;stroke-linecap:butt;stroke-linejoin:miter;stroke-opacity:1"
     d="m 640.63702,9.1187192 c 7.31249,7.2499998 9.81249,7.8124998 10.12499,10.0624998 0.3125,2.25 0,10.187499 0,11.499999 0,1.3125 -0.5,1.25 -1.5625,1.75 -1.0625,0.5 -6.18749,1.125 -6.18749,1.5625 0,0.4375 8.79245,0 8.79245,0 0,0 8.79244,0.4375 8.79244,0 0,-0.4375 -5.12499,-1.0625 -6.18749,-1.5625 -1.0625,-0.5 -1.5625,-0.4375 -1.5625,-1.75 0,-1.3125 -0.3125,-9.249999 0,-11.499999 0.3125,-2.25 2.8125,-2.8125 10.12499,-10.0624999"
     id="path4239"
     inkscape:connector-curvature="0"
     sodipodi:nodetypes="csssscssssc" /><ellipse
     style="fill:#ffffff;fill-opacity:1;stroke:none;stroke-width:0.80000001;stroke-miterlimit:4;stroke-dasharray:none;stroke-opacity:1"
     id="path4243"
     cx="651.82812"
     cy="7.734376"
     rx="9.765625"
     ry="2.328125" /><circle
     style="fill:#000000;fill-opacity:1;stroke:none;stroke-width:0.80000001;stroke-miterlimit:4;stroke-dasharray:none;stroke-opacity:1"
     id="path4235"
     cx="664.2605"
     cy="6.2638078"
     r="4.6845822" /><path
     style="fill:#ffffff;fill-rule:evenodd;stroke:none;stroke-width:1px;stroke-linecap:butt;stroke-linejoin:miter;stroke-opacity:1"
     d="m 661.96242,3.6342543 c -0.68501,0.9943688 -0.83969,1.4584077 -0.39775,1.5026018 0.44194,0.044194 2.43068,0.7292039 2.2539,0.3093592 -0.17677,-0.4198446 -1.65728,-2.1213203 -1.85615,-1.811961 z"
     id="path4245"
     inkscape:connector-curvature="0" /><path
     inkscape:connector-curvature="0"
     id="path4247"
     d="m 664.95699,2.8063115 c -1.20285,-0.1055524 -1.68282,-0.011276 -1.50333,0.3949819 0.1795,0.4062583 0.56431,2.4741637 0.84238,2.1133315 0.27806,-0.360827 1.02815,-2.487868 0.66094,-2.5083156 z"
     style="fill:#ffffff;fill-rule:evenodd;stroke:none;stroke-width:1px;stroke-linecap:butt;stroke-linejoin:miter;stroke-opacity:1" /><path
     style="fill:#ffffff;fill-rule:evenodd;stroke:none;stroke-width:1px;stroke-linecap:butt;stroke-linejoin:miter;stroke-opacity:1"
     d="m 667.31806,5.2447282 c -0.54784,-1.0760367 -0.88212,-1.4331324 -1.13155,-1.065645 -0.24943,0.3674961 -1.79926,1.7895779 -1.34591,1.8342057 0.45335,0.044622 2.65469,-0.4463141 2.47746,-0.7685704 z"
     id="path4249"
     inkscape:connector-curvature="0" /><path
     inkscape:connector-curvature="0"
     id="path4251"
     d="m 666.22797,8.5361031 c 0.84102,-0.8664112 1.0708,-1.2982182 0.6424,-1.4153885 -0.42842,-0.1171675 -2.27532,-1.1237668 -2.17093,-0.6803487 0.1044,0.4434162 1.28092,2.3676639 1.52853,2.095734 z"
     style="fill:#ffffff;fill-rule:evenodd;stroke:none;stroke-width:1px;stroke-linecap:butt;stroke-linejoin:miter;stroke-opacity:1" /><path
     style="fill:#ffffff;fill-rule:evenodd;stroke:none;stroke-width:1px;stroke-linecap:butt;stroke-linejoin:miter;stroke-opacity:1"
     d="m 663.13899,8.7035493 c 1.17198,0.2905916 1.66076,0.2717852 1.54636,-0.1573635 -0.11439,-0.4291684 -0.17427,-2.5317123 -0.50484,-2.2183198 -0.33059,0.3134053 -1.40108,2.2985966 -1.04148,2.3756742 z"
     id="path4253"
     inkscape:connector-curvature="0" /><path
     inkscape:connector-curvature="0"
     id="path4255"
     d="m 661.18852,6.6400557 c 0.53649,1.0817409 0.867,1.4423278 1.12027,1.0774894 0.2533,-0.3648436 1.818,-1.7705408 1.36517,-1.8199209 -0.45285,-0.049387 -2.65923,0.4183614 -2.48541,0.7424561 z"
     style="fill:#ffffff;fill-rule:evenodd;stroke:none;stroke-width:1px;stroke-linecap:butt;stroke-linejoin:miter;stroke-opacity:1" /><path
     inkscape:connector-curvature="0"
     id="path4257"
     d="m 653.65814,14.714565 c 0.75945,0.938734 0.54191,0.290508 0.70955,-0.120783 0.16763,-0.411299 4.61436,-3.803728 4.16163,-3.753192 -0.45272,0.05054 -5.11149,3.595582 -4.87118,3.873975 z"
     style="fill:#ffffff;fill-rule:evenodd;stroke:none;stroke-width:1px;stroke-linecap:butt;stroke-linejoin:miter;stroke-opacity:1"
     sodipodi:nodetypes="cccc" /><path
     inkscape:connector-curvature="0"
     d="m 533.86194,14.018826 c -2.07357,4.042395 -7.62082,9.540052 -10.75777,12.468541 -0.33726,0.308661 -0.85017,0.308661 -1.18742,0 -3.15467,-2.928489 -8.70191,-8.426146 -10.77549,-12.468541 -4.55476,-8.8932718 6.92964,-14.82211804 11.36035,-5.9288459 4.4307,-8.89327214 15.9151,-2.9644259 11.36033,5.9288459 z"
     id="path4259"
     style="stroke:#ffffff" /><path
     id="path4183"
     d="m 524.60908,20.220482 c -2.07357,4.042395 -7.62081,9.540052 -10.75776,12.468541 -0.33726,0.308661 -0.85017,0.308661 -1.18742,0 -3.15468,-2.928489 -8.70192,-8.426146 -10.77549,-12.468541 -4.55476,-8.893273 6.92963,-14.8221186 11.36034,-5.928845 4.43071,-8.8932736 15.91511,-2.964428 11.36033,5.928845 z"
     inkscape:connector-curvature="0"
     style="stroke:#ffffff" /></svg>