<?xml version="1.0" encoding="UTF-8" standalone="no"?>
<!-- Created with Inkscape (http://www.inkscape.org/) -->

<svg
   xmlns:dc="http://purl.org/dc/elements/1.1/"
   xmlns:cc="http://creativecommons.org/ns#"
   xmlns:rdf="http://www.w3.org/1999/02/22-rdf-syntax-ns#"
   xmlns:svg="http://www.w3.org/2000/svg"
   xmlns="http://www.w3.org/2000/svg"
   xmlns:sodipodi="http://sodipodi.sourceforge.net/DTD/sodipodi-0.dtd"
   xmlns:inkscape="http://www.inkscape.org/namespaces/inkscape"
   id="svg2"
   version="1.1"
   inkscape:version="0.91 r13725"
   xml:space="preserve"
   width="257.5"
   height="159.5975"
   viewBox="0 0 257.5 159.5975"
   sodipodi:docname="logo_maxmap.svg"><metadata
     id="metadata8"><rdf:RDF><cc:Work
         rdf:about=""><dc:format>image/svg+xml</dc:format><dc:type
           rdf:resource="http://purl.org/dc/dcmitype/StillImage" /><dc:title></dc:title></cc:Work></rdf:RDF></metadata><defs
     id="defs6"><clipPath
       clipPathUnits="userSpaceOnUse"
       id="clipPath16"><path
         d="m 0,127.678 206,0 L 206,0 0,0 0,127.678 Z"
         id="path18"
         inkscape:connector-curvature="0" /></clipPath></defs><sodipodi:namedview
     pagecolor="#ffffff"
     bordercolor="#666666"
     borderopacity="1"
     objecttolerance="10"
     gridtolerance="10"
     guidetolerance="10"
     inkscape:pageopacity="0"
     inkscape:pageshadow="2"
     inkscape:window-width="1865"
     inkscape:window-height="1056"
     id="namedview4"
     showgrid="false"
     inkscape:zoom="1.4787199"
     inkscape:cx="128.75"
     inkscape:cy="79.798752"
     inkscape:window-x="55"
     inkscape:window-y="24"
     inkscape:window-maximized="1"
     inkscape:current-layer="g10" /><g
     id="g10"
     inkscape:groupmode="layer"
     inkscape:label="logo_maxmap"
     transform="matrix(1.25,0,0,-1.25,0,159.5975)"><g
       id="g12"><g
         id="g14"
         clip-path="url(#clipPath16)"><g
           id="g20"
           transform="translate(111.3976,89.8729)"><path
             d="m 0,0 c 0.361,0.277 0.576,0.57 0.778,0.882 0.219,0.34 0.407,0.685 0.485,1.091 0.139,0.724 0.728,1.235 0.935,1.948 0.103,0.354 0.221,0.696 0.274,1.067 0.078,0.555 0.112,1.114 0.29,1.66 0.12,0.365 0.444,0.651 0.404,1.074 -0.017,0.174 -0.017,0.353 -0.003,0.528 0.046,0.552 0.05,1.116 0.175,1.651 0.072,0.307 0.011,0.581 0.027,0.867 0.017,0.321 -0.011,0.642 0.015,0.962 0.028,0.352 0.045,0.706 0.036,1.058 -0.005,0.213 -0.032,0.439 -0.11,0.635 -0.188,0.471 -0.327,0.951 -0.275,1.456 0.016,0.16 0.033,0.282 -0.056,0.419 -0.085,0.128 -0.151,0.269 -0.219,0.407 -0.442,0.897 -1.109,1.601 -2.036,1.942 -0.479,0.177 -0.817,0.494 -1.186,0.714 -0.201,-0.015 -0.369,-0.029 -0.537,-0.04 -0.28,-0.02 -0.56,-0.045 -0.84,-0.052 -0.107,-0.003 -0.237,0.006 -0.319,0.063 -0.305,0.214 -0.52,0.077 -0.8,-0.089 -0.308,-0.182 -0.681,-0.382 -1.047,-0.269 -0.18,0.055 -0.293,0.018 -0.426,-0.028 -0.16,-0.056 -0.312,-0.14 -0.462,-0.222 -0.314,-0.172 -0.728,-0.222 -0.824,-0.67 -0.009,-0.042 -0.096,-0.082 -0.154,-0.095 -0.448,-0.104 -0.679,-0.479 -0.959,-0.782 -0.178,-0.193 -0.252,-0.494 -0.449,-0.652 -0.271,-0.217 -0.372,-0.541 -0.372,-0.788 -0.002,-0.451 0.077,-0.88 -0.161,-1.314 -0.142,-0.26 -0.167,-0.584 -0.265,-0.956 0.021,-0.065 0.074,-0.231 0.131,-0.409 -0.137,-0.023 -0.214,-0.036 -0.304,-0.051 0.064,-0.096 0.122,-0.186 0.171,-0.261 C -8.159,11.622 -8.268,11.523 -8.279,11.414 -8.352,10.687 -8.405,9.959 -8.462,9.231 -8.476,9.056 -8.321,8.908 -8.452,8.695 -8.548,8.539 -8.504,8.29 -8.502,8.082 -8.5,7.894 -8.661,7.784 -8.654,7.553 -8.643,7.188 -8.579,6.83 -8.564,6.467 -8.53,5.599 -8.461,4.731 -8.478,3.864 -8.49,3.226 -8.356,2.621 -8.245,2.006 -8.072,1.051 -8.074,1.05 -7.598,0.38 c 0.093,-0.131 0.206,-0.195 0.307,-0.114 -0.158,0.627 -0.367,1.217 -0.446,1.823 -0.111,0.84 0.148,1.662 0.274,2.488 0.008,0.055 0.073,0.099 0.1,0.154 0.072,0.152 0.135,0.308 0.207,0.46 0.059,0.125 0.099,0.272 0.192,0.365 0.343,0.342 0.688,0.686 1.064,0.991 0.499,0.405 1.094,0.638 1.823,0.705 0.533,0.05 1.078,0.079 1.608,0.026 C -1.886,7.22 -1.331,7.038 -0.818,6.706 -0.604,6.568 -0.389,6.441 -0.244,6.243 0.104,5.77 0.379,5.266 0.58,4.698 0.848,3.944 0.851,3.192 0.706,2.451 0.551,1.656 0.262,0.886 0,0 m -32.415,14.942 c 0.202,-0.073 0.41,-0.133 0.606,-0.221 0.482,-0.214 0.963,-0.431 1.435,-0.668 0.297,-0.149 0.593,-0.254 0.928,-0.309 0.347,-0.057 0.679,-0.221 1.008,-0.36 0.338,-0.143 0.657,-0.333 0.999,-0.464 1.244,-0.478 2.596,-0.635 3.793,-1.264 0.103,-0.054 0.308,-0.145 0.354,0.073 0.089,0.424 0.629,0.628 0.533,1.133 0.374,1.177 0.88,2.294 1.552,3.332 0.165,0.253 0.367,0.488 0.583,0.699 0.182,0.177 0.438,0.281 0.611,0.464 0.269,0.284 0.56,0.511 0.935,0.637 0.128,0.043 0.243,0.142 0.348,0.234 0.253,0.22 0.464,0.556 0.755,0.65 0.314,0.101 0.598,0.265 0.891,0.354 0.439,0.133 0.938,0.08 1.412,0.076 0.249,-0.002 0.497,-0.069 0.746,-0.106 0.56,-0.084 1.132,-0.121 1.677,-0.264 0.756,-0.199 1.398,-0.6 1.972,-1.163 0.304,-0.299 0.337,-0.819 0.819,-0.953 0.033,-0.009 0.018,-0.15 0.05,-0.218 0.15,-0.328 0.308,-0.651 0.485,-1.021 -0.172,-0.269 -0.043,-0.566 0.216,-0.799 0.231,-0.208 0.14,-0.492 0.245,-0.724 -0.341,-0.146 -0.062,-0.317 -0.024,-0.484 0.038,-0.165 0.051,-0.335 0.08,-0.532 0.146,-0.089 0.226,0.032 0.278,0.174 0.097,0.264 0.188,0.529 0.268,0.798 0.115,0.387 0.189,0.789 0.335,1.164 0.191,0.495 0.491,0.931 0.845,1.33 0.413,0.464 0.797,0.952 1.218,1.408 0.332,0.36 0.729,0.625 1.223,0.746 0.297,0.073 0.565,0.258 0.86,0.341 0.281,0.08 0.539,0.299 0.867,0.175 0.041,-0.016 0.127,0.028 0.164,0.069 0.253,0.282 0.574,0.299 0.919,0.274 0.153,-0.01 0.309,0.039 0.465,0.056 0.281,0.03 0.563,0.084 0.843,0.076 0.297,-0.009 0.593,-0.077 0.889,-0.121 0.077,-0.012 0.156,-0.026 0.229,-0.053 C 0.316,19.36 0.624,19.174 0.953,19.124 1.572,19.029 2.037,18.65 2.526,18.336 2.914,18.087 3.266,17.758 3.544,17.37 3.664,17.203 3.853,17.098 3.785,16.825 3.757,16.709 3.865,16.507 3.972,16.419 4.352,16.107 4.588,15.755 4.468,15.241 4.465,15.227 4.47,15.207 4.478,15.195 4.603,15.016 4.536,14.89 4.4,14.738 4.229,14.55 4.156,14.33 4.415,14.126 4.82,13.809 4.594,13.167 5.047,12.869 5.062,12.859 5.045,12.807 5.049,12.775 5.08,12.529 5.112,12.284 5.141,12.054 c 0.474,0.005 0.915,-0.002 1.355,0.018 0.28,0.013 0.562,0.049 0.837,0.104 0.433,0.087 0.849,0.248 1.308,0.21 0.155,-0.013 0.331,0.076 0.479,0.153 0.25,0.13 0.483,0.263 0.785,0.284 0.353,0.024 0.725,0.074 1.043,0.217 0.383,0.172 0.706,0.47 1.178,0.382 0.087,-0.017 0.198,0.083 0.297,0.13 0.45,0.218 0.9,0.436 1.35,0.656 0.32,0.156 0.646,0.304 0.957,0.478 0.368,0.204 0.711,0.487 1.155,0.25 0.546,0.433 1.053,0.883 1.709,1.113 0.174,0.061 0.356,0.15 0.487,0.275 0.409,0.39 0.875,0.692 1.353,0.983 0.115,0.07 0.199,0.191 0.305,0.297 -0.29,0.461 -0.526,0.917 -0.836,1.315 -0.639,0.819 -1.317,1.607 -1.979,2.408 -0.475,0.588 -0.916,1.207 -1.434,1.755 -0.524,0.555 -1.098,1.07 -1.694,1.548 -1.027,0.824 -1.941,1.787 -3.059,2.497 -0.252,0.161 -0.521,0.295 -0.782,0.441 -0.547,0.375 -1.063,0.808 -1.646,1.112 -1.393,0.725 -2.818,1.389 -4.23,2.077 -1.194,0.426 -2.369,0.918 -3.586,1.261 -1.268,0.356 -2.568,0.628 -3.87,0.829 -1.367,0.211 -2.751,0.339 -4.133,0.416 -0.937,0.052 -1.882,-0.05 -2.824,-0.078 -0.311,-0.009 -0.623,0.011 -0.934,-0.008 -0.317,-0.019 -0.635,-0.06 -0.95,-0.106 -1.049,-0.154 -2.102,-0.285 -3.143,-0.482 -0.688,-0.13 -1.358,-0.355 -2.035,-0.543 -0.522,-0.145 -1.046,-0.29 -1.562,-0.454 -0.51,-0.162 -1.011,-0.349 -1.516,-0.525 -0.924,-0.383 -1.883,-0.7 -2.765,-1.164 -1.452,-0.764 -2.874,-1.592 -4.273,-2.451 -1.415,-0.87 -2.553,-2.104 -3.886,-3.09 -0.618,-0.458 -1.082,-1.125 -1.615,-1.697 -0.062,-0.048 -0.135,-0.088 -0.185,-0.146 -0.748,-0.867 -1.521,-1.714 -2.229,-2.612 -0.501,-0.635 -0.914,-1.34 -1.401,-2.065 0.285,-0.216 0.516,-0.4 0.757,-0.572 0.189,-0.135 0.364,-0.237 0.469,-0.495 0.108,-0.268 0.365,-0.526 0.622,-0.674 0.627,-0.361 1.288,-0.663 1.943,-0.972 0.193,-0.092 0.414,-0.127 0.622,-0.187 m 54.392,-28.765 c 0.172,0.302 0.384,0.588 0.507,0.909 0.278,0.729 0.514,1.474 0.764,2.213 0.097,0.285 0.189,0.572 0.278,0.86 0.152,0.494 0.301,0.989 0.466,1.535 -0.12,-0.039 -0.164,-0.04 -0.177,-0.06 -0.271,-0.412 -0.536,-0.828 -0.81,-1.238 -0.102,-0.154 -0.222,-0.413 -0.339,-0.416 -0.225,-0.004 -0.329,-0.144 -0.401,-0.264 -0.116,-0.194 -0.247,-0.235 -0.459,-0.253 -0.434,-0.039 -0.589,-0.24 -0.635,-0.665 -0.01,-0.089 -0.094,-0.178 -0.161,-0.251 -0.079,-0.086 -0.193,-0.141 -0.261,-0.233 -0.221,-0.293 -0.427,-0.597 -0.639,-0.897 -0.295,-0.176 -0.624,-0.262 -0.873,-0.556 -0.264,-0.311 -0.571,-0.594 -1.02,-0.735 -0.374,-0.117 -0.675,-0.469 -1.007,-0.718 -0.024,-0.018 -0.051,-0.049 -0.055,-0.076 -0.038,-0.314 -0.27,-0.46 -0.48,-0.656 -0.143,-0.133 -0.297,-0.14 -0.42,-0.221 -0.296,-0.196 -0.707,-0.252 -0.846,-0.682 -0.041,-0.128 -0.314,-0.169 -0.456,-0.282 -0.196,-0.155 -0.345,-0.374 -0.631,-0.387 -0.029,-10e-4 -0.046,-0.097 -0.083,-0.134 -0.264,-0.261 -0.418,-0.637 -0.911,-0.625 -0.248,0.006 -0.54,-0.157 -0.739,-0.329 -0.145,-0.126 -0.281,-0.19 -0.453,-0.243 -0.365,-0.112 -0.787,-0.244 -0.899,-0.624 -0.155,-0.531 -0.713,-0.582 -0.97,-0.965 -0.011,-0.017 -0.062,-0.019 -0.091,-0.011 -0.316,0.085 -0.52,-0.079 -0.724,-0.292 -0.144,-0.151 -0.303,-0.33 -0.568,-0.165 -0.055,0.035 -0.196,-0.049 -0.286,-0.097 -0.061,-0.033 -0.099,-0.14 -0.154,-0.146 -0.374,-0.043 -0.609,-0.276 -0.821,-0.554 -0.034,-0.043 -0.136,-0.096 -0.155,-0.081 -0.263,0.211 -0.355,-0.067 -0.506,-0.169 -0.257,-0.174 -0.512,-0.35 -0.772,-0.52 -0.025,-0.016 -0.083,0.025 -0.117,0.014 -0.223,-0.071 -0.468,-0.035 -0.637,-0.304 -0.105,-0.169 -0.391,-0.226 -0.598,-0.328 -0.277,-0.138 -0.633,-0.207 -0.815,-0.424 -0.199,-0.237 -0.41,-0.361 -0.68,-0.442 -0.073,-0.022 -0.153,-0.039 -0.215,-0.08 -0.322,-0.218 -0.64,-0.443 -0.893,-0.619 -0.209,0.068 -0.415,0.196 -0.479,0.145 -0.371,-0.295 -0.856,-0.037 -1.233,-0.297 -0.197,-0.135 -0.449,-0.241 -0.684,-0.261 -0.523,-0.043 -0.959,-0.233 -1.351,-0.571 -0.076,-0.065 -0.215,-0.06 -0.326,-0.081 -0.118,-0.023 -0.238,-0.036 -0.356,-0.06 -0.106,-0.021 -0.26,-0.109 -0.305,-0.069 -0.199,0.179 -0.357,-0.03 -0.533,-0.027 -0.111,0.003 -0.225,-0.059 -0.335,-0.097 -0.157,-0.054 -0.309,-0.128 -0.47,-0.164 -0.15,-0.034 -0.352,0.027 -0.455,-0.053 -0.273,-0.212 -0.566,-0.172 -0.862,-0.153 -0.415,0.026 -0.839,-0.278 -1.247,0.032 -0.004,0.003 -0.024,-0.022 -0.039,-0.024 -0.487,-0.065 -0.975,-0.136 -1.464,-0.191 -0.157,-0.017 -0.348,-0.045 -0.474,0.022 -0.391,0.209 -0.737,0.09 -1.112,-0.038 -0.346,-0.118 -0.725,-0.173 -1.077,-0.049 -0.279,0.098 -0.513,0.059 -0.776,-0.029 -0.434,-0.146 -0.867,-0.35 -1.338,-0.062 -0.108,0.065 -0.338,0.047 -0.447,-0.027 -0.603,-0.406 -1.216,0.128 -1.814,-0.044 -0.023,-0.007 -0.068,0.016 -0.083,0.039 -0.131,0.193 -0.332,0.161 -0.521,0.167 -0.269,0.009 -0.546,-0.006 -0.758,0.204 -0.239,0.237 -0.511,-0.087 -0.753,0.051 -0.014,0.008 -0.03,0.013 -0.044,0.02 -0.177,0.092 -0.355,0.26 -0.531,0.257 -0.204,-0.004 -0.299,0.226 -0.518,0.157 -0.077,-0.024 -0.206,0.108 -0.308,0.174 -0.339,0.218 -0.639,0.565 -1.116,0.276 -0.059,-0.036 -0.212,0.076 -0.318,0.126 -0.18,0.084 -0.358,0.242 -0.535,0.24 -0.171,-0.001 -0.328,0.02 -0.483,0.066 -0.286,0.085 -0.565,0.259 -0.85,0.266 -0.351,0.01 -0.609,0.131 -0.854,0.348 -0.055,0.049 -0.152,0.112 -0.202,0.093 -0.42,-0.158 -0.657,0.159 -0.942,0.347 -0.247,0.164 -0.471,0.374 -0.737,0.494 -0.152,0.068 -0.238,0.19 -0.359,0.258 -0.156,0.088 -0.369,0.065 -0.547,0.121 -0.097,0.03 -0.174,0.125 -0.259,0.191 -0.067,0.051 -0.132,0.104 -0.2,0.153 -0.095,0.068 -0.191,0.134 -0.287,0.2 -0.099,0.069 -0.199,0.194 -0.298,0.193 -0.3,-0.003 -0.395,0.217 -0.518,0.407 -0.168,0.015 -0.326,0.029 -0.481,0.043 -0.053,0.206 -0.141,0.345 -0.363,0.38 -0.413,0.066 -0.727,0.352 -1.054,0.569 -0.629,0.419 -1.239,0.865 -1.904,1.229 -0.216,0.118 -0.422,0.255 -0.629,0.388 -0.109,0.069 -0.209,0.207 -0.316,0.21 -0.179,0.006 -0.261,0.095 -0.357,0.213 -0.094,0.116 -0.202,0.224 -0.318,0.319 -0.15,0.123 -0.315,0.229 -0.471,0.346 -0.213,0.16 -0.299,0.426 -0.591,0.541 -0.578,0.228 -1.074,0.607 -1.504,1.063 -0.087,0.092 -0.221,0.159 -0.268,0.266 -0.145,0.329 -0.34,0.574 -0.715,0.651 -0.082,0.017 -0.155,0.121 -0.211,0.2 -0.033,0.046 -0.004,0.152 -0.04,0.179 -0.463,0.337 -0.637,0.927 -1.123,1.25 -0.272,0.18 -0.498,0.431 -0.74,0.656 -0.178,0.167 -0.454,0.319 -0.501,0.521 -0.129,0.549 -0.687,0.63 -0.962,1.004 -0.136,0.183 -0.344,0.319 -0.455,0.513 -0.178,0.315 -0.357,0.617 -0.711,0.881 0.09,-0.417 0.118,-0.784 0.248,-1.112 0.53,-1.335 1.025,-2.691 1.66,-3.977 0.676,-1.371 1.41,-2.73 2.275,-3.986 1.013,-1.47 2.098,-2.915 3.328,-4.202 1.376,-1.438 2.897,-2.753 4.457,-3.994 1.143,-0.909 2.421,-1.662 3.695,-2.388 1.103,-0.629 2.283,-1.12 3.43,-1.673 0.096,-0.056 0.187,-0.13 0.291,-0.167 1.156,-0.409 2.297,-0.872 3.475,-1.201 1.255,-0.35 2.536,-0.634 3.823,-0.832 1.415,-0.217 2.849,-0.347 4.279,-0.429 0.937,-0.053 1.883,0.051 2.826,0.077 0.279,0.007 0.561,-0.032 0.84,-0.014 0.349,0.023 0.697,0.077 1.044,0.128 1.05,0.155 2.102,0.296 3.146,0.48 0.533,0.094 1.052,0.268 1.577,0.407 0.769,0.203 1.558,0.349 2.301,0.623 1.094,0.403 2.155,0.896 3.229,1.353 0.35,0.149 0.697,0.302 1.046,0.454 1.378,0.799 2.78,1.563 4.127,2.412 0.755,0.477 1.427,1.087 2.124,1.652 0.697,0.566 1.392,1.135 2.06,1.734 0.393,0.351 0.746,0.751 1.094,1.149 0.861,0.983 1.758,1.942 2.548,2.98 0.753,0.988 1.449,2.031 2.059,3.112 0.627,1.112 1.12,2.299 1.672,3.453 m -60.231,8.836 c 0.266,-0.301 0.501,-0.641 0.808,-0.893 0.3,-0.245 0.569,-0.515 0.85,-0.776 0.13,-0.121 0.135,-0.366 0.425,-0.381 0.164,-0.008 0.293,-0.358 0.477,-0.407 0.49,-0.131 0.695,-0.592 1.086,-0.838 0.41,-0.258 0.735,-0.647 1.115,-0.956 0.139,-0.113 0.371,-0.122 0.488,-0.247 0.244,-0.259 0.558,-0.38 0.852,-0.545 0.285,-0.161 0.627,-0.286 0.823,-0.526 0.243,-0.3 0.55,-0.319 0.858,-0.399 0.03,-0.063 0.041,-0.156 0.091,-0.185 0.276,-0.165 0.563,-0.313 0.844,-0.47 0.269,-0.151 0.526,-0.328 0.805,-0.455 0.297,-0.134 0.618,-0.216 0.922,-0.335 0.373,-0.146 0.728,-0.351 1.111,-0.452 0.499,-0.131 0.912,-0.494 1.448,-0.514 0.051,-0.002 0.115,-0.064 0.145,-0.114 0.232,-0.38 0.702,-0.329 1.03,-0.559 0.2,-0.14 0.569,-0.096 0.845,-0.228 0.091,-0.044 0.262,0.035 0.322,-0.022 0.184,-0.173 0.411,-0.169 0.626,-0.217 0.262,-0.059 0.534,-0.087 0.786,-0.173 0.364,-0.124 0.704,-0.332 1.073,-0.426 0.573,-0.144 1.078,-0.495 1.681,-0.529 0.163,-0.009 0.329,0.016 0.491,0 0.25,-0.024 0.499,-0.065 0.748,-0.106 0.252,-0.041 0.499,-0.063 0.758,-0.067 0.509,-0.007 0.992,-0.302 1.527,-0.232 0.012,0.001 0.025,-0.023 0.039,-0.026 0.583,-0.113 1.161,-0.251 1.753,-0.323 0.685,-0.084 1.362,0.005 2.03,0.103 0.396,0.058 0.775,-0.024 1.143,-0.06 0.308,-0.03 0.716,0.233 0.96,-0.177 0.236,0.011 0.474,0.041 0.709,0.031 0.592,-0.026 1.118,0.292 1.703,0.305 0.507,0.011 0.974,0.287 1.51,0.199 0.333,-0.055 0.7,0.086 1.03,0.022 0.281,-0.055 0.537,0.114 0.744,0.058 0.412,-0.11 0.761,0.092 1.142,0.103 0.45,0.014 0.862,0.329 1.343,0.23 0.041,-0.009 0.091,0.021 0.134,0.038 0.31,0.127 0.619,0.258 0.931,0.382 0.071,0.028 0.154,0.027 0.23,0.047 0.711,0.181 1.447,0.276 2.123,0.587 0.053,0.024 0.115,0.044 0.172,0.043 0.144,-0.003 0.876,0.106 0.958,0.173 0.294,0.24 0.749,0.174 0.988,0.521 0.018,0.026 0.09,0.017 0.137,0.021 0.211,0.021 0.391,0.091 0.554,0.244 0.132,0.124 0.311,0.274 0.472,0.278 0.412,0.01 0.724,0.264 1.09,0.378 0.5,0.155 0.986,0.372 1.45,0.614 0.322,0.168 0.746,0.165 0.956,0.533 0.308,0.184 0.671,0.221 0.982,0.429 0.49,0.329 1.102,0.403 1.598,0.777 0.598,0.451 1.282,0.786 1.926,1.176 0.362,0.219 0.8,0.306 1.098,0.635 0.025,0.028 0.072,0.068 0.096,0.061 0.293,-0.083 0.447,0.173 0.629,0.296 0.242,0.162 0.446,0.36 0.731,0.481 0.312,0.134 0.582,0.376 0.852,0.594 0.361,0.292 0.723,0.588 1.049,0.918 0.3,0.303 0.671,0.485 1.013,0.719 0.573,0.395 1.119,0.83 1.664,1.265 0.165,0.131 0.285,0.32 0.431,0.477 0.082,0.089 0.17,0.175 0.266,0.249 0.098,0.078 0.26,0.116 0.306,0.213 0.215,0.461 0.728,0.579 1.035,0.933 0.115,0.131 0.343,0.159 0.473,0.283 0.395,0.372 0.778,0.759 1.146,1.159 0.239,0.26 0.543,0.493 0.535,0.903 -0.016,0.824 0.024,1.653 -0.062,2.469 -0.14,1.324 -0.299,2.652 -0.567,3.954 -0.289,1.403 -0.63,2.807 -1.1,4.158 -0.519,1.49 -1.193,2.929 -1.837,4.373 -0.251,0.561 -0.605,1.075 -0.956,1.686 -0.268,-0.225 -0.477,-0.4 -0.686,-0.576 -0.218,0.037 -0.285,-0.137 -0.401,-0.264 -0.251,-0.274 -0.505,-0.555 -0.8,-0.777 -0.227,-0.172 -0.549,-0.21 -0.716,-0.488 -0.034,-0.056 -0.128,-0.09 -0.2,-0.107 -0.294,-0.07 -0.519,-0.264 -0.772,-0.408 -0.254,-0.144 -0.509,-0.361 -0.778,-0.386 -0.385,-0.035 -0.735,0.019 -0.973,-0.404 C 14.974,12.92 14.7,12.857 14.505,12.758 14.438,12.724 14.346,12.734 14.283,12.695 13.867,12.438 13.449,12.183 13.045,11.907 12.796,11.738 12.559,11.637 12.239,11.663 12,11.682 11.713,11.626 11.515,11.498 11.264,11.337 11.047,11.351 10.829,11.47 10.656,11.565 10.549,11.542 10.405,11.425 10.173,11.235 9.916,11.087 9.595,11.094 9.535,11.095 9.445,11.045 9.418,10.992 9.31,10.783 9.117,10.791 8.959,10.845 8.624,10.959 8.327,10.842 8.018,10.76 7.93,10.736 7.771,10.68 7.762,10.698 7.647,10.927 7.543,10.748 7.417,10.719 7.25,10.681 7.092,10.622 6.886,10.693 6.683,10.762 6.421,10.668 6.186,10.637 6.096,10.625 6.009,10.569 5.921,10.57 5.745,10.571 5.57,10.61 5.394,10.612 5.009,10.618 4.866,10.559 4.904,10.267 4.946,9.943 4.792,9.664 4.828,9.356 4.865,9.05 4.831,8.748 4.732,8.454 4.551,7.914 4.714,7.275 4.258,6.814 4.241,6.797 4.243,6.748 4.253,6.72 4.353,6.443 4.252,6.171 4.215,5.903 4.147,5.404 4.035,4.904 3.773,4.472 3.613,4.21 3.532,3.94 3.462,3.653 3.425,3.504 3.372,3.35 3.286,3.226 2.888,2.648 2.561,2.037 2.289,1.389 2.176,1.119 1.968,0.892 1.988,0.568 1.992,0.511 1.892,0.45 1.843,0.389 1.593,0.074 1.293,-0.207 1.184,-0.616 1.172,-0.659 1.101,-0.687 1.058,-0.722 0.968,-0.795 0.873,-0.863 0.788,-0.943 0.472,-1.24 0.158,-1.54 -0.155,-1.841 -0.56,-2.232 -1.096,-2.425 -1.563,-2.709 -2.157,-3.07 -2.843,-3.305 -3.551,-3.48 c -0.918,-0.226 -1.736,0.029 -2.582,0.227 -0.521,0.123 -0.907,0.515 -1.374,0.75 -0.193,0.097 -0.412,0.211 -0.527,0.381 -0.264,0.384 -0.472,0.807 -0.7,1.216 -0.09,0.163 -0.223,0.322 -0.252,0.497 -0.099,0.586 -0.2,1.166 -0.52,1.683 -0.055,0.089 -0.074,0.205 -0.09,0.312 -0.082,0.525 -0.151,1.051 -0.237,1.575 -0.028,0.167 -0.137,0.33 -0.132,0.492 0.011,0.345 -0.01,0.626 -0.177,0.846 0.037,-0.694 -0.489,-1.178 -0.612,-1.831 -0.132,-0.697 -0.435,-1.36 -0.65,-2.043 -0.248,-0.781 -0.564,-1.518 -1.198,-2.075 -0.137,-0.121 -0.374,-0.25 -0.377,-0.379 -0.01,-0.428 -0.398,-0.454 -0.607,-0.659 -0.123,-0.12 -0.342,-0.152 -0.441,-0.282 -0.223,-0.293 -0.543,-0.403 -0.849,-0.548 -0.142,-0.067 -0.299,-0.106 -0.43,-0.189 -0.458,-0.289 -0.942,-0.313 -1.445,-0.163 -0.388,0.116 -0.78,0.356 -1.158,0.335 -0.605,-0.034 -1.036,0.324 -1.53,0.513 -0.451,0.173 -0.836,0.519 -1.245,0.795 -0.381,0.257 -0.745,0.513 -0.991,0.939 -0.202,0.352 -0.566,0.608 -0.802,0.945 -0.14,0.201 -0.29,0.426 -0.259,0.721 0.059,0.565 -0.161,1.113 -0.394,1.572 -0.336,0.664 -0.486,1.322 -0.421,2.032 0.041,0.442 0.07,0.887 -0.071,1.294 -0.217,0.63 -0.036,1.276 -0.163,1.905 -0.058,0.284 -0.025,0.59 -0.004,0.884 0.026,0.362 0.113,0.721 0.117,1.082 0.004,0.403 -0.045,0.805 0.143,1.185 0.011,0.021 -0.012,0.059 -0.02,0.094 -0.185,0.116 -0.362,0.296 -0.566,0.336 -0.31,0.06 -0.647,0.031 -0.958,0.018 -0.307,-0.012 -0.584,0.067 -0.842,0.138 -0.45,0.124 -0.874,0.339 -1.354,0.361 -0.092,0.004 -0.188,0.028 -0.271,0.065 -0.435,0.196 -0.865,0.402 -1.3,0.598 -0.084,0.038 -0.178,0.053 -0.269,0.075 -0.166,0.041 -0.368,0.032 -0.494,0.125 -0.598,0.446 -1.377,0.486 -1.984,0.91 -0.167,0.117 -0.394,0.148 -0.593,0.218 -0.724,10e-4 -1.229,0.488 -1.811,0.809 -0.175,0.097 -0.362,0.176 -0.548,0.252 -0.099,0.04 -0.228,0.029 -0.31,0.087 -0.501,0.355 -1,0.713 -1.484,1.09 -0.395,0.308 -0.767,0.644 -1.178,0.992 -0.09,-0.132 -0.172,-0.228 -0.227,-0.337 -0.603,-1.212 -1.249,-2.406 -1.787,-3.646 -0.43,-0.992 -0.736,-2.037 -1.078,-3.065 -0.2,-0.6 -0.363,-1.213 -0.542,-1.819 -0.201,-0.932 -0.46,-1.856 -0.591,-2.797 -0.191,-1.371 -0.309,-2.753 -0.42,-4.133 -0.044,-0.554 0.015,-1.116 0.026,-1.622 0.227,-0.189 0.507,-0.311 0.594,-0.515 0.221,-0.52 0.696,-0.808 1.007,-1.238 0.077,-0.107 0.221,-0.215 0.221,-0.322 0,-0.305 0.183,-0.448 0.397,-0.596 0.115,-0.081 0.215,-0.189 0.31,-0.294 0.421,-0.464 0.781,-0.99 1.347,-1.303 m 17.656,5.067 0.175,-0.304 c 0.031,0.018 0.062,0.035 0.093,0.053 -0.065,0.111 -0.13,0.222 -0.196,0.333 -0.025,0.265 0.002,0.549 -0.088,0.79 -0.161,0.433 -0.286,0.854 -0.232,1.325 0.041,0.349 0.054,0.705 0.036,1.056 -0.018,0.376 0.044,0.714 0.256,1.029 0.175,0.259 0.298,0.558 0.501,0.789 0.399,0.455 0.796,0.932 1.275,1.293 0.369,0.279 0.845,0.474 1.302,0.564 0.468,0.091 0.945,0.332 1.455,0.11 0.195,-0.085 0.425,-0.092 0.641,-0.126 0.23,-0.035 0.471,-0.029 0.691,-0.095 0.504,-0.152 0.969,-0.45 1.24,-0.868 0.337,-0.521 0.56,-1.13 0.746,-1.729 0.11,-0.353 0.082,-0.759 0.063,-1.139 -0.018,-0.372 0.14,-0.768 -0.124,-1.115 -0.024,-0.032 -0.004,-0.095 -0.01,-0.142 -0.058,-0.474 -0.117,-0.949 -0.179,-1.449 0.061,0.01 0.172,-0.005 0.228,0.044 0.152,0.129 0.262,0.269 0.332,0.489 0.17,0.531 0.41,1.033 0.46,1.605 0.022,0.252 0.217,0.488 0.24,0.74 0.023,0.257 0.217,0.419 0.253,0.65 0.092,0.589 0.181,1.179 0.257,1.77 0.079,0.623 0.318,1.224 0.267,1.866 -10e-4,0.012 0.021,0.026 0.023,0.041 0.053,0.363 0.144,0.727 0.148,1.091 0.008,0.839 -0.035,1.679 -0.037,2.518 -10e-4,0.215 0.147,0.448 0.098,0.641 -0.153,0.598 -0.159,1.206 -0.215,1.812 -0.026,0.274 -0.071,0.573 -0.204,0.805 -0.22,0.384 -0.341,0.786 -0.471,1.203 -0.268,0.851 -0.841,1.471 -1.677,1.833 -0.214,0.093 -0.398,0.316 -0.61,0.338 -0.327,0.033 -0.619,0.227 -0.969,0.162 -0.194,-0.036 -0.403,0.116 -0.619,0.018 -0.041,-0.019 -0.131,0.011 -0.167,0.049 -0.286,0.297 -0.652,0.187 -0.963,0.135 -0.324,-0.053 -0.636,-0.225 -0.931,-0.384 -0.304,-0.164 -0.605,-0.349 -0.864,-0.574 -0.295,-0.256 -0.678,-0.39 -0.903,-0.759 -0.131,-0.215 -0.334,-0.435 -0.685,-0.452 -0.202,-0.01 -0.412,-0.219 -0.407,-0.512 0.002,-0.138 0.003,-0.308 -0.069,-0.411 -0.294,-0.42 -0.564,-0.839 -0.656,-1.361 -0.069,-0.391 -0.486,-0.692 -0.291,-1.169 0.035,-0.085 -0.085,-0.319 -0.181,-0.354 -0.236,-0.086 -0.253,-0.295 -0.354,-0.458 -0.066,-0.105 -0.135,-0.208 -0.18,-0.276 0.021,-0.146 0.063,-0.274 0.05,-0.395 -0.032,-0.28 -0.093,-0.556 -0.139,-0.834 -0.044,-0.261 -0.028,-0.552 -0.143,-0.777 -0.118,-0.231 0.229,-0.491 -0.092,-0.691 -0.035,-0.022 0.09,-0.302 0.125,-0.412 -0.053,-0.224 -0.179,-0.438 -0.127,-0.593 0.157,-0.464 0.27,-0.914 0.203,-1.415 -0.028,-0.214 -0.089,-0.463 -0.022,-0.662 0.119,-0.352 0.132,-0.703 0.155,-1.063 0.012,-0.19 0.028,-0.306 -0.196,-0.358 -0.22,-0.05 -0.202,-0.224 -0.03,-0.273 0.226,-0.065 0.209,-0.226 0.273,-0.378 0.126,-0.3 0.084,-0.615 0.11,-0.922 0.033,-0.378 0.395,-0.641 0.331,-1.042 0.335,-0.553 0.669,-1.106 1.004,-1.66 m 39.246,-7.811 c -0.008,0.058 -0.015,0.115 -0.022,0.172 -0.057,-0.047 -0.114,-0.093 -0.172,-0.14 -0.277,-0.16 -0.526,-0.389 -0.732,-0.603 C 17.417,-8.616 17.035,-8.803 16.726,-9.091 16.521,-9.282 16.349,-9.53 16,-9.462 c -0.064,0.012 -0.155,-0.092 -0.228,-0.149 -0.124,-0.096 -0.244,-0.198 -0.366,-0.297 -0.157,-0.057 -0.31,-0.148 -0.471,-0.164 -0.527,-0.053 -0.877,-0.45 -1.209,-0.752 -0.308,-0.279 -0.706,-0.421 -0.975,-0.742 -0.134,-0.161 -0.906,-0.443 -1.176,-0.527 -0.171,-0.053 -0.327,-0.156 -0.482,-0.25 -0.2,-0.121 -0.374,-0.285 -0.635,-0.284 -0.068,0 -0.137,-0.098 -0.205,-0.152 -0.073,-0.057 -0.136,-0.133 -0.218,-0.172 -0.174,-0.085 -0.357,-0.152 -0.536,-0.226 -0.365,-0.193 -0.73,-0.387 -1.096,-0.578 -0.018,-0.01 -0.051,0.014 -0.076,0.011 -0.41,-0.041 -0.77,-0.237 -1.082,-0.471 -0.291,-0.218 -0.561,-0.312 -0.924,-0.293 -0.211,0.011 -0.502,-0.078 -0.63,-0.229 -0.204,-0.24 -0.404,-0.389 -0.707,-0.499 -0.321,-0.117 -0.645,-0.269 -0.944,-0.482 -0.209,-0.149 -0.557,-0.137 -0.767,-0.375 -0.023,-0.026 -0.093,-0.018 -0.139,-0.014 -0.233,0.021 -0.45,-0.071 -0.666,-0.098 -0.225,-0.029 -0.458,-0.035 -0.686,-0.088 -0.065,-0.015 -0.142,0.025 -0.208,0.011 -0.337,-0.076 -0.704,0 -1.019,-0.215 -0.093,-0.064 -0.236,-0.049 -0.353,-0.084 -0.308,-0.092 -0.628,-0.164 -0.918,-0.298 -0.276,-0.128 -0.52,-0.326 -0.78,-0.489 -0.021,-0.013 -0.061,0 -0.09,0.007 -0.323,0.083 -0.628,0.016 -0.952,-0.036 -0.349,-0.056 -0.72,0.018 -1.076,-0.096 -0.044,-0.014 -0.11,0.058 -0.169,0.069 -0.074,0.013 -0.171,0.034 -0.225,-0.001 -0.329,-0.211 -0.682,0.075 -1.042,-0.085 -0.226,-0.102 -0.56,0.058 -0.846,0.062 -0.269,0.004 -0.539,-0.043 -0.808,-0.067 -0.185,-0.43 -0.653,-0.306 -0.967,-0.487 -0.112,-0.064 -0.282,-0.11 -0.398,-0.074 -0.487,0.15 -0.957,0.158 -1.41,-0.084 -0.198,0.371 -0.601,0.318 -0.89,0.509 -0.199,-0.277 -0.431,-0.445 -0.77,-0.229 -0.034,0.022 -0.084,0.048 -0.118,0.038 -0.408,-0.116 -0.809,-0.191 -1.196,0.077 -0.051,0.035 -0.19,0.026 -0.226,-0.016 -0.256,-0.3 -0.57,-0.167 -0.862,-0.124 -0.365,0.053 -0.75,0.082 -1.08,0.226 -0.46,0.2 -0.515,0.252 -1.03,0.149 -0.039,-0.007 -0.085,0.03 -0.129,0.037 -0.342,0.052 -0.706,0.198 -1.023,0.13 -0.44,-0.095 -0.698,0.062 -0.938,0.375 -0.153,-0.165 -0.308,-0.261 -0.5,-0.084 -0.383,-0.336 -0.734,0.05 -1.103,0.049 -0.078,0 -0.187,-0.009 -0.23,0.036 -0.296,0.307 -0.714,0.295 -1.071,0.438 -0.271,0.109 -0.52,0.295 -0.799,0.358 -0.606,0.137 -1.206,0.26 -1.776,0.536 -0.248,0.12 -0.578,0.109 -0.868,0.095 -0.24,-0.011 -0.474,-0.118 -0.588,0.207 -0.009,0.028 -0.104,0.021 -0.156,0.04 -0.119,0.044 -0.28,0.062 -0.342,0.149 -0.077,0.11 -0.142,0.165 -0.273,0.211 -0.259,0.092 -0.505,0.229 -0.748,0.361 -0.183,0.1 -0.349,0.231 -0.531,0.333 -0.429,0.239 -0.989,0.072 -1.38,0.439 -0.71,0.018 -1.253,0.48 -1.881,0.718 -0.262,0.099 -0.492,0.28 -0.737,0.424 -0.489,0.113 -0.841,0.452 -1.228,0.736 -0.198,0.145 -0.41,0.271 -0.615,0.407 -0.09,0.061 -0.186,0.117 -0.263,0.192 -0.267,0.257 -0.538,0.493 -0.903,0.623 -0.284,0.102 -0.559,0.264 -0.8,0.449 -0.345,0.263 -0.661,0.565 -0.977,0.864 -0.409,0.386 -1.019,0.539 -1.275,1.105 -0.027,0.061 -0.127,0.087 -0.193,0.132 -0.534,0.362 -1.087,0.699 -1.54,1.168 -0.463,0.428 -0.761,1.023 -1.344,1.329 0.053,0.323 -0.3,0.291 -0.429,0.474 -0.214,0.308 -0.534,0.543 -0.809,0.808 -0.032,0.03 -0.089,0.055 -0.093,0.088 -0.067,0.513 -0.617,0.65 -0.821,1.068 0.094,-0.884 0.219,-1.751 0.381,-2.611 0.05,-0.268 0.169,-0.534 0.311,-0.768 0.134,-0.222 0.399,-0.322 0.55,-0.567 0.173,-0.281 0.439,-0.498 0.56,-0.83 0.056,-0.153 0.238,-0.26 0.367,-0.384 0.064,-0.063 0.151,-0.107 0.201,-0.178 0.116,-0.163 0.201,-0.348 0.324,-0.502 0.31,-0.389 0.676,-0.74 0.938,-1.157 0.159,-0.253 0.348,-0.415 0.59,-0.549 0.094,-0.174 0.146,-0.404 0.289,-0.508 0.311,-0.226 0.384,-0.598 0.623,-0.861 0.084,-0.093 0.15,-0.203 0.239,-0.29 0.41,-0.4 0.969,-0.585 1.396,-1.003 -0.013,-0.279 0.096,-0.525 0.407,-0.67 0.089,-0.042 0.18,-0.133 0.218,-0.224 0.11,-0.26 0.285,-0.409 0.569,-0.436 0.037,-0.003 0.07,-0.059 0.101,-0.095 0.203,-0.231 0.405,-0.464 0.607,-0.696 0.064,-0.037 0.128,-0.073 0.191,-0.11 l -0.015,-0.012 c -0.063,-0.303 0.184,-0.373 0.372,-0.467 0.288,-0.144 0.621,-0.219 0.876,-0.405 0.473,-0.347 0.902,-0.755 1.355,-1.13 0.067,-0.055 0.173,-0.06 0.251,-0.106 0.36,-0.215 0.767,-0.34 1.092,-0.631 0.246,-0.221 0.65,-0.253 0.765,-0.637 0.004,-0.012 0.027,-0.028 0.038,-0.026 0.318,0.06 0.469,-0.23 0.689,-0.356 0.364,-0.207 0.739,-0.377 1.116,-0.554 0.387,-0.182 0.71,-0.498 1.061,-0.757 0.131,-0.097 0.248,-0.222 0.391,-0.296 0.371,-0.19 0.753,-0.36 1.132,-0.535 0.364,-0.169 0.735,-0.322 1.092,-0.503 0.443,-0.224 0.923,-0.359 1.386,-0.513 0.234,-0.077 0.458,-0.24 0.707,-0.245 0.389,-0.008 0.696,-0.239 1.053,-0.333 0.312,-0.081 0.607,-0.286 0.917,-0.303 0.427,-0.023 0.791,-0.166 1.175,-0.321 0.329,-0.132 0.691,-0.191 1.043,-0.258 0.34,-0.064 0.698,-0.058 1.028,-0.152 0.708,-0.202 1.427,-0.154 2.146,-0.192 0.242,-0.014 0.479,-0.006 0.717,-0.013 0.519,-0.018 0.842,0.002 1.254,0.198 0.076,0.036 0.177,0.036 0.264,0.029 0.217,-0.019 0.441,-0.025 0.647,-0.085 0.295,-0.085 0.593,0.203 0.881,-0.026 0.026,-0.02 0.124,0.02 0.166,0.057 0.269,0.238 0.579,0.208 0.9,0.16 0.298,-0.045 0.601,-0.119 0.897,-0.099 0.674,0.045 1.336,0.269 2.023,0.115 0.027,-0.006 0.066,0.004 0.088,0.022 0.239,0.187 0.526,0.081 0.787,0.131 0.52,0.102 1.059,0.126 1.508,0.483 0.129,0.103 0.356,0.094 0.54,0.114 0.188,0.02 0.426,-0.057 0.562,0.031 0.454,0.294 1.045,0.185 1.477,0.556 0.17,0.145 0.447,0.175 0.682,0.233 0.502,0.124 1.074,-0.049 1.51,0.357 0.254,-0.154 0.374,0.215 0.525,0.173 0.445,-0.125 0.676,0.22 0.993,0.371 0.638,0.304 1.151,0.855 1.913,0.925 0.152,0.014 0.279,0.298 0.431,0.312 0.294,0.026 0.501,0.329 0.706,0.308 0.372,-0.037 0.459,0.257 0.679,0.385 0.027,0.016 0.059,0.046 0.083,0.041 0.313,-0.061 0.446,0.2 0.638,0.353 0.075,0.059 0.138,0.157 0.221,0.178 0.485,0.123 0.899,0.394 1.337,0.616 0.331,0.169 0.666,0.322 0.886,0.641 0.018,0.025 0.048,0.062 0.071,0.061 0.48,-0.022 0.672,0.49 1.103,0.585 0.243,0.054 0.456,0.247 0.682,0.377 0.124,0.062 0.248,0.125 0.373,0.185 0.18,0.087 0.37,0.158 0.541,0.261 0.172,0.104 0.315,0.318 0.488,0.34 0.241,0.031 0.322,0.21 0.428,0.334 0.383,0.452 0.866,0.717 1.419,0.881 0.039,0.128 0.078,0.257 0.117,0.385 l -0.006,-0.01 c 0.271,0.044 0.609,0.16 0.71,0.255 0.541,0.509 1.128,0.958 1.754,1.357 0.078,0.049 0.128,0.139 0.197,0.204 0.109,0.104 0.237,0.192 0.334,0.306 0.338,0.394 0.91,0.472 1.218,0.903 0.075,0.105 0.142,0.296 0.224,0.302 0.415,0.032 0.388,0.398 0.53,0.635 0.056,0.031 0.118,0.053 0.166,0.094 0.292,0.251 0.48,0.618 0.865,0.771 0.036,0.014 0.049,0.112 0.054,0.173 0.016,0.172 -0.006,0.368 0.269,0.312 0.222,0.406 0.566,0.688 0.919,0.975 0.148,0.12 0.182,0.368 0.45,0.372 0.08,0.001 0.17,0.082 0.236,0.147 0.591,0.579 0.949,1.339 1.502,1.95 0.076,0.083 0.087,0.239 0.099,0.364 0.098,1.031 0.19,2.062 0.283,3.093 -0.155,-0.087 -0.214,-0.251 -0.321,-0.292 -0.458,-0.178 -0.583,-0.672 -0.931,-0.935 -0.315,-0.237 -0.512,-0.684 -1.015,-0.632 -0.07,0.008 -0.193,-0.021 -0.213,-0.067 -0.16,-0.379 -0.574,-0.553 -0.736,-0.935 -0.063,-0.146 -0.254,-0.24 -0.311,-0.387 -0.111,-0.29 -0.426,-0.153 -0.588,-0.335 -0.358,-0.402 -0.824,-0.674 -1.251,-0.994 -0.163,-0.122 -0.294,-0.288 -0.432,-0.441 -0.144,-0.159 -0.278,-0.325 -0.417,-0.489 l 0.004,0.004 z m -27.16,-29.528 c -0.641,0.023 -1.282,0.046 -1.923,0.07 -0.077,0.035 -0.152,0.096 -0.23,0.1 -1.337,0.064 -2.668,0.112 -3.984,0.432 -1.28,0.311 -2.592,0.453 -3.85,0.901 -1.368,0.487 -2.796,0.789 -4.132,1.399 -1.226,0.559 -2.504,0.986 -3.672,1.692 -1.335,0.806 -2.738,1.486 -3.929,2.529 -0.828,0.725 -1.757,1.335 -2.633,2.007 -0.279,0.214 -0.544,0.449 -0.793,0.696 -0.382,0.378 -0.741,0.779 -1.116,1.163 -0.996,1.017 -2.043,1.987 -2.855,3.17 -0.205,0.299 -0.397,0.609 -0.614,0.901 -1.104,1.482 -2.166,2.985 -2.964,4.669 -0.558,1.179 -1.234,2.297 -1.658,3.545 -0.426,1.253 -0.991,2.452 -1.258,3.767 -0.283,1.397 -0.671,2.766 -0.846,4.192 -0.478,3.885 -0.922,7.871 -0.028,11.736 0.315,1.361 0.466,2.756 0.963,4.08 0.45,1.202 0.737,2.454 1.224,3.653 0.672,1.653 1.367,3.281 2.283,4.812 0.28,0.467 0.516,0.962 0.822,1.41 0.475,0.693 0.987,1.361 1.494,2.031 0.598,0.792 1.205,1.577 1.815,2.359 0.187,0.24 0.386,0.473 0.6,0.688 0.403,0.403 0.821,0.791 1.233,1.186 1.015,0.974 1.968,2.018 3.142,2.814 0.288,0.196 0.585,0.38 0.865,0.587 1.446,1.072 2.895,2.127 4.54,2.899 1.165,0.545 2.256,1.233 3.489,1.655 1.342,0.46 2.624,1.075 4.036,1.359 1.33,0.266 2.629,0.661 3.99,0.807 1.324,0.141 2.615,0.54 3.968,0.477 0.493,-0.023 0.991,0.05 1.486,0.088 0.081,0.006 0.159,0.057 0.238,0.087 0.641,-0.023 1.283,-0.046 1.924,-0.069 0.06,-0.035 0.12,-0.096 0.182,-0.099 1.367,-0.07 2.731,-0.101 4.08,-0.432 1.263,-0.311 2.562,-0.439 3.806,-0.887 1.31,-0.472 2.686,-0.744 3.971,-1.322 1.284,-0.577 2.622,-1.015 3.845,-1.751 1.322,-0.795 2.672,-1.522 3.91,-2.47 1.736,-1.331 3.457,-2.66 4.958,-4.259 1.113,-1.187 2.226,-2.36 3.139,-3.727 1.008,-1.507 2.125,-2.934 2.906,-4.591 0.563,-1.194 1.266,-2.315 1.693,-3.582 0.438,-1.299 1.03,-2.539 1.302,-3.903 0.274,-1.365 0.667,-2.701 0.825,-4.098 0.151,-1.338 0.525,-2.649 0.481,-4.014 -0.053,-1.663 0.11,-3.285 -0.053,-4.966 -0.215,-2.216 -0.534,-4.597 -1.298,-6.7 -0.465,-1.28 -0.731,-2.624 -1.3,-3.879 -0.581,-1.283 -1.015,-2.625 -1.754,-3.846 -0.799,-1.32 -1.513,-2.677 -2.469,-3.913 -1.34,-1.731 -2.66,-3.463 -4.267,-4.962 -1.19,-1.11 -2.355,-2.232 -3.728,-3.139 -1.5,-0.99 -2.91,-2.103 -4.55,-2.885 -1.28,-0.611 -2.498,-1.341 -3.853,-1.802 -1.246,-0.424 -2.443,-0.968 -3.752,-1.23 -1.351,-0.271 -2.672,-0.66 -4.054,-0.807 -1.292,-0.138 -2.553,-0.518 -3.873,-0.464 -0.526,0.022 -1.056,-0.045 -1.583,-0.079 -0.065,-0.004 -0.127,-0.056 -0.191,-0.085"
             style="fill:#020202;fill-opacity:1;fill-rule:nonzero;stroke:none"
             id="path22"
             inkscape:connector-curvature="0" /></g><g
           id="g24"
           transform="translate(120.4792,78.1582)"><path
             d="m 0,0 c -0.21,-0.368 -0.633,-0.365 -0.955,-0.533 -0.465,-0.242 -0.951,-0.459 -1.45,-0.615 -0.366,-0.114 -0.678,-0.367 -1.09,-0.377 -0.162,-0.004 -0.34,-0.154 -0.473,-0.279 -0.163,-0.153 -0.343,-0.223 -0.554,-0.243 -0.047,-0.005 -0.119,0.005 -0.137,-0.021 -0.239,-0.347 -0.693,-0.281 -0.988,-0.521 -0.082,-0.067 -0.814,-0.176 -0.958,-0.174 -0.057,10e-4 -0.118,-0.018 -0.171,-0.042 -0.677,-0.311 -1.412,-0.406 -2.124,-0.588 -0.076,-0.019 -0.159,-0.018 -0.23,-0.047 -0.312,-0.123 -0.621,-0.254 -0.931,-0.381 -0.043,-0.018 -0.093,-0.047 -0.133,-0.039 -0.482,0.1 -0.893,-0.215 -1.344,-0.229 -0.381,-0.011 -0.729,-0.214 -1.142,-0.103 -0.207,0.055 -0.463,-0.113 -0.744,-0.059 -0.329,0.064 -0.697,-0.076 -1.03,-0.022 -0.536,0.089 -1.003,-0.188 -1.509,-0.198 -0.586,-0.013 -1.112,-0.332 -1.704,-0.305 -0.235,0.01 -0.473,-0.02 -0.709,-0.032 -0.244,0.411 -0.652,0.148 -0.959,0.178 -0.369,0.036 -0.748,0.117 -1.144,0.06 -0.668,-0.098 -1.345,-0.187 -2.03,-0.103 -0.592,0.072 -1.169,0.21 -1.752,0.323 -0.015,0.003 -0.028,0.027 -0.039,0.026 -0.536,-0.071 -1.018,0.225 -1.528,0.232 -0.259,0.003 -0.506,0.026 -0.758,0.067 -0.248,0.04 -0.497,0.082 -0.748,0.106 -0.162,0.015 -0.328,-0.01 -0.491,-10e-4 -0.603,0.035 -1.108,0.386 -1.68,0.53 -0.37,0.093 -0.709,0.302 -1.073,0.426 -0.252,0.086 -0.524,0.113 -0.786,0.172 -0.216,0.049 -0.443,0.044 -0.626,0.218 -0.06,0.056 -0.231,-0.022 -0.323,0.022 -0.276,0.132 -0.645,0.087 -0.844,0.228 -0.328,0.23 -0.798,0.179 -1.03,0.559 -0.031,0.05 -0.095,0.111 -0.145,0.113 -0.537,0.021 -0.95,0.383 -1.449,0.515 -0.383,0.101 -0.738,0.305 -1.11,0.452 -0.305,0.119 -0.625,0.2 -0.922,0.335 -0.28,0.127 -0.537,0.303 -0.806,0.454 -0.281,0.158 -0.567,0.305 -0.844,0.47 -0.049,0.03 -0.061,0.122 -0.09,0.186 0.038,0.168 0.098,0.334 0.109,0.504 0.029,0.447 0.045,0.896 0.051,1.344 0.006,0.388 0.092,0.75 0.259,1.1 0.176,0.366 0.319,0.747 0.497,1.112 0.301,0.616 0.626,1.221 0.926,1.838 0.128,0.264 0.225,0.545 0.324,0.822 0.042,0.117 0.043,0.249 0.083,0.367 0.204,0.611 0.322,1.233 0.293,1.881 -0.009,0.208 -0.007,0.42 0.025,0.624 0.052,0.336 -0.099,0.592 -0.303,0.816 -0.711,0.78 -1.434,1.549 -2.153,2.322 -0.251,0.27 -0.495,0.547 -0.756,0.806 -0.581,0.578 -1.17,1.147 -1.72,1.684 0.055,0.247 0.118,0.457 0.146,0.671 0.058,0.454 -0.073,0.874 -0.246,1.29 -0.262,0.63 -0.493,1.274 -0.398,1.973 0.051,0.372 0.127,0.745 0.234,1.105 0.108,0.359 0.224,0.729 0.417,1.045 0.286,0.47 0.528,0.955 0.524,1.5 -0.004,0.54 0.252,1.086 -0.021,1.621 0.2,-0.071 0.426,-0.101 0.593,-0.218 0.608,-0.424 1.386,-0.464 1.984,-0.91 0.126,-0.094 0.328,-0.085 0.494,-0.125 0.091,-0.022 0.186,-0.037 0.27,-0.075 0.434,-0.197 0.864,-0.402 1.299,-0.598 0.084,-0.038 0.18,-0.061 0.271,-0.065 0.48,-0.022 0.905,-0.237 1.355,-0.361 0.258,-0.071 0.535,-0.151 0.841,-0.138 0.311,0.013 0.648,0.041 0.959,-0.019 0.203,-0.039 0.38,-0.22 0.566,-0.335 0.008,-0.035 0.03,-0.073 0.019,-0.094 -0.187,-0.38 -0.139,-0.782 -0.143,-1.186 -0.004,-0.36 -0.091,-0.72 -0.117,-1.081 -0.021,-0.294 -0.054,-0.6 0.004,-0.884 0.128,-0.63 -0.054,-1.276 0.164,-1.905 0.14,-0.408 0.111,-0.852 0.07,-1.294 -0.065,-0.71 0.085,-1.368 0.422,-2.033 0.232,-0.459 0.453,-1.007 0.393,-1.571 -0.031,-0.295 0.119,-0.52 0.26,-0.721 0.236,-0.337 0.599,-0.593 0.801,-0.945 0.246,-0.427 0.61,-0.682 0.991,-0.939 0.41,-0.276 0.794,-0.623 1.245,-0.795 0.495,-0.189 0.925,-0.547 1.53,-0.514 0.379,0.021 0.77,-0.219 1.158,-0.334 0.504,-0.151 0.987,-0.126 1.446,0.163 0.13,0.083 0.288,0.121 0.429,0.188 0.306,0.146 0.627,0.255 0.849,0.549 0.099,0.13 0.319,0.162 0.441,0.282 0.21,0.205 0.598,0.231 0.608,0.659 0.003,0.129 0.239,0.258 0.377,0.378 0.634,0.557 0.95,1.295 1.197,2.076 0.216,0.682 0.518,1.346 0.65,2.043 0.124,0.653 0.649,1.137 0.612,1.831 0.168,-0.22 0.189,-0.502 0.177,-0.846 -0.005,-0.163 0.105,-0.325 0.132,-0.493 0.086,-0.523 0.156,-1.05 0.237,-1.574 0.017,-0.107 0.035,-0.223 0.09,-0.312 0.321,-0.518 0.421,-1.097 0.52,-1.684 0.03,-0.175 0.162,-0.333 0.253,-0.496 0.228,-0.409 0.436,-0.832 0.699,-1.217 0.116,-0.169 0.334,-0.283 0.528,-0.38 0.466,-0.236 0.852,-0.628 1.373,-0.75 0.847,-0.198 1.665,-0.453 2.583,-0.227 0.708,0.175 1.393,0.41 1.987,0.771 0.467,0.284 1.004,0.477 1.408,0.868 0.313,0.301 0.627,0.601 0.943,0.898 0.085,0.08 0.18,0.148 0.271,0.221 0.043,0.035 0.114,0.063 0.125,0.106 0.11,0.409 0.409,0.69 0.66,1.004 0.049,0.062 0.148,0.123 0.145,0.179 -0.021,0.325 0.187,0.551 0.3,0.822 0.272,0.648 0.599,1.259 0.997,1.836 0.086,0.124 0.14,0.279 0.176,0.427 0.07,0.287 0.152,0.557 0.311,0.82 0.262,0.432 0.375,0.932 0.443,1.431 0.036,0.268 0.138,0.539 0.037,0.817 -0.01,0.028 -0.011,0.076 0.005,0.093 0.456,0.462 0.293,1.101 0.474,1.64 0.099,0.295 0.133,0.597 0.097,0.902 -0.037,0.308 0.118,0.588 0.075,0.912 -0.038,0.292 0.105,0.351 0.491,0.345 0.175,-0.003 0.35,-0.041 0.526,-0.043 0.088,0 0.175,0.056 0.266,0.068 0.234,0.03 0.496,0.125 0.699,0.055 0.206,-0.07 0.365,-0.011 0.531,0.027 0.126,0.029 0.23,0.208 0.345,-0.021 0.009,-0.018 0.168,0.038 0.257,0.061 0.308,0.083 0.605,0.2 0.94,0.085 0.158,-0.053 0.351,-0.061 0.459,0.148 0.027,0.052 0.117,0.103 0.178,0.102 0.321,-0.007 0.577,0.141 0.81,0.331 0.144,0.117 0.251,0.139 0.424,0.045 0.218,-0.119 0.435,-0.134 0.685,0.028 0.198,0.127 0.486,0.184 0.725,0.165 0.319,-0.026 0.557,0.074 0.805,0.244 0.404,0.276 0.822,0.531 1.239,0.788 0.062,0.038 0.154,0.029 0.221,0.063 0.195,0.099 0.469,0.162 0.56,0.324 0.237,0.424 0.588,0.369 0.973,0.405 0.269,0.024 0.524,0.241 0.777,0.386 0.253,0.144 0.478,0.338 0.772,0.407 0.073,0.018 0.166,0.051 0.2,0.108 0.167,0.278 0.489,0.315 0.717,0.487 0.294,0.223 0.548,0.503 0.799,0.778 0.117,0.127 0.184,0.301 0.401,0.264 C 10.34,27.223 10.059,26.813 9.777,26.404 9.741,26.353 9.707,26.29 9.657,26.259 8.924,25.814 8.524,25.074 8.034,24.417 7.867,24.193 7.722,23.936 7.633,23.672 7.42,23.037 7.176,22.433 6.684,21.946 6.366,21.63 6.045,21.39 5.561,21.485 5.48,21.641 5.352,21.792 5.323,21.961 5.255,22.354 5.056,22.678 4.846,22.998 4.609,23.358 3.799,23.382 3.545,23.031 3.261,22.637 2.993,22.231 2.725,21.826 2.543,21.552 2.313,21.342 2.01,21.212 1.512,20.998 1.037,20.763 0.639,20.369 0.101,19.835 -0.584,19.423 -0.701,18.578 -1.073,18.18 -0.81,17.826 -0.658,17.467 0.089,17.404 0.804,17.353 1.515,17.278 1.692,17.259 1.861,17.162 2.109,17.074 1.925,16.828 1.798,16.638 1.652,16.466 1.426,16.2 1.135,15.977 0.964,15.681 0.554,14.973 0.81,14.462 1.599,14.292 c 0.199,-0.043 0.39,-0.125 0.586,-0.181 0.583,-0.166 1.118,0.018 1.565,0.346 0.34,0.25 0.579,0.64 0.852,0.956 C 4.863,15.006 5.105,14.628 5.351,14.245 5.028,14.074 4.761,13.897 4.469,13.784 4.021,13.612 3.622,13.338 3.088,13.35 2.526,13.362 2.238,12.794 2.183,12.314 2.166,12.174 2.21,11.982 2.301,11.882 2.5,11.666 2.498,11.382 2.397,11.212 2.241,10.952 2.23,10.676 2.15,10.41 1.953,9.757 2.303,9.267 2.971,9.239 3.195,9.23 3.418,9.223 3.67,9.214 3.619,9.102 3.6,8.997 3.538,8.935 3.259,8.659 2.962,8.4 2.682,8.125 2.43,7.879 2.101,7.825 1.783,7.743 1.51,7.673 1.217,7.65 0.965,7.535 0.376,7.267 -0.187,6.939 -0.776,6.669 -1.12,6.512 -1.394,6.307 -1.603,5.989 -2.074,5.274 -2.414,4.519 -2.372,3.643 -2.358,3.348 -2.208,3.046 -2.248,2.765 -2.308,2.355 -2.172,2.06 -1.903,1.801 -1.274,1.195 -0.635,0.6 0,0"
             style="fill:#81c9d0;fill-opacity:1;fill-rule:nonzero;stroke:none"
             id="path26"
             inkscape:connector-curvature="0" /></g><g
           id="g28"
           transform="translate(128.3219,111.1996)"><path
             d="M 0,0 C 0.662,-0.801 1.34,-1.589 1.978,-2.408 2.289,-2.806 2.525,-3.261 2.814,-3.723 2.709,-3.828 2.625,-3.95 2.51,-4.02 2.031,-4.311 1.565,-4.613 1.157,-5.003 1.026,-5.128 0.844,-5.216 0.67,-5.278 c -0.656,-0.23 -1.164,-0.68 -1.71,-1.113 -0.443,0.237 -0.786,-0.046 -1.154,-0.25 -0.311,-0.173 -0.637,-0.321 -0.957,-0.478 -0.45,-0.22 -0.9,-0.437 -1.351,-0.655 -0.099,-0.048 -0.209,-0.148 -0.297,-0.131 -0.472,0.089 -0.795,-0.21 -1.178,-0.382 -0.317,-0.143 -0.69,-0.192 -1.043,-0.217 -0.301,-0.021 -0.534,-0.154 -0.785,-0.284 -0.148,-0.077 -0.323,-0.165 -0.478,-0.153 -0.459,0.038 -0.875,-0.123 -1.308,-0.21 -0.275,-0.055 -0.557,-0.09 -0.837,-0.103 -0.44,-0.02 -0.881,-0.014 -1.355,-0.019 -0.03,0.23 -0.062,0.476 -0.092,0.722 -0.004,0.031 0.013,0.083 -0.002,0.093 -0.454,0.299 -0.227,0.94 -0.632,1.258 -0.259,0.203 -0.186,0.423 -0.016,0.612 0.137,0.151 0.203,0.277 0.079,0.456 -0.009,0.012 -0.013,0.032 -0.01,0.046 0.12,0.514 -0.117,0.866 -0.496,1.178 -0.108,0.088 -0.216,0.29 -0.187,0.406 0.067,0.274 -0.122,0.379 -0.241,0.545 -0.279,0.389 -0.63,0.717 -1.018,0.966 -0.489,0.315 -0.954,0.693 -1.573,0.788 -0.33,0.05 -0.637,0.236 -0.957,0.357 -0.072,0.027 -0.151,0.041 -0.229,0.053 -0.295,0.045 -0.591,0.113 -0.888,0.121 -0.28,0.008 -0.562,-0.046 -0.843,-0.076 -0.156,-0.017 -0.312,-0.066 -0.465,-0.055 -0.346,0.025 -0.667,0.007 -0.919,-0.275 -0.037,-0.041 -0.123,-0.085 -0.165,-0.069 -0.327,0.125 -0.586,-0.095 -0.866,-0.174 -0.296,-0.084 -0.564,-0.269 -0.86,-0.342 -0.494,-0.121 -0.891,-0.386 -1.223,-0.745 -0.421,-0.456 -0.806,-0.945 -1.218,-1.409 -0.355,-0.399 -0.654,-0.835 -0.846,-1.329 -0.145,-0.375 -0.219,-0.778 -0.334,-1.165 -0.08,-0.268 -0.172,-0.534 -0.268,-0.797 -0.052,-0.143 -0.132,-0.264 -0.279,-0.175 -0.028,0.197 -0.042,0.368 -0.079,0.532 -0.038,0.167 -0.317,0.338 0.024,0.485 -0.105,0.231 -0.015,0.515 -0.246,0.723 -0.259,0.233 -0.387,0.53 -0.216,0.799 -0.176,0.37 -0.335,0.694 -0.484,1.021 -0.032,0.069 -0.017,0.209 -0.051,0.218 -0.482,0.134 -0.515,0.654 -0.818,0.953 -0.575,0.564 -1.217,0.964 -1.973,1.163 -0.544,0.143 -1.116,0.18 -1.676,0.264 -0.249,0.038 -0.498,0.104 -0.747,0.106 -0.473,0.004 -0.972,0.058 -1.411,-0.075 -0.294,-0.089 -0.577,-0.254 -0.891,-0.355 -0.291,-0.093 -0.502,-0.429 -0.755,-0.65 -0.106,-0.091 -0.22,-0.19 -0.349,-0.234 -0.374,-0.126 -0.665,-0.353 -0.934,-0.637 -0.174,-0.183 -0.429,-0.287 -0.611,-0.464 -0.216,-0.211 -0.419,-0.446 -0.583,-0.699 -0.672,-1.037 -1.178,-2.155 -1.553,-3.332 0.097,-0.504 -0.444,-0.709 -0.532,-1.133 -0.046,-0.218 -0.251,-0.127 -0.355,-0.072 -1.196,0.628 -2.548,0.785 -3.793,1.263 -0.342,0.131 -0.66,0.322 -0.998,0.464 -0.33,0.139 -0.662,0.303 -1.008,0.36 -0.335,0.055 -0.631,0.161 -0.929,0.31 -0.471,0.236 -0.953,0.453 -1.435,0.668 -0.195,0.087 -0.403,0.147 -0.606,0.22 0.033,0.299 0.068,0.597 0.097,0.897 0.063,0.66 0.354,1.284 0.298,1.967 -0.027,0.334 0.024,0.673 0.029,1.009 0.009,0.66 0.082,1.33 -0.002,1.979 -0.095,0.728 -0.398,1.402 -1.02,1.871 0.534,0.572 0.997,1.239 1.616,1.697 1.333,0.986 2.47,2.221 3.886,3.09 1.399,0.859 2.821,1.687 4.273,2.451 0.882,0.464 1.841,0.781 2.765,1.164 -0.005,-0.144 -0.005,-0.289 -0.015,-0.432 -0.028,-0.386 0.119,-0.723 0.454,-0.871 0.471,-0.208 0.934,-0.425 1.383,-0.674 0.039,-0.022 0.093,-0.025 0.14,-0.025 0.972,-0.002 1.945,-0.163 2.917,-0.008 0.108,0.017 0.217,0.08 0.32,0.07 0.723,-0.066 1.409,-0.234 1.985,-0.718 0.29,-0.244 0.581,-0.497 0.908,-0.682 0.634,-0.361 1.28,-0.694 2.005,-0.874 0.652,-0.162 1.296,-0.289 1.968,-0.278 0.288,0.005 0.597,0.043 0.86,-0.045 0.355,-0.118 0.682,-0.04 1.026,-0.03 0.892,0.026 1.589,0.511 2.193,1.044 0.677,0.599 1.249,1.334 1.785,2.07 0.335,0.462 0.671,0.769 1.26,0.833 0.589,0.064 1.175,0.083 1.731,-0.092 0.469,-0.148 0.902,-0.324 1.417,-0.214 0.392,0.084 0.824,-0.012 1.158,0.309 0.046,0.044 0.154,0.016 0.228,0.039 0.278,0.085 0.554,0.178 0.83,0.268 1.412,-0.688 2.837,-1.352 4.229,-2.076 0.584,-0.304 1.1,-0.738 1.647,-1.113 C -7.191,6.108 -7.112,5.915 -7.06,5.736 -6.984,5.473 -7.008,5.217 -7.176,5.011 -7.373,4.767 -7.581,4.512 -7.836,4.337 -8.397,3.952 -8.856,3.494 -9.037,2.828 -9.269,1.97 -9.462,1.1 -9.428,0.204 c 0.013,-0.324 0.011,-0.653 0.204,-0.955 0.233,-0.364 0.504,-0.574 0.96,-0.648 0.391,-0.064 0.727,-0.043 1.048,0.148 0.615,0.365 1.092,0.894 1.638,1.444 0.118,-0.331 0.24,-0.646 0.342,-0.967 0.076,-0.239 0.086,-0.507 0.196,-0.726 0.32,-0.64 0.222,-1.327 0.269,-1.998 0.004,-0.053 -0.048,-0.114 -0.083,-0.167 -0.251,-0.378 -0.52,-0.747 -0.752,-1.137 -0.124,-0.209 -0.227,-0.448 -0.27,-0.686 -0.073,-0.397 0.019,-0.771 0.177,-1.156 0.199,-0.486 0.975,-0.972 1.412,-0.721 0.415,0.238 0.892,0.413 1.173,0.86 0.175,0.279 0.383,0.549 0.624,0.77 0.151,0.139 0.249,0.263 0.278,0.464 0.017,0.117 0.084,0.231 0.147,0.335 0.441,0.725 0.808,1.487 1.315,2.182 C -0.171,-1.96 -0.039,-0.977 0,0"
             style="fill:#81c9d0;fill-opacity:1;fill-rule:nonzero;stroke:none"
             id="path30"
             inkscape:connector-curvature="0" /></g><g
           id="g32"
           transform="translate(89.8133,58.6793)"><path
             d="m 0,0 c -1.146,0.552 -2.327,1.044 -3.43,1.673 -1.273,0.725 -2.551,1.479 -3.694,2.388 -1.561,1.24 -3.081,2.556 -4.457,3.994 -1.231,1.286 -2.316,2.732 -3.328,4.201 -0.866,1.257 -1.6,2.616 -2.276,3.987 -0.635,1.286 -1.129,2.642 -1.659,3.977 -0.13,0.327 -0.159,0.695 -0.249,1.111 0.355,-0.263 0.533,-0.566 0.712,-0.88 0.11,-0.194 0.319,-0.33 0.454,-0.514 0.276,-0.373 0.833,-0.454 0.962,-1.003 0.048,-0.202 0.323,-0.354 0.502,-0.521 0.241,-0.225 0.467,-0.476 0.739,-0.657 0.487,-0.322 0.661,-0.912 1.123,-1.249 0.037,-0.027 0.007,-0.133 0.04,-0.18 0.057,-0.078 0.129,-0.182 0.211,-0.199 0.375,-0.077 0.57,-0.322 0.715,-0.652 0.047,-0.107 0.181,-0.173 0.268,-0.265 0.43,-0.456 0.926,-0.835 1.504,-1.064 0.293,-0.115 0.378,-0.381 0.591,-0.54 0.156,-0.117 0.321,-0.223 0.472,-0.347 0.115,-0.095 0.223,-0.202 0.317,-0.318 0.096,-0.119 0.179,-0.207 0.358,-0.213 0.107,-0.003 0.207,-0.141 0.315,-0.21 0.207,-0.133 0.413,-0.27 0.629,-0.388 0.665,-0.364 1.275,-0.811 1.904,-1.229 0.328,-0.218 0.641,-0.503 1.054,-0.569 0.222,-0.036 0.311,-0.174 0.363,-0.38 0.156,-0.014 0.313,-0.028 0.481,-0.043 0.123,-0.19 0.219,-0.41 0.518,-0.407 0.099,0 0.199,-0.125 0.298,-0.193 0.096,-0.066 0.193,-0.132 0.287,-0.201 0.068,-0.049 0.133,-0.101 0.2,-0.152 0.086,-0.066 0.162,-0.162 0.259,-0.192 0.178,-0.056 0.392,-0.033 0.547,-0.12 0.122,-0.068 0.207,-0.19 0.359,-0.259 0.266,-0.12 0.49,-0.33 0.738,-0.493 0.284,-0.189 0.522,-0.505 0.941,-0.347 0.05,0.018 0.147,-0.044 0.202,-0.093 C -0.785,7.236 -0.527,7.114 -0.175,7.105 0.11,7.098 0.388,6.924 0.674,6.838 0.829,6.792 0.986,6.772 1.157,6.773 1.335,6.774 1.512,6.616 1.692,6.532 1.798,6.482 1.951,6.371 2.011,6.407 2.487,6.696 2.787,6.348 3.126,6.131 3.228,6.065 3.357,5.933 3.434,5.957 3.653,6.025 3.749,5.796 3.953,5.8 4.128,5.803 4.306,5.635 4.483,5.543 4.497,5.536 4.513,5.531 4.527,5.523 4.769,5.385 5.041,5.709 5.28,5.472 5.492,5.261 5.769,5.276 6.039,5.268 6.227,5.262 6.429,5.294 6.559,5.1 6.574,5.078 6.62,5.055 6.643,5.061 7.241,5.234 7.853,4.7 8.456,5.106 c 0.11,0.074 0.34,0.092 0.447,0.026 0.471,-0.288 0.904,-0.084 1.338,0.062 0.264,0.089 0.498,0.127 0.776,0.029 0.352,-0.124 0.732,-0.068 1.077,0.05 0.375,0.128 0.721,0.247 1.112,0.038 0.127,-0.068 0.317,-0.04 0.475,-0.022 0.489,0.055 0.976,0.125 1.464,0.191 0.014,0.002 0.034,0.027 0.038,0.023 0.408,-0.31 0.832,-0.005 1.247,-0.032 0.296,-0.018 0.59,-0.059 0.863,0.154 0.102,0.079 0.304,0.018 0.454,0.052 0.161,0.036 0.313,0.111 0.47,0.165 0.111,0.038 0.224,0.099 0.335,0.097 0.176,-0.004 0.334,0.206 0.533,0.027 0.045,-0.04 0.2,0.048 0.305,0.069 0.118,0.024 0.238,0.037 0.357,0.059 0.111,0.022 0.25,0.016 0.325,0.082 0.392,0.337 0.828,0.528 1.351,0.571 0.235,0.019 0.487,0.125 0.684,0.261 0.378,0.26 0.862,0.002 1.233,0.297 0.064,0.05 0.27,-0.077 0.48,-0.145 0.252,0.175 0.57,0.4 0.893,0.618 0.061,0.042 0.141,0.058 0.214,0.08 0.27,0.082 0.482,0.206 0.681,0.443 0.181,0.216 0.537,0.286 0.814,0.423 0.207,0.103 0.493,0.16 0.599,0.328 0.168,0.27 0.413,0.234 0.636,0.304 0.035,0.011 0.092,-0.03 0.117,-0.013 0.26,0.169 0.515,0.346 0.772,0.52 0.151,0.102 0.244,0.38 0.507,0.168 0.019,-0.015 0.12,0.038 0.154,0.082 0.213,0.277 0.448,0.51 0.821,0.553 0.056,0.007 0.093,0.113 0.154,0.146 0.09,0.049 0.231,0.132 0.286,0.098 0.266,-0.166 0.425,0.014 0.569,0.164 0.204,0.214 0.407,0.378 0.724,0.292 0.028,-0.007 0.079,-0.005 0.09,0.012 0.258,0.383 0.815,0.433 0.971,0.964 0.112,0.381 0.533,0.512 0.899,0.625 0.171,0.052 0.307,0.117 0.453,0.243 0.199,0.171 0.491,0.335 0.739,0.329 0.492,-0.012 0.647,0.364 0.91,0.624 0.037,0.038 0.054,0.134 0.083,0.135 0.286,0.013 0.435,0.232 0.631,0.387 0.142,0.112 0.415,0.153 0.457,0.282 0.139,0.43 0.55,0.485 0.845,0.681 0.123,0.081 0.277,0.089 0.42,0.222 0.211,0.196 0.442,0.342 0.481,0.655 0.003,0.028 0.03,0.058 0.055,0.076 0.332,0.25 0.632,0.602 1.006,0.719 0.449,0.14 0.757,0.423 1.021,0.735 0.248,0.294 0.577,0.38 0.872,0.555 0.201,-0.403 0.478,-0.712 0.885,-0.949 0.32,-0.186 0.671,-0.149 0.983,-0.291 C 43.01,16.216 42.516,15.029 41.889,13.918 41.279,12.836 40.583,11.794 39.831,10.806 39.04,9.767 38.143,8.809 37.282,7.825 36.934,7.428 36.581,7.028 36.189,6.676 35.52,6.078 34.825,5.508 34.128,4.943 33.431,4.377 32.759,3.767 32.004,3.291 30.657,2.442 29.256,1.678 27.877,0.879 c -0.37,0.131 -0.483,0.494 -0.63,0.787 -0.241,0.481 -0.616,0.651 -1.108,0.65 -0.636,0 -1.275,0.02 -1.908,-0.034 C 23.575,2.226 23.022,2.525 22.469,2.758 22.016,2.949 21.587,3.087 21.099,3.083 20.667,3.08 20.234,3.103 19.802,3.13 19.616,3.142 19.43,3.23 19.248,3.221 18.856,3.2 18.466,3.133 18.075,3.095 17.776,3.065 17.476,3.035 17.177,3.033 16.765,3.03 16.349,3.101 15.954,2.911 15.888,2.879 15.795,2.879 15.719,2.893 15.241,2.982 14.782,2.84 14.34,2.724 13.706,2.557 13.173,2.128 12.546,1.919 12.448,1.887 12.382,1.765 12.287,1.71 12.043,1.569 11.796,1.43 11.54,1.313 11.344,1.224 11.12,1.193 10.932,1.093 10.465,0.842 9.843,0.985 9.521,1.408 9.151,1.895 8.835,2.424 8.282,2.758 8.022,2.914 7.85,3.21 7.618,3.419 7.523,3.505 7.375,3.571 7.248,3.576 6.077,3.625 4.922,3.682 3.763,3.3 3.075,3.074 2.531,2.646 1.899,2.355 1.66,2.244 1.439,2.093 1.208,1.963 0.699,1.678 0.358,1.294 0.304,0.67 0.284,0.44 0.106,0.223 0,0"
             style="fill:#81c9d0;fill-opacity:1;fill-rule:nonzero;stroke:none"
             id="path34"
             inkscape:connector-curvature="0" /></g><g
           id="g36"
           transform="translate(120.4792,78.1582)"><path
             d="m 0,0 c -0.635,0.6 -1.274,1.195 -1.903,1.801 -0.269,0.259 -0.405,0.554 -0.345,0.964 0.04,0.281 -0.11,0.583 -0.124,0.878 -0.042,0.876 0.298,1.631 0.769,2.346 0.209,0.318 0.483,0.523 0.827,0.68 0.589,0.27 1.152,0.598 1.741,0.866 C 1.217,7.65 1.51,7.673 1.783,7.743 2.101,7.825 2.43,7.879 2.682,8.125 2.962,8.4 3.259,8.659 3.538,8.935 3.6,8.997 3.619,9.102 3.67,9.214 3.418,9.223 3.195,9.23 2.971,9.239 2.303,9.267 1.953,9.757 2.15,10.41 c 0.08,0.266 0.091,0.542 0.247,0.802 0.101,0.17 0.103,0.454 -0.096,0.67 -0.091,0.1 -0.135,0.292 -0.118,0.432 0.055,0.48 0.343,1.048 0.905,1.036 0.534,-0.012 0.933,0.262 1.381,0.434 0.292,0.113 0.559,0.29 0.882,0.461 C 5.105,14.628 4.863,15.006 4.602,15.413 4.329,15.097 4.09,14.707 3.75,14.457 3.303,14.129 2.768,13.945 2.185,14.111 c -0.196,0.056 -0.387,0.138 -0.586,0.181 -0.789,0.17 -1.045,0.681 -0.635,1.389 0.171,0.296 0.462,0.519 0.688,0.785 0.146,0.172 0.273,0.362 0.457,0.608 -0.248,0.088 -0.417,0.185 -0.594,0.204 -0.711,0.075 -1.426,0.126 -2.173,0.189 -0.152,0.359 -0.415,0.713 -0.043,1.111 0.117,0.845 0.802,1.257 1.34,1.791 0.398,0.394 0.873,0.629 1.371,0.843 0.303,0.13 0.533,0.34 0.715,0.614 0.268,0.405 0.536,0.811 0.82,1.205 0.254,0.351 1.064,0.327 1.301,-0.033 0.21,-0.32 0.409,-0.644 0.477,-1.037 0.029,-0.169 0.157,-0.32 0.238,-0.476 0.484,-0.095 0.805,0.145 1.123,0.461 0.492,0.487 0.736,1.091 0.949,1.726 0.089,0.264 0.234,0.521 0.401,0.745 0.49,0.657 0.89,1.397 1.623,1.842 0.05,0.031 0.084,0.094 0.12,0.145 0.282,0.409 0.563,0.819 0.845,1.228 0.209,0.175 0.419,0.35 0.687,0.575 0.35,-0.61 0.705,-1.125 0.955,-1.686 0.644,-1.444 1.318,-2.882 1.837,-4.373 0.471,-1.35 0.811,-2.754 1.1,-4.157 0.268,-1.302 0.428,-2.63 0.567,-3.954 0.087,-0.816 0.047,-1.646 0.062,-2.469 0.008,-0.41 -0.296,-0.644 -0.535,-0.903 -0.367,-0.4 -0.75,-0.787 -1.145,-1.16 C 14.019,9.382 13.791,9.354 13.677,9.222 13.369,8.868 12.856,8.75 12.641,8.29 12.596,8.193 12.434,8.154 12.335,8.077 12.24,8.002 12.152,7.917 12.069,7.828 11.923,7.67 11.804,7.482 11.638,7.35 11.094,6.916 10.548,6.48 9.974,6.086 9.633,5.851 9.262,5.669 8.962,5.367 8.635,5.037 8.274,4.741 7.912,4.449 7.643,4.23 7.372,3.989 7.06,3.855 6.775,3.733 6.571,3.536 6.33,3.373 6.147,3.251 5.994,2.995 5.701,3.078 5.676,3.085 5.63,3.044 5.604,3.016 5.306,2.687 4.868,2.601 4.506,2.381 3.863,1.991 3.178,1.656 2.58,1.206 2.085,0.832 1.473,0.757 0.983,0.429 0.672,0.221 0.308,0.184 0,0"
             style="fill:#79408d;fill-opacity:1;fill-rule:nonzero;stroke:none"
             id="path38"
             inkscape:connector-curvature="0" /></g><g
           id="g40"
           transform="translate(123.0862,73.0564)"><path
             d="m 0,0 c -0.226,-0.13 -0.438,-0.324 -0.681,-0.377 -0.432,-0.095 -0.624,-0.607 -1.103,-0.586 -0.023,0.002 -0.054,-0.035 -0.071,-0.061 -0.22,-0.318 -0.556,-0.472 -0.886,-0.64 -0.439,-0.223 -0.852,-0.493 -1.338,-0.617 -0.083,-0.021 -0.146,-0.118 -0.22,-0.178 -0.193,-0.153 -0.325,-0.413 -0.638,-0.352 -0.024,0.004 -0.056,-0.026 -0.084,-0.042 -0.22,-0.128 -0.307,-0.421 -0.678,-0.384 -0.206,0.02 -0.412,-0.282 -0.707,-0.309 -0.152,-0.014 -0.279,-0.297 -0.431,-0.311 -0.761,-0.07 -1.275,-0.621 -1.913,-0.925 -0.317,-0.151 -0.548,-0.496 -0.993,-0.371 -0.15,0.042 -0.271,-0.327 -0.525,-0.173 -0.436,-0.407 -1.008,-0.233 -1.51,-0.358 -0.234,-0.058 -0.512,-0.087 -0.682,-0.233 -0.432,-0.371 -1.022,-0.261 -1.477,-0.556 -0.136,-0.088 -0.373,-0.011 -0.562,-0.031 -0.184,-0.02 -0.411,-0.01 -0.54,-0.113 -0.449,-0.358 -0.987,-0.381 -1.508,-0.483 -0.261,-0.051 -0.548,0.056 -0.787,-0.132 -0.022,-0.017 -0.061,-0.027 -0.088,-0.021 -0.686,0.153 -1.349,-0.071 -2.023,-0.116 -0.296,-0.019 -0.599,0.054 -0.897,0.099 -0.32,0.049 -0.63,0.078 -0.9,-0.16 -0.042,-0.037 -0.14,-0.077 -0.165,-0.056 -0.289,0.228 -0.587,-0.06 -0.881,0.026 -0.207,0.06 -0.43,0.066 -0.647,0.084 -0.088,0.008 -0.189,0.008 -0.265,-0.029 -0.411,-0.196 -0.735,-0.215 -1.253,-0.198 -0.238,0.008 -0.475,0 -0.718,0.013 -0.718,0.039 -1.438,-0.009 -2.146,0.193 -0.33,0.094 -0.688,0.087 -1.028,0.152 -0.352,0.067 -0.714,0.125 -1.043,0.258 -0.383,0.154 -0.748,0.297 -1.175,0.321 -0.31,0.017 -0.605,0.221 -0.916,0.303 -0.357,0.093 -0.664,0.325 -1.054,0.333 -0.249,0.005 -0.472,0.167 -0.707,0.245 -0.463,0.154 -0.943,0.288 -1.386,0.512 -0.357,0.181 -0.728,0.335 -1.091,0.503 -0.379,0.176 -0.761,0.346 -1.133,0.536 -0.143,0.073 -0.259,0.198 -0.391,0.296 -0.35,0.259 -0.674,0.575 -1.061,0.757 -0.377,0.177 -0.751,0.347 -1.115,0.554 -0.221,0.125 -0.372,0.415 -0.69,0.356 -0.011,-0.002 -0.034,0.014 -0.037,0.026 -0.116,0.384 -0.52,0.416 -0.765,0.636 -0.325,0.291 -0.732,0.416 -1.093,0.632 -0.077,0.046 -0.184,0.051 -0.251,0.106 -0.453,0.375 -0.881,0.783 -1.355,1.129 -0.255,0.186 -0.588,0.261 -0.876,0.406 -0.188,0.094 -0.434,0.163 -0.371,0.466 0.269,0.081 0.535,0.2 0.81,0.235 0.452,0.056 0.713,0.323 0.878,0.702 0.213,0.487 0.509,0.943 0.552,1.499 0.015,0.195 0.132,0.382 0.202,0.573 0.245,-0.144 0.476,-0.325 0.737,-0.424 0.628,-0.239 1.171,-0.701 1.882,-0.719 0.39,-0.367 0.95,-0.2 1.38,-0.439 0.182,-0.101 0.347,-0.232 0.53,-0.332 0.244,-0.133 0.489,-0.269 0.749,-0.361 0.13,-0.046 0.195,-0.102 0.273,-0.211 0.061,-0.087 0.223,-0.106 0.341,-0.15 0.052,-0.019 0.147,-0.012 0.157,-0.04 0.113,-0.325 0.348,-0.218 0.588,-0.206 0.289,0.014 0.619,0.025 0.868,-0.095 0.569,-0.276 1.169,-0.399 1.775,-0.536 0.279,-0.063 0.528,-0.25 0.799,-0.358 0.358,-0.143 0.776,-0.131 1.071,-0.438 0.043,-0.045 0.152,-0.036 0.231,-0.036 0.368,0.001 0.72,-0.386 1.103,-0.049 0.192,-0.177 0.346,-0.081 0.5,0.083 0.24,-0.313 0.497,-0.47 0.937,-0.375 0.317,0.068 0.681,-0.077 1.023,-0.13 0.044,-0.007 0.09,-0.044 0.129,-0.036 0.516,0.102 0.571,0.05 1.03,-0.15 0.331,-0.144 0.716,-0.172 1.08,-0.225 0.292,-0.043 0.607,-0.176 0.862,0.124 0.036,0.042 0.176,0.051 0.226,0.016 0.388,-0.268 0.788,-0.194 1.197,-0.077 0.033,0.009 0.083,-0.016 0.118,-0.038 0.338,-0.217 0.57,-0.048 0.769,0.229 0.289,-0.191 0.692,-0.138 0.891,-0.51 0.452,0.242 0.922,0.235 1.41,0.084 0.115,-0.035 0.285,0.01 0.397,0.075 0.314,0.181 0.782,0.056 0.967,0.486 0.27,0.025 0.539,0.072 0.808,0.068 0.286,-0.004 0.62,-0.164 0.847,-0.063 0.359,0.161 0.713,-0.126 1.041,0.085 0.054,0.035 0.151,0.015 0.225,0.001 0.06,-0.01 0.126,-0.082 0.17,-0.068 0.355,0.114 0.727,0.04 1.076,0.096 0.324,0.052 0.629,0.119 0.951,0.036 0.029,-0.008 0.069,-0.02 0.09,-0.007 0.261,0.163 0.504,0.361 0.78,0.488 0.291,0.135 0.61,0.206 0.919,0.299 0.116,0.035 0.26,0.02 0.353,0.083 0.314,0.216 0.681,0.14 1.019,0.215 0.065,0.015 0.143,-0.026 0.207,-0.011 0.228,0.054 0.461,0.06 0.686,0.088 0.216,0.028 0.433,0.119 0.666,0.099 0.047,-0.004 0.116,-0.012 0.139,0.013 0.211,0.238 0.558,0.226 0.768,0.375 0.299,0.213 0.622,0.366 0.943,0.482 0.304,0.11 0.503,0.26 0.707,0.5 0.129,0.151 0.419,0.239 0.63,0.228 0.363,-0.019 0.633,0.075 0.925,0.294 0.311,0.234 0.671,0.429 1.082,0.471 0.025,0.002 0.057,-0.021 0.075,-0.012 0.367,0.191 0.731,0.385 1.096,0.579 0,-0.316 0.069,-0.612 0.226,-0.891 C -1.74,2.35 -1.5,1.955 -1.325,1.535 -1.048,0.87 -0.667,0.317 0,0"
             style="fill:#81c9d0;fill-opacity:1;fill-rule:nonzero;stroke:none"
             id="path42"
             inkscape:connector-curvature="0" /></g><g
           id="g44"
           transform="translate(79.2176,103.3428)"><path
             d="m 0,0 c 0.273,-0.535 0.017,-1.081 0.021,-1.62 0.003,-0.546 -0.239,-1.031 -0.524,-1.501 -0.193,-0.316 -0.31,-0.685 -0.417,-1.044 -0.108,-0.36 -0.184,-0.733 -0.234,-1.106 -0.096,-0.699 0.136,-1.343 0.398,-1.973 0.172,-0.416 0.304,-0.836 0.245,-1.29 -0.027,-0.214 -0.091,-0.424 -0.145,-0.67 0.549,-0.537 1.139,-1.106 1.72,-1.684 0.261,-0.26 0.505,-0.537 0.756,-0.807 0.719,-0.773 1.441,-1.542 2.152,-2.321 0.205,-0.225 0.356,-0.481 0.303,-0.817 -0.032,-0.204 -0.033,-0.416 -0.024,-0.623 0.028,-0.648 -0.09,-1.27 -0.293,-1.882 -0.04,-0.118 -0.041,-0.25 -0.083,-0.367 -0.1,-0.277 -0.196,-0.557 -0.324,-0.821 -0.3,-0.617 -0.625,-1.222 -0.926,-1.839 -0.178,-0.364 -0.322,-0.746 -0.497,-1.112 -0.168,-0.35 -0.254,-0.712 -0.259,-1.099 -0.007,-0.449 -0.022,-0.897 -0.051,-1.345 -0.011,-0.17 -0.072,-0.336 -0.11,-0.504 -0.308,0.081 -0.615,0.099 -0.858,0.399 -0.196,0.24 -0.538,0.365 -0.823,0.526 -0.294,0.165 -0.608,0.287 -0.852,0.545 -0.117,0.125 -0.349,0.134 -0.488,0.247 -0.38,0.309 -0.705,0.698 -1.115,0.956 -0.391,0.246 -0.596,0.707 -1.086,0.838 -0.184,0.049 -0.313,0.399 -0.477,0.407 -0.29,0.015 -0.295,0.26 -0.425,0.381 -0.281,0.261 -0.55,0.531 -0.85,0.776 -0.307,0.252 -0.542,0.592 -0.808,0.893 0.063,0.493 -0.24,0.841 -0.502,1.192 -0.157,0.209 -0.297,0.4 -0.303,0.677 -0.006,0.274 -0.034,0.549 -0.081,0.819 -0.104,0.609 -0.552,1.02 -0.897,1.487 -0.12,0.162 -0.252,0.324 -0.407,0.45 -0.282,0.229 -0.604,0.408 -0.873,0.649 -0.245,0.218 -0.552,0.439 -0.55,0.805 0.003,0.344 0.037,0.708 0.158,1.025 0.181,0.474 0.44,0.92 0.689,1.365 0.091,0.162 0.264,0.276 0.372,0.431 0.207,0.295 0.414,0.565 0.835,0.519 0.087,-0.01 0.187,0.037 0.27,0.08 0.466,0.241 0.982,0.315 1.484,0.424 0.475,0.103 0.961,0.154 1.441,0.234 0.166,0.028 0.355,0.022 0.387,0.268 0.061,0.455 -0.36,0.977 -0.825,0.996 -0.704,0.029 -1.409,0.039 -2.112,0.085 -0.211,0.014 -0.465,0.068 -0.614,0.2 -0.406,0.357 -0.948,0.549 -1.249,1.031 -0.023,0.037 -0.075,0.056 -0.114,0.083 0.179,0.606 0.342,1.219 0.542,1.819 0.342,1.028 0.648,2.074 1.078,3.065 0.538,1.24 1.184,2.434 1.787,3.646 0.055,0.109 0.137,0.205 0.227,0.337 C -4.92,2.882 -4.548,2.546 -4.153,2.238 -3.669,1.861 -3.17,1.503 -2.669,1.148 -2.587,1.09 -2.458,1.101 -2.359,1.061 -2.173,0.985 -1.986,0.906 -1.811,0.809 -1.229,0.488 -0.724,0.001 0,0"
             style="fill:#79408d;fill-opacity:1;fill-rule:nonzero;stroke:none"
             id="path46"
             inkscape:connector-curvature="0" /></g><g
           id="g48"
           transform="translate(111.3976,89.8729)"><path
             d="M 0,0 C 0.262,0.886 0.551,1.656 0.706,2.451 0.851,3.192 0.848,3.944 0.58,4.698 0.379,5.266 0.104,5.77 -0.244,6.243 -0.389,6.441 -0.604,6.568 -0.818,6.706 -1.331,7.038 -1.886,7.22 -2.469,7.278 -2.999,7.331 -3.544,7.302 -4.077,7.252 -4.806,7.185 -5.401,6.952 -5.9,6.547 -6.276,6.242 -6.621,5.898 -6.964,5.556 -7.057,5.463 -7.097,5.316 -7.156,5.191 -7.228,5.039 -7.291,4.883 -7.363,4.731 -7.39,4.676 -7.455,4.632 -7.463,4.577 -7.589,3.751 -7.848,2.929 -7.737,2.089 -7.658,1.483 -7.449,0.893 -7.291,0.266 -7.392,0.185 -7.505,0.249 -7.598,0.38 c -0.476,0.67 -0.474,0.671 -0.647,1.626 -0.111,0.615 -0.245,1.22 -0.233,1.858 0.017,0.867 -0.052,1.735 -0.086,2.603 -0.015,0.363 -0.079,0.721 -0.09,1.086 -0.007,0.231 0.154,0.341 0.152,0.529 -0.002,0.208 -0.046,0.457 0.05,0.613 0.131,0.213 -0.024,0.361 -0.01,0.536 0.057,0.728 0.11,1.456 0.183,2.183 0.011,0.109 0.12,0.208 0.196,0.332 -0.049,0.075 -0.107,0.165 -0.171,0.261 0.09,0.015 0.167,0.028 0.304,0.051 -0.057,0.178 -0.11,0.344 -0.131,0.409 0.098,0.372 0.123,0.696 0.265,0.956 0.238,0.434 0.159,0.863 0.161,1.314 0,0.247 0.101,0.571 0.372,0.788 0.197,0.158 0.271,0.459 0.449,0.652 0.28,0.303 0.511,0.678 0.959,0.782 0.058,0.013 0.145,0.053 0.154,0.095 0.096,0.448 0.51,0.498 0.824,0.67 0.15,0.082 0.302,0.166 0.462,0.222 0.133,0.046 0.246,0.083 0.426,0.028 0.366,-0.113 0.739,0.087 1.047,0.269 0.28,0.166 0.495,0.303 0.8,0.089 0.082,-0.057 0.212,-0.066 0.319,-0.063 0.28,0.007 0.56,0.032 0.84,0.052 0.168,0.011 0.336,0.025 0.537,0.04 0.369,-0.22 0.707,-0.537 1.186,-0.714 C 1.647,17.306 2.314,16.602 2.756,15.705 2.824,15.567 2.89,15.426 2.975,15.298 3.064,15.161 3.047,15.039 3.031,14.879 2.979,14.374 3.118,13.894 3.306,13.423 3.384,13.227 3.411,13.001 3.416,12.788 3.425,12.436 3.408,12.082 3.38,11.73 3.354,11.41 3.382,11.089 3.365,10.768 3.349,10.482 3.41,10.208 3.338,9.901 3.213,9.366 3.209,8.802 3.163,8.25 3.149,8.075 3.149,7.896 3.166,7.722 3.206,7.299 2.882,7.013 2.762,6.648 2.584,6.102 2.55,5.543 2.472,4.988 2.419,4.617 2.301,4.275 2.198,3.921 1.991,3.208 1.402,2.697 1.263,1.973 1.185,1.567 0.997,1.222 0.778,0.882 0.576,0.57 0.361,0.277 0,0"
             style="fill:#fefefe;fill-opacity:1;fill-rule:nonzero;stroke:none"
             id="path50"
             inkscape:connector-curvature="0" /></g><g
           id="g52"
           transform="translate(90.7996,89.9533)"><path
             d="m 0,0 c -0.335,0.553 -0.669,1.106 -1.004,1.66 0.064,0.401 -0.298,0.664 -0.331,1.042 -0.026,0.306 0.016,0.622 -0.11,0.922 -0.064,0.151 -0.047,0.313 -0.273,0.377 -0.172,0.049 -0.19,0.223 0.03,0.274 0.224,0.051 0.208,0.168 0.196,0.357 -0.023,0.361 -0.036,0.712 -0.155,1.064 -0.067,0.198 -0.006,0.448 0.022,0.661 0.067,0.502 -0.046,0.951 -0.203,1.416 -0.052,0.154 0.074,0.369 0.127,0.593 -0.035,0.109 -0.16,0.39 -0.125,0.412 0.321,0.199 -0.026,0.46 0.092,0.691 0.115,0.224 0.099,0.515 0.143,0.777 0.046,0.278 0.107,0.554 0.139,0.833 0.013,0.122 -0.029,0.249 -0.049,0.396 0.044,0.067 0.113,0.17 0.179,0.276 0.101,0.162 0.118,0.372 0.354,0.457 0.096,0.035 0.216,0.269 0.181,0.354 -0.195,0.477 0.222,0.778 0.291,1.17 0.092,0.522 0.362,0.941 0.656,1.36 0.072,0.104 0.072,0.273 0.069,0.412 -0.005,0.293 0.205,0.501 0.407,0.511 0.351,0.018 0.554,0.238 0.685,0.453 0.225,0.368 0.608,0.502 0.903,0.758 0.259,0.225 0.56,0.41 0.864,0.574 0.295,0.16 0.607,0.331 0.931,0.385 C 4.33,18.236 4.696,18.347 4.982,18.05 5.018,18.012 5.108,17.981 5.149,18 5.365,18.099 5.574,17.946 5.768,17.983 6.118,18.047 6.41,17.854 6.737,17.82 6.949,17.798 7.133,17.576 7.347,17.483 8.183,17.121 8.756,16.501 9.024,15.649 9.154,15.233 9.275,14.831 9.495,14.447 9.628,14.214 9.673,13.916 9.699,13.642 9.755,13.036 9.761,12.428 9.914,11.829 9.963,11.637 9.815,11.403 9.816,11.189 9.818,10.349 9.861,9.51 9.853,8.671 9.849,8.306 9.758,7.943 9.705,7.579 9.703,7.565 9.681,7.551 9.682,7.538 9.733,6.896 9.494,6.296 9.415,5.673 9.339,5.081 9.25,4.492 9.158,3.903 9.122,3.672 8.928,3.509 8.905,3.253 8.882,3.001 8.687,2.764 8.665,2.512 8.615,1.941 8.375,1.439 8.205,0.908 8.135,0.688 8.025,0.548 7.873,0.418 7.817,0.37 7.706,0.385 7.645,0.375 7.707,0.875 7.766,1.349 7.824,1.823 7.83,1.871 7.81,1.934 7.834,1.965 8.098,2.312 7.94,2.709 7.958,3.08 7.977,3.46 8.005,3.867 7.895,4.22 7.709,4.818 7.486,5.428 7.149,5.949 6.878,6.366 6.413,6.664 5.909,6.816 5.689,6.882 5.448,6.876 5.218,6.912 5.002,6.945 4.772,6.952 4.577,7.037 4.067,7.26 3.59,7.019 3.122,6.927 2.665,6.838 2.189,6.643 1.82,6.364 1.341,6.002 0.944,5.526 0.545,5.071 0.342,4.839 0.219,4.54 0.044,4.282 -0.168,3.967 -0.23,3.629 -0.212,3.252 -0.194,2.902 -0.207,2.545 -0.248,2.196 -0.302,1.726 -0.177,1.304 -0.016,0.871 0.074,0.631 0.047,0.347 0.072,0.082 0.048,0.055 0.024,0.027 0,0"
             style="fill:#fefefe;fill-opacity:1;fill-rule:nonzero;stroke:none"
             id="path54"
             inkscape:connector-curvature="0" /></g><g
           id="g56"
           transform="translate(89.8133,58.6793)"><path
             d="M 0,0 C 0.106,0.223 0.284,0.44 0.304,0.67 0.358,1.294 0.699,1.678 1.208,1.963 1.439,2.093 1.66,2.244 1.899,2.355 2.531,2.646 3.075,3.074 3.763,3.3 4.922,3.682 6.077,3.625 7.248,3.576 7.375,3.571 7.523,3.505 7.618,3.419 7.85,3.21 8.022,2.914 8.282,2.758 8.835,2.424 9.151,1.895 9.521,1.408 9.843,0.985 10.465,0.842 10.932,1.093 c 0.188,0.1 0.412,0.131 0.608,0.22 0.256,0.117 0.503,0.256 0.747,0.397 0.095,0.055 0.161,0.177 0.259,0.209 0.627,0.209 1.16,0.638 1.794,0.805 0.442,0.116 0.901,0.258 1.379,0.169 0.076,-0.014 0.169,-0.014 0.235,0.018 0.395,0.19 0.811,0.119 1.223,0.122 0.299,0.002 0.599,0.032 0.898,0.062 0.391,0.038 0.781,0.105 1.173,0.126 0.182,0.009 0.368,-0.079 0.554,-0.091 0.432,-0.027 0.865,-0.05 1.297,-0.047 0.488,0.004 0.917,-0.134 1.37,-0.325 0.553,-0.233 1.106,-0.532 1.762,-0.476 0.633,0.054 1.272,0.034 1.908,0.034 0.492,0.001 0.867,-0.169 1.108,-0.65 0.147,-0.293 0.26,-0.656 0.63,-0.787 -0.348,-0.152 -0.696,-0.306 -1.046,-0.454 -1.074,-0.457 -2.135,-0.95 -3.229,-1.353 -0.743,-0.274 -1.532,-0.421 -2.301,-0.624 -0.525,-0.138 -1.044,-0.312 -1.577,-0.406 -1.044,-0.184 -2.096,-0.325 -3.145,-0.48 -0.347,-0.051 -0.695,-0.106 -1.045,-0.128 -0.278,-0.019 -0.56,0.021 -0.84,0.013 -0.943,-0.025 -1.889,-0.13 -2.826,-0.076 C 10.438,-2.548 9.005,-2.417 7.589,-2.2 6.302,-2.003 5.021,-1.718 3.767,-1.368 2.588,-1.04 1.447,-0.576 0.291,-0.167 0.187,-0.13 0.097,-0.057 0,0"
             style="fill:#79408d;fill-opacity:1;fill-rule:nonzero;stroke:none"
             id="path58"
             inkscape:connector-curvature="0" /></g><g
           id="g60"
           transform="translate(115.4767,120.6301)"><path
             d="m 0,0 c -0.276,-0.09 -0.552,-0.183 -0.829,-0.269 -0.075,-0.023 -0.183,0.005 -0.229,-0.039 -0.334,-0.32 -0.766,-0.224 -1.158,-0.308 -0.515,-0.111 -0.948,0.065 -1.417,0.213 -0.556,0.176 -1.142,0.157 -1.731,0.093 -0.589,-0.064 -0.925,-0.372 -1.26,-0.833 -0.535,-0.736 -1.107,-1.472 -1.785,-2.07 -0.604,-0.533 -1.3,-1.019 -2.192,-1.045 -0.345,-0.01 -0.672,-0.088 -1.027,0.031 -0.263,0.087 -0.572,0.049 -0.86,0.045 -0.672,-0.011 -1.316,0.115 -1.968,0.277 -0.725,0.181 -1.37,0.514 -2.005,0.874 -0.327,0.186 -0.618,0.439 -0.908,0.682 -0.576,0.485 -1.262,0.653 -1.984,0.719 -0.104,0.009 -0.212,-0.054 -0.32,-0.071 -0.973,-0.154 -1.946,0.007 -2.918,0.008 -0.047,0 -0.101,0.004 -0.14,0.025 -0.449,0.25 -0.912,0.466 -1.382,0.674 -0.336,0.149 -0.482,0.486 -0.455,0.871 0.01,0.144 0.01,0.289 0.015,0.433 0.505,0.176 1.006,0.363 1.515,0.525 0.517,0.164 1.04,0.308 1.563,0.454 0.677,0.188 1.347,0.413 2.035,0.543 1.041,0.197 2.094,0.328 3.143,0.482 0.315,0.046 0.632,0.087 0.95,0.106 0.311,0.018 0.623,-10e-4 0.934,0.008 0.942,0.028 1.887,0.13 2.824,0.078 1.382,-0.077 2.766,-0.205 4.133,-0.416 1.302,-0.201 2.602,-0.473 3.87,-0.83 C -2.369,0.918 -1.194,0.426 0,0"
             style="fill:#79408d;fill-opacity:1;fill-rule:nonzero;stroke:none"
             id="path62"
             inkscape:connector-curvature="0" /></g><g
           id="g64"
           transform="translate(128.3219,111.1996)"><path
             d="m 0,0 c -0.039,-0.977 -0.171,-1.96 -0.75,-2.754 -0.507,-0.695 -0.874,-1.457 -1.315,-2.182 -0.063,-0.104 -0.13,-0.218 -0.147,-0.335 -0.029,-0.201 -0.127,-0.325 -0.278,-0.464 -0.241,-0.221 -0.449,-0.491 -0.624,-0.77 -0.281,-0.447 -0.758,-0.622 -1.173,-0.86 -0.437,-0.251 -1.213,0.235 -1.412,0.721 -0.158,0.385 -0.25,0.759 -0.177,1.156 0.043,0.238 0.146,0.477 0.27,0.686 0.232,0.39 0.501,0.759 0.752,1.137 0.035,0.053 0.087,0.114 0.083,0.167 -0.047,0.671 0.051,1.358 -0.269,1.998 -0.11,0.219 -0.12,0.487 -0.196,0.726 -0.102,0.321 -0.224,0.636 -0.342,0.967 -0.546,-0.55 -1.023,-1.079 -1.638,-1.444 -0.321,-0.191 -0.657,-0.212 -1.048,-0.148 -0.456,0.074 -0.727,0.284 -0.96,0.648 -0.193,0.302 -0.191,0.631 -0.204,0.955 -0.034,0.896 0.159,1.766 0.391,2.624 0.181,0.666 0.64,1.124 1.201,1.509 0.255,0.175 0.463,0.43 0.66,0.674 0.168,0.206 0.192,0.462 0.116,0.725 -0.052,0.179 -0.131,0.372 0.091,0.505 0.261,-0.146 0.53,-0.28 0.782,-0.44 C -5.069,5.09 -4.156,4.127 -3.129,3.303 -2.533,2.825 -1.958,2.31 -1.434,1.755 -0.917,1.207 -0.475,0.588 0,0"
             style="fill:#79408d;fill-opacity:1;fill-rule:nonzero;stroke:none"
             id="path66"
             inkscape:connector-curvature="0" /></g><g
           id="g68"
           transform="translate(80.6736,77.195)"><path
             d="m 0,0 c -0.07,-0.191 -0.187,-0.378 -0.202,-0.572 -0.044,-0.557 -0.34,-1.012 -0.552,-1.5 -0.166,-0.379 -0.426,-0.646 -0.878,-0.702 -0.276,-0.034 -0.541,-0.153 -0.811,-0.234 l 0.015,0.012 c -0.063,0.037 -0.127,0.073 -0.191,0.11 -0.202,0.232 -0.404,0.464 -0.606,0.696 -0.032,0.036 -0.065,0.092 -0.102,0.095 -0.284,0.027 -0.459,0.176 -0.569,0.436 -0.038,0.091 -0.129,0.182 -0.218,0.224 -0.311,0.145 -0.42,0.391 -0.407,0.67 -0.427,0.417 -0.986,0.603 -1.396,1.003 -0.089,0.087 -0.155,0.197 -0.239,0.29 -0.239,0.263 -0.312,0.635 -0.623,0.861 -0.143,0.104 -0.195,0.334 -0.289,0.507 0.016,0.07 0.069,0.164 0.042,0.205 -0.428,0.66 -0.53,1.432 -0.713,2.166 -0.111,0.447 -0.043,0.938 -0.055,1.409 0.453,-0.469 1.006,-0.807 1.54,-1.169 0.066,-0.044 0.166,-0.07 0.193,-0.131 C -5.805,3.81 -5.195,3.657 -4.786,3.271 -4.47,2.972 -4.153,2.67 -3.809,2.407 -3.568,2.222 -3.293,2.06 -3.009,1.958 -2.643,1.828 -2.373,1.592 -2.106,1.335 -2.029,1.26 -1.933,1.204 -1.843,1.143 -1.638,1.006 -1.426,0.881 -1.228,0.736 -0.841,0.452 -0.489,0.113 0,0"
             style="fill:#79408d;fill-opacity:1;fill-rule:nonzero;stroke:none"
             id="path70"
             inkscape:connector-curvature="0" /></g><g
           id="g72"
           transform="translate(123.0862,73.0564)"><path
             d="M 0,0 C -0.667,0.317 -1.048,0.87 -1.325,1.535 -1.5,1.955 -1.74,2.35 -1.964,2.749 -2.121,3.028 -2.19,3.324 -2.19,3.64 c 0.18,0.074 0.363,0.141 0.537,0.225 0.081,0.04 0.145,0.115 0.217,0.173 0.068,0.054 0.137,0.151 0.206,0.151 0.261,-0.001 0.434,0.164 0.634,0.285 0.155,0.094 0.312,0.197 0.482,0.249 C 0.156,4.807 0.928,5.09 1.063,5.251 1.332,5.572 1.729,5.714 2.037,5.993 2.37,6.294 2.719,6.691 3.246,6.745 3.407,6.761 3.56,6.852 3.717,6.908 3.959,6.161 3.989,5.396 3.919,4.621 3.896,4.368 3.899,4.112 3.889,3.857 3.881,3.669 3.851,3.505 3.741,3.326 3.567,3.038 3.483,2.695 3.36,2.376 L 3.366,2.385 C 3.327,2.257 3.289,2.129 3.25,2.001 2.697,1.836 2.213,1.571 1.83,1.12 1.724,0.995 1.643,0.816 1.403,0.786 1.229,0.764 1.086,0.549 0.914,0.445 0.743,0.342 0.554,0.271 0.373,0.184 0.248,0.124 0.124,0.062 0,0"
             style="fill:#79408d;fill-opacity:1;fill-rule:nonzero;stroke:none"
             id="path74"
             inkscape:connector-curvature="0" /></g><g
           id="g76"
           transform="translate(78.3842,112.5376)"><path
             d="M 0,0 C 0.622,-0.469 0.925,-1.143 1.019,-1.871 1.104,-2.52 1.031,-3.19 1.022,-3.85 1.017,-4.186 0.966,-4.525 0.993,-4.859 1.049,-5.542 0.758,-6.166 0.695,-6.826 0.666,-7.126 0.63,-7.424 0.598,-7.723 0.39,-7.662 0.17,-7.627 -0.024,-7.536 c -0.655,0.309 -1.316,0.612 -1.942,0.972 -0.258,0.149 -0.515,0.406 -0.623,0.674 -0.105,0.259 -0.279,0.36 -0.469,0.495 -0.24,0.172 -0.472,0.356 -0.756,0.572 0.486,0.726 0.899,1.43 1.4,2.065 0.708,0.899 1.481,1.746 2.229,2.612 C -0.134,-0.088 -0.062,-0.048 0,0"
             style="fill:#79408d;fill-opacity:1;fill-rule:nonzero;stroke:none"
             id="path78"
             inkscape:connector-curvature="0" /></g><g
           id="g80"
           transform="translate(70.2526,97.7055)"><path
             d="M 0,0 C 0.039,-0.027 0.091,-0.046 0.114,-0.082 0.415,-0.564 0.957,-0.757 1.363,-1.114 1.512,-1.246 1.766,-1.299 1.977,-1.313 2.68,-1.36 3.385,-1.37 4.089,-1.399 4.553,-1.418 4.975,-1.94 4.914,-2.395 4.882,-2.64 4.693,-2.635 4.527,-2.663 4.047,-2.743 3.561,-2.794 3.086,-2.897 2.584,-3.006 2.068,-3.079 1.602,-3.321 1.519,-3.364 1.419,-3.411 1.332,-3.401 0.911,-3.355 0.704,-3.625 0.497,-3.92 0.389,-4.075 0.216,-4.189 0.125,-4.351 c -0.249,-0.445 -0.508,-0.891 -0.689,-1.365 -0.121,-0.316 -0.155,-0.681 -0.158,-1.025 -0.003,-0.366 0.305,-0.587 0.55,-0.805 0.269,-0.24 0.591,-0.42 0.872,-0.648 0.156,-0.127 0.288,-0.289 0.408,-0.451 0.345,-0.467 0.793,-0.878 0.897,-1.487 0.047,-0.27 0.075,-0.545 0.081,-0.819 0.006,-0.276 0.146,-0.468 0.303,-0.677 0.262,-0.351 0.565,-0.698 0.502,-1.191 -0.566,0.313 -0.926,0.838 -1.347,1.302 -0.095,0.106 -0.195,0.213 -0.31,0.294 -0.214,0.149 -0.397,0.291 -0.397,0.596 0,0.108 -0.144,0.215 -0.221,0.322 -0.311,0.431 -0.786,0.718 -1.007,1.238 -0.087,0.205 -0.367,0.327 -0.594,0.515 -0.011,0.507 -0.07,1.069 -0.026,1.623 0.111,1.38 0.229,2.762 0.42,4.132 C -0.46,-1.855 -0.201,-0.932 0,0"
             style="fill:#81c9d0;fill-opacity:1;fill-rule:nonzero;stroke:none"
             id="path82"
             inkscape:connector-curvature="0" /></g><g
           id="g84"
           transform="translate(130.042,82.1383)"><path
             d="M 0,0 C 0.138,0.163 0.273,0.33 0.416,0.489 0.555,0.641 0.686,0.808 0.849,0.93 1.275,1.25 1.741,1.522 2.099,1.923 2.262,2.106 2.577,1.968 2.688,2.258 2.744,2.405 2.936,2.499 2.998,2.646 3.16,3.028 3.574,3.201 3.735,3.581 3.754,3.626 3.877,3.655 3.948,3.648 4.451,3.595 4.647,4.043 4.962,4.28 5.31,4.543 5.436,5.037 5.894,5.214 6.001,5.256 6.06,5.42 6.215,5.507 6.121,4.476 6.03,3.444 5.931,2.414 5.919,2.288 5.908,2.133 5.833,2.049 5.28,1.438 4.921,0.679 4.331,0.1 4.265,0.035 4.175,-0.046 4.095,-0.047 3.827,-0.051 3.793,-0.299 3.645,-0.419 3.291,-0.706 2.948,-0.989 2.726,-1.395 2.45,-1.339 2.472,-1.535 2.457,-1.706 2.451,-1.767 2.439,-1.865 2.403,-1.88 2.018,-2.032 1.83,-2.399 1.537,-2.65 1.49,-2.691 1.427,-2.714 1.372,-2.745 1.395,-2.014 1.135,-1.386 0.664,-0.842 0.492,-0.644 0.287,-0.475 0.113,-0.278 0.051,-0.207 0.036,-0.094 0,0"
             style="fill:#79408d;fill-opacity:1;fill-rule:nonzero;stroke:none"
             id="path86"
             inkscape:connector-curvature="0" /></g><g
           id="g88"
           transform="translate(130.042,82.1383)"><path
             d="M 0,0 C 0.036,-0.094 0.051,-0.207 0.113,-0.278 0.287,-0.475 0.492,-0.644 0.664,-0.842 1.135,-1.386 1.395,-2.014 1.372,-2.745 1.229,-2.981 1.257,-3.347 0.842,-3.379 0.76,-3.386 0.693,-3.576 0.618,-3.681 0.309,-4.113 -0.262,-4.19 -0.6,-4.585 -0.698,-4.698 -0.825,-4.786 -0.935,-4.89 c -0.068,-0.065 -0.119,-0.155 -0.196,-0.205 -0.627,-0.398 -1.213,-0.848 -1.754,-1.356 -0.102,-0.095 -0.439,-0.212 -0.71,-0.255 0.122,0.319 0.206,0.662 0.381,0.95 0.109,0.18 0.139,0.343 0.147,0.531 0.01,0.255 0.007,0.511 0.03,0.764 0.07,0.776 0.04,1.54 -0.202,2.287 0.122,0.1 0.242,0.202 0.366,0.298 0.074,0.057 0.165,0.161 0.229,0.148 0.349,-0.067 0.521,0.181 0.725,0.372 0.31,0.288 0.692,0.474 0.996,0.789 0.206,0.213 0.455,0.442 0.733,0.602 0.064,-0.01 0.129,-0.021 0.193,-0.031 L 0,0 Z"
             style="fill:#81c9d0;fill-opacity:1;fill-rule:nonzero;stroke:none"
             id="path90"
             inkscape:connector-curvature="0" /></g><g
           id="g92"
           transform="translate(72.8792,82.8707)"><path
             d="M 0,0 C 0.012,-0.471 -0.056,-0.962 0.055,-1.409 0.238,-2.143 0.34,-2.915 0.768,-3.574 0.795,-3.616 0.742,-3.71 0.727,-3.779 0.484,-3.645 0.295,-3.483 0.136,-3.23 c -0.262,0.417 -0.628,0.768 -0.938,1.157 -0.123,0.155 -0.208,0.34 -0.323,0.502 -0.051,0.071 -0.138,0.116 -0.202,0.178 -0.128,0.125 -0.311,0.232 -0.366,0.384 -0.122,0.333 -0.388,0.549 -0.56,0.83 -0.151,0.245 -0.417,0.345 -0.551,0.567 -0.141,0.234 -0.261,0.5 -0.311,0.768 -0.161,0.86 -0.286,1.727 -0.381,2.611 0.204,-0.418 0.754,-0.554 0.821,-1.068 0.004,-0.033 0.062,-0.058 0.093,-0.088 0.276,-0.265 0.595,-0.5 0.81,-0.807 C -1.644,1.62 -1.291,1.652 -1.343,1.329 -0.76,1.023 -0.462,0.428 0,0"
             style="fill:#81c9d0;fill-opacity:1;fill-rule:nonzero;stroke:none"
             id="path94"
             inkscape:connector-curvature="0" /></g><g
           id="g96"
           transform="translate(133.3748,76.0496)"><path
             d="m 0,0 c -0.312,0.142 -0.663,0.105 -0.983,0.291 -0.407,0.237 -0.683,0.545 -0.885,0.949 0.212,0.3 0.419,0.604 0.639,0.898 0.069,0.091 0.183,0.146 0.261,0.232 0.067,0.073 0.152,0.162 0.161,0.252 0.047,0.425 0.202,0.626 0.636,0.664 0.212,0.019 0.343,0.059 0.459,0.253 0.072,0.12 0.176,0.26 0.401,0.265 0.116,0.002 0.236,0.261 0.339,0.415 0.274,0.41 0.538,0.827 0.81,1.239 0.013,0.02 0.056,0.02 0.177,0.06 C 1.85,4.972 1.701,4.476 1.548,3.982 1.46,3.694 1.368,3.408 1.271,3.122 1.021,2.383 0.785,1.638 0.507,0.909 0.384,0.589 0.172,0.302 0,0"
             style="fill:#79408d;fill-opacity:1;fill-rule:nonzero;stroke:none"
             id="path98"
             inkscape:connector-curvature="0" /></g><g
           id="g100"
           transform="translate(90.8718,90.0354)"><path
             d="M 0,0 C 0.065,-0.111 0.131,-0.223 0.196,-0.334 0.165,-0.351 0.134,-0.369 0.103,-0.386 l -0.175,0.304 C -0.048,-0.055 -0.024,-0.027 0,0"
             style="fill:#fefefe;fill-opacity:1;fill-rule:nonzero;stroke:none"
             id="path102"
             inkscape:connector-curvature="0" /></g><g
           id="g104"
           transform="translate(126.3361,75.0572)"><path
             d="M 0,0 C 0.039,0.128 0.078,0.256 0.116,0.384 0.078,0.256 0.039,0.128 0,0"
             style="fill:#81c9d0;fill-opacity:1;fill-rule:nonzero;stroke:none"
             id="path106"
             inkscape:connector-curvature="0" /></g><g
           id="g108"
           transform="translate(130.0453,82.1423)"><path
             d="m 0,0 c -0.064,0.01 -0.129,0.021 -0.193,0.031 0.057,0.047 0.114,0.094 0.171,0.141 C -0.015,0.114 -0.007,0.057 0,0"
             style="fill:#79408d;fill-opacity:1;fill-rule:nonzero;stroke:none"
             id="path110"
             inkscape:connector-curvature="0" /></g><g
           id="g112"
           transform="translate(78.0547,74.3085)"><path
             d="M 0,0 C 0.064,-0.036 0.127,-0.073 0.191,-0.109 0.127,-0.073 0.064,-0.036 0,0"
             style="fill:#81c9d0;fill-opacity:1;fill-rule:nonzero;stroke:none"
             id="path114"
             inkscape:connector-curvature="0" /></g><g
           id="g116"
           transform="translate(38.8109,15.1052)"><path
             d="m 0,0 c 0,-0.698 -0.242,-1.289 -0.726,-1.773 -0.484,-0.484 -1.067,-0.726 -1.75,-0.726 -0.698,0 -1.285,0.242 -1.761,0.726 -0.476,0.484 -0.714,1.075 -0.714,1.773 l 0,13.544 c 0,0.762 -0.147,1.484 -0.441,2.167 -0.293,0.682 -0.694,1.281 -1.202,1.797 -0.508,0.516 -1.107,0.924 -1.797,1.226 -0.69,0.301 -1.432,0.452 -2.226,0.452 -0.777,0 -1.507,-0.151 -2.19,-0.452 -0.682,-0.302 -1.281,-0.706 -1.797,-1.214 -0.515,-0.508 -0.92,-1.103 -1.214,-1.786 -0.293,-0.682 -0.44,-1.412 -0.44,-2.19 l 0,-13.544 c 0,-0.698 -0.242,-1.289 -0.726,-1.773 -0.484,-0.484 -1.067,-0.726 -1.75,-0.726 -0.698,0 -1.289,0.242 -1.773,0.726 -0.484,0.484 -0.726,1.075 -0.726,1.773 l 0,13.544 c 0,0.778 -0.151,1.508 -0.452,2.19 -0.302,0.683 -0.707,1.278 -1.214,1.786 -0.508,0.508 -1.103,0.912 -1.786,1.214 -0.682,0.301 -1.412,0.452 -2.19,0.452 -0.777,0 -1.507,-0.147 -2.19,-0.44 -0.682,-0.294 -1.281,-0.699 -1.797,-1.214 -0.516,-0.516 -0.92,-1.115 -1.214,-1.798 -0.293,-0.682 -0.44,-1.412 -0.44,-2.19 l 0,-13.544 c 0,-0.698 -0.242,-1.289 -0.726,-1.773 -0.484,-0.484 -1.067,-0.726 -1.75,-0.726 -0.698,0 -1.289,0.242 -1.773,0.726 -0.484,0.484 -0.726,1.075 -0.726,1.773 l 0,21.685 c 0,0.683 0.242,1.266 0.726,1.75 0.484,0.484 1.067,0.726 1.749,0.726 0.556,0 1.048,-0.155 1.476,-0.464 0.429,-0.31 0.722,-0.718 0.881,-1.226 1.698,1.127 3.626,1.69 5.784,1.69 1.587,0 3.079,-0.313 4.475,-0.94 1.397,-0.627 2.619,-1.575 3.666,-2.845 2.206,2.523 4.912,3.785 8.117,3.785 1.445,0 2.813,-0.282 4.107,-0.845 1.293,-0.563 2.42,-1.325 3.38,-2.285 0.96,-0.96 1.722,-2.087 2.285,-3.38 C -0.282,16.357 0,14.989 0,13.544 L 0,0 Z"
             style="fill:#ffffff;fill-opacity:1;fill-rule:nonzero;stroke:none"
             id="path118"
             inkscape:connector-curvature="0" /></g><g
           id="g120"
           transform="translate(57.6199,34.2912)"><path
             d="m 0,0 c -1.174,0 -2.269,-0.222 -3.285,-0.667 -1.016,-0.444 -1.896,-1.043 -2.642,-1.797 -0.746,-0.753 -1.337,-1.638 -1.774,-2.654 -0.436,-1.015 -0.654,-2.095 -0.654,-3.237 0,-1.143 0.218,-2.222 0.654,-3.238 0.437,-1.015 1.028,-1.9 1.774,-2.654 0.746,-0.753 1.626,-1.353 2.642,-1.797 1.016,-0.444 2.111,-0.666 3.285,-0.666 1.158,0 2.246,0.222 3.261,0.666 1.016,0.444 1.9,1.047 2.654,1.809 0.754,0.762 1.349,1.647 1.786,2.654 0.436,1.008 0.654,2.083 0.654,3.226 0,1.142 -0.218,2.218 -0.654,3.225 C 7.264,-4.122 6.669,-3.237 5.915,-2.476 5.161,-1.714 4.277,-1.111 3.261,-0.667 2.246,-0.222 1.158,0 0,0 m 8.355,-19.21 0,0.476 c -1.19,-0.952 -2.483,-1.682 -3.88,-2.19 -1.396,-0.508 -2.888,-0.761 -4.475,-0.761 -3.682,0 -6.824,1.301 -9.426,3.903 -2.603,2.603 -3.904,5.745 -3.904,9.427 0,3.681 1.301,6.824 3.904,9.426 2.602,2.603 5.744,3.904 9.426,3.904 3.65,0 6.792,-1.301 9.426,-3.904 2.603,-2.602 3.904,-5.745 3.904,-9.426 l 0,-10.855 c 0,-0.682 -0.242,-1.265 -0.726,-1.749 -0.484,-0.484 -1.067,-0.726 -1.749,-0.726 -0.699,0 -1.29,0.242 -1.774,0.726 -0.484,0.484 -0.726,1.067 -0.726,1.749"
             style="fill:#ffffff;fill-opacity:1;fill-rule:nonzero;stroke:none"
             id="path122"
             inkscape:connector-curvature="0" /></g><g
           id="g124"
           transform="translate(84.2149,25.9598)"><path
             d="m 0,0 -7.712,9.188 c -0.381,0.429 -0.572,0.976 -0.572,1.643 0,0.333 0.064,0.65 0.191,0.952 0.127,0.301 0.301,0.567 0.523,0.797 0.223,0.231 0.484,0.409 0.786,0.536 0.301,0.127 0.627,0.19 0.976,0.19 0.746,0 1.365,-0.269 1.857,-0.809 l 7.188,-8.593 7.189,8.593 c 0.476,0.54 1.087,0.809 1.833,0.809 0.349,0 0.674,-0.063 0.976,-0.19 0.302,-0.127 0.563,-0.305 0.786,-0.536 0.222,-0.23 0.4,-0.496 0.535,-0.797 0.135,-0.302 0.202,-0.619 0.202,-0.952 0,-0.603 -0.198,-1.151 -0.595,-1.643 L 6.451,0 14.235,-9.331 c 0.349,-0.397 0.523,-0.913 0.523,-1.547 0,-0.334 -0.067,-0.651 -0.202,-0.953 -0.135,-0.301 -0.313,-0.567 -0.535,-0.797 -0.223,-0.23 -0.484,-0.409 -0.786,-0.536 -0.302,-0.127 -0.627,-0.19 -0.976,-0.19 -0.682,0 -1.277,0.254 -1.785,0.762 l -7.237,8.712 -7.284,-8.712 c -0.476,-0.508 -1.063,-0.762 -1.761,-0.762 -0.349,0 -0.675,0.063 -0.976,0.19 -0.302,0.127 -0.563,0.306 -0.786,0.536 -0.222,0.23 -0.396,0.496 -0.523,0.797 -0.127,0.302 -0.191,0.619 -0.191,0.953 0,0.618 0.167,1.134 0.5,1.547 L 0,0 Z"
             style="fill:#ffffff;fill-opacity:1;fill-rule:nonzero;stroke:none"
             id="path126"
             inkscape:connector-curvature="0" /></g><g
           id="g128"
           transform="translate(141.4912,15.1052)"><path
             d="m 0,0 c 0,-0.698 -0.242,-1.289 -0.726,-1.773 -0.484,-0.484 -1.067,-0.726 -1.75,-0.726 -0.698,0 -1.285,0.242 -1.761,0.726 -0.476,0.484 -0.714,1.075 -0.714,1.773 l 0,13.544 c 0,0.762 -0.147,1.484 -0.441,2.167 -0.293,0.682 -0.694,1.281 -1.202,1.797 -0.508,0.516 -1.107,0.924 -1.797,1.226 -0.69,0.301 -1.432,0.452 -2.226,0.452 -0.777,0 -1.507,-0.151 -2.19,-0.452 -0.682,-0.302 -1.281,-0.706 -1.797,-1.214 -0.515,-0.508 -0.92,-1.103 -1.214,-1.786 -0.293,-0.682 -0.44,-1.412 -0.44,-2.19 l 0,-13.544 c 0,-0.698 -0.242,-1.289 -0.726,-1.773 -0.484,-0.484 -1.067,-0.726 -1.75,-0.726 -0.698,0 -1.289,0.242 -1.773,0.726 -0.484,0.484 -0.726,1.075 -0.726,1.773 l 0,13.544 c 0,0.778 -0.151,1.508 -0.452,2.19 -0.302,0.683 -0.707,1.278 -1.214,1.786 -0.508,0.508 -1.103,0.912 -1.786,1.214 -0.682,0.301 -1.412,0.452 -2.19,0.452 -0.777,0 -1.507,-0.147 -2.19,-0.44 -0.682,-0.294 -1.281,-0.699 -1.797,-1.214 -0.516,-0.516 -0.92,-1.115 -1.214,-1.798 -0.293,-0.682 -0.44,-1.412 -0.44,-2.19 l 0,-13.544 c 0,-0.698 -0.242,-1.289 -0.726,-1.773 -0.484,-0.484 -1.067,-0.726 -1.75,-0.726 -0.698,0 -1.289,0.242 -1.773,0.726 -0.484,0.484 -0.726,1.075 -0.726,1.773 l 0,21.685 c 0,0.683 0.242,1.266 0.726,1.75 0.484,0.484 1.067,0.726 1.749,0.726 0.556,0 1.048,-0.155 1.476,-0.464 0.429,-0.31 0.722,-0.718 0.881,-1.226 1.698,1.127 3.626,1.69 5.784,1.69 1.587,0 3.079,-0.313 4.475,-0.94 1.397,-0.627 2.619,-1.575 3.666,-2.845 2.206,2.523 4.912,3.785 8.117,3.785 1.445,0 2.813,-0.282 4.107,-0.845 1.293,-0.563 2.42,-1.325 3.38,-2.285 0.96,-0.96 1.722,-2.087 2.285,-3.38 C -0.282,16.357 0,14.989 0,13.544 L 0,0 Z"
             style="fill:#ffffff;fill-opacity:1;fill-rule:nonzero;stroke:none"
             id="path130"
             inkscape:connector-curvature="0" /></g><g
           id="g132"
           transform="translate(160.3023,34.2912)"><path
             d="m 0,0 c -1.174,0 -2.269,-0.222 -3.285,-0.667 -1.016,-0.444 -1.896,-1.043 -2.642,-1.797 -0.746,-0.753 -1.337,-1.638 -1.774,-2.654 -0.436,-1.015 -0.654,-2.095 -0.654,-3.237 0,-1.143 0.218,-2.222 0.654,-3.238 0.437,-1.015 1.028,-1.9 1.774,-2.654 0.746,-0.753 1.626,-1.353 2.642,-1.797 1.016,-0.444 2.111,-0.666 3.285,-0.666 1.158,0 2.245,0.222 3.261,0.666 1.016,0.444 1.9,1.047 2.654,1.809 0.754,0.762 1.349,1.647 1.786,2.654 0.436,1.008 0.654,2.083 0.654,3.226 0,1.142 -0.218,2.218 -0.654,3.225 C 7.264,-4.122 6.669,-3.237 5.915,-2.476 5.161,-1.714 4.277,-1.111 3.261,-0.667 2.245,-0.222 1.158,0 0,0 m 8.355,-19.21 0,0.476 c -1.19,-0.952 -2.483,-1.682 -3.88,-2.19 -1.396,-0.508 -2.888,-0.761 -4.475,-0.761 -3.682,0 -6.824,1.301 -9.426,3.903 -2.603,2.603 -3.904,5.745 -3.904,9.427 0,3.681 1.301,6.824 3.904,9.426 2.602,2.603 5.744,3.904 9.426,3.904 3.65,0 6.792,-1.301 9.426,-3.904 2.603,-2.602 3.904,-5.745 3.904,-9.426 l 0,-10.855 c 0,-0.682 -0.242,-1.265 -0.726,-1.749 -0.484,-0.484 -1.067,-0.726 -1.749,-0.726 -0.699,0 -1.29,0.242 -1.774,0.726 -0.484,0.484 -0.726,1.067 -0.726,1.749"
             style="fill:#ffffff;fill-opacity:1;fill-rule:nonzero;stroke:none"
             id="path134"
             inkscape:connector-curvature="0" /></g><g
           id="g136"
           transform="translate(183.6342,25.936)"><path
             d="m 0,0 c 0,-1.143 0.218,-2.222 0.655,-3.237 0.436,-1.016 1.027,-1.901 1.773,-2.654 0.746,-0.754 1.627,-1.353 2.642,-1.798 1.016,-0.444 2.111,-0.666 3.285,-0.666 1.159,0 2.246,0.222 3.261,0.666 1.016,0.445 1.901,1.048 2.654,1.809 0.754,0.762 1.349,1.647 1.786,2.655 0.436,1.007 0.654,2.082 0.654,3.225 0,1.143 -0.218,2.218 -0.654,3.225 C 15.619,4.233 15.024,5.118 14.27,5.88 13.517,6.641 12.632,7.244 11.616,7.689 10.601,8.133 9.514,8.355 8.355,8.355 7.181,8.355 6.086,8.133 5.07,7.689 4.055,7.244 3.174,6.645 2.428,5.891 1.682,5.138 1.091,4.253 0.655,3.237 0.218,2.222 0,1.143 0,0 m 8.355,-13.33 c -3.19,0 -5.975,0.976 -8.355,2.928 l 0,-11.879 c 0,-0.714 -0.242,-1.305 -0.726,-1.773 -0.484,-0.468 -1.075,-0.702 -1.773,-0.702 -0.715,0 -1.306,0.234 -1.774,0.702 -0.468,0.468 -0.702,1.059 -0.702,1.773 l 0,22.281 c 0,3.682 1.301,6.824 3.904,9.426 2.602,2.603 5.745,3.904 9.426,3.904 3.65,0 6.792,-1.301 9.427,-3.904 C 19.083,8.141 20.059,6.709 20.709,5.13 21.36,3.551 21.685,1.841 21.685,0 c 0,-3.713 -1.301,-6.856 -3.903,-9.426 -1.333,-1.318 -2.782,-2.297 -4.345,-2.94 -1.563,-0.643 -3.257,-0.964 -5.082,-0.964"
             style="fill:#ffffff;fill-opacity:1;fill-rule:nonzero;stroke:none"
             id="path138"
             inkscape:connector-curvature="0" /></g></g></g></g></svg>