<?xml version="1.0" encoding="UTF-8" standalone="no"?>
<!-- Created with Inkscape (http://www.inkscape.org/) -->

<svg
   xmlns:dc="http://purl.org/dc/elements/1.1/"
   xmlns:cc="http://creativecommons.org/ns#"
   xmlns:rdf="http://www.w3.org/1999/02/22-rdf-syntax-ns#"
   xmlns:svg="http://www.w3.org/2000/svg"
   xmlns="http://www.w3.org/2000/svg"
   xmlns:sodipodi="http://sodipodi.sourceforge.net/DTD/sodipodi-0.dtd"
   xmlns:inkscape="http://www.inkscape.org/namespaces/inkscape"
   id="svg2"
   version="1.1"
   inkscape:version="0.91 r13725"
   xml:space="preserve"
   width="257.5"
   height="50.535374"
   viewBox="0 0 257.5 50.535374"
   sodipodi:docname="logo_maxmapsolo.svg"><metadata
     id="metadata8"><rdf:RDF><cc:Work
         rdf:about=""><dc:format>image/svg+xml</dc:format><dc:type
           rdf:resource="http://purl.org/dc/dcmitype/StillImage" /><dc:title></dc:title></cc:Work></rdf:RDF></metadata><defs
     id="defs6"><clipPath
       clipPathUnits="userSpaceOnUse"
       id="clipPath16"><path
         d="m 0,40.428 206,0 L 206,0 0,0 0,40.428 Z"
         id="path18"
         inkscape:connector-curvature="0" /></clipPath></defs><sodipodi:namedview
     pagecolor="#ffffff"
     bordercolor="#666666"
     borderopacity="1"
     objecttolerance="10"
     gridtolerance="10"
     guidetolerance="10"
     inkscape:pageopacity="0"
     inkscape:pageshadow="2"
     inkscape:window-width="823"
     inkscape:window-height="480"
     id="namedview4"
     showgrid="false"
     inkscape:zoom="1.1203867"
     inkscape:cx="104.4378"
     inkscape:cy="12.467388"
     inkscape:window-x="55"
     inkscape:window-y="24"
     inkscape:window-maximized="0"
     inkscape:current-layer="g10" /><g
     id="g10"
     inkscape:groupmode="layer"
     inkscape:label="logo_maxmapsolo"
     transform="matrix(1.25,0,0,-1.25,0,50.535375)"><g
       id="g12"><g
         id="g14"
         clip-path="url(#clipPath16)"><g
           id="g20"
           transform="translate(38.8109,14.8784)"><path
             d="m 0,0 c 0,-0.698 -0.242,-1.289 -0.726,-1.773 -0.484,-0.484 -1.067,-0.726 -1.75,-0.726 -0.698,0 -1.285,0.242 -1.761,0.726 -0.476,0.484 -0.714,1.075 -0.714,1.773 l 0,13.544 c 0,0.762 -0.147,1.484 -0.441,2.167 -0.293,0.682 -0.694,1.281 -1.202,1.797 -0.508,0.516 -1.107,0.924 -1.797,1.226 -0.69,0.301 -1.432,0.452 -2.226,0.452 -0.777,0 -1.507,-0.151 -2.19,-0.452 -0.682,-0.302 -1.281,-0.706 -1.797,-1.214 -0.515,-0.508 -0.92,-1.103 -1.214,-1.786 -0.293,-0.682 -0.44,-1.412 -0.44,-2.19 l 0,-13.544 c 0,-0.698 -0.242,-1.289 -0.726,-1.773 -0.484,-0.484 -1.067,-0.726 -1.75,-0.726 -0.698,0 -1.289,0.242 -1.773,0.726 -0.484,0.484 -0.726,1.075 -0.726,1.773 l 0,13.544 c 0,0.778 -0.151,1.508 -0.452,2.19 -0.302,0.683 -0.707,1.278 -1.214,1.786 -0.508,0.508 -1.103,0.912 -1.786,1.214 -0.682,0.301 -1.412,0.452 -2.19,0.452 -0.777,0 -1.507,-0.147 -2.19,-0.44 -0.682,-0.294 -1.281,-0.699 -1.797,-1.214 -0.516,-0.516 -0.92,-1.115 -1.214,-1.798 -0.293,-0.682 -0.44,-1.412 -0.44,-2.19 l 0,-13.544 c 0,-0.698 -0.242,-1.289 -0.726,-1.773 -0.484,-0.484 -1.067,-0.726 -1.75,-0.726 -0.698,0 -1.289,0.242 -1.773,0.726 -0.484,0.484 -0.726,1.075 -0.726,1.773 l 0,21.685 c 0,0.683 0.242,1.266 0.726,1.75 0.484,0.484 1.067,0.726 1.749,0.726 0.556,0 1.048,-0.155 1.476,-0.464 0.429,-0.31 0.722,-0.718 0.881,-1.226 1.698,1.127 3.626,1.69 5.784,1.69 1.587,0 3.079,-0.313 4.475,-0.94 1.397,-0.627 2.619,-1.575 3.666,-2.845 2.206,2.523 4.912,3.785 8.117,3.785 1.445,0 2.813,-0.282 4.107,-0.845 1.293,-0.563 2.42,-1.325 3.38,-2.285 0.96,-0.96 1.722,-2.087 2.285,-3.38 C -0.282,16.357 0,14.989 0,13.544 L 0,0 Z"
             style="fill:#ffffff;fill-opacity:1;fill-rule:nonzero;stroke:none"
             id="path22"
             inkscape:connector-curvature="0" /></g><g
           id="g24"
           transform="translate(57.6199,34.0644)"><path
             d="m 0,0 c -1.174,0 -2.269,-0.222 -3.285,-0.667 -1.016,-0.444 -1.896,-1.043 -2.642,-1.797 -0.746,-0.754 -1.337,-1.638 -1.774,-2.654 -0.436,-1.015 -0.654,-2.095 -0.654,-3.237 0,-1.143 0.218,-2.222 0.654,-3.238 0.437,-1.015 1.028,-1.9 1.774,-2.654 0.746,-0.753 1.626,-1.353 2.642,-1.797 1.016,-0.444 2.111,-0.666 3.285,-0.666 1.158,0 2.246,0.222 3.261,0.666 1.016,0.444 1.9,1.047 2.654,1.809 0.754,0.762 1.349,1.647 1.786,2.654 0.436,1.008 0.654,2.083 0.654,3.226 0,1.142 -0.218,2.218 -0.654,3.225 C 7.264,-4.122 6.669,-3.237 5.915,-2.476 5.161,-1.714 4.277,-1.111 3.261,-0.667 2.246,-0.222 1.158,0 0,0 m 8.355,-19.21 0,0.476 c -1.19,-0.952 -2.483,-1.682 -3.88,-2.19 -1.396,-0.508 -2.888,-0.761 -4.475,-0.761 -3.682,0 -6.824,1.301 -9.426,3.903 -2.603,2.603 -3.904,5.745 -3.904,9.427 0,3.681 1.301,6.824 3.904,9.426 2.602,2.603 5.744,3.904 9.426,3.904 3.65,0 6.792,-1.301 9.426,-3.904 2.603,-2.602 3.904,-5.745 3.904,-9.426 l 0,-10.855 c 0,-0.682 -0.242,-1.265 -0.726,-1.749 -0.484,-0.484 -1.067,-0.726 -1.749,-0.726 -0.699,0 -1.29,0.242 -1.774,0.726 -0.484,0.484 -0.726,1.067 -0.726,1.749"
             style="fill:#ffffff;fill-opacity:1;fill-rule:nonzero;stroke:none"
             id="path26"
             inkscape:connector-curvature="0" /></g><g
           id="g28"
           transform="translate(84.2149,25.733)"><path
             d="m 0,0 -7.712,9.188 c -0.381,0.429 -0.572,0.976 -0.572,1.643 0,0.333 0.064,0.65 0.191,0.952 0.127,0.301 0.301,0.567 0.523,0.797 0.223,0.231 0.484,0.409 0.786,0.536 0.301,0.127 0.627,0.19 0.976,0.19 0.746,0 1.365,-0.269 1.857,-0.809 l 7.188,-8.593 7.189,8.593 c 0.476,0.54 1.087,0.809 1.833,0.809 0.349,0 0.674,-0.063 0.976,-0.19 0.302,-0.127 0.563,-0.305 0.786,-0.536 0.222,-0.23 0.4,-0.496 0.535,-0.797 0.135,-0.302 0.202,-0.619 0.202,-0.952 0,-0.603 -0.198,-1.151 -0.595,-1.643 L 6.451,0 14.235,-9.331 c 0.349,-0.397 0.523,-0.913 0.523,-1.547 0,-0.334 -0.067,-0.651 -0.202,-0.953 -0.135,-0.301 -0.313,-0.567 -0.535,-0.797 -0.223,-0.23 -0.484,-0.409 -0.786,-0.536 -0.302,-0.127 -0.627,-0.19 -0.976,-0.19 -0.682,0 -1.277,0.254 -1.785,0.762 l -7.237,8.712 -7.284,-8.712 c -0.476,-0.508 -1.063,-0.762 -1.761,-0.762 -0.349,0 -0.675,0.063 -0.976,0.19 -0.302,0.127 -0.563,0.306 -0.786,0.536 -0.222,0.23 -0.396,0.496 -0.523,0.797 -0.127,0.302 -0.191,0.619 -0.191,0.953 0,0.618 0.167,1.134 0.5,1.547 L 0,0 Z"
             style="fill:#ffffff;fill-opacity:1;fill-rule:nonzero;stroke:none"
             id="path30"
             inkscape:connector-curvature="0" /></g><g
           id="g32"
           transform="translate(141.4912,14.8784)"><path
             d="m 0,0 c 0,-0.698 -0.242,-1.289 -0.726,-1.773 -0.484,-0.484 -1.067,-0.726 -1.75,-0.726 -0.698,0 -1.285,0.242 -1.761,0.726 -0.476,0.484 -0.714,1.075 -0.714,1.773 l 0,13.544 c 0,0.762 -0.147,1.484 -0.441,2.167 -0.293,0.682 -0.694,1.281 -1.202,1.797 -0.508,0.516 -1.107,0.924 -1.797,1.226 -0.69,0.301 -1.432,0.452 -2.226,0.452 -0.777,0 -1.507,-0.151 -2.19,-0.452 -0.682,-0.302 -1.281,-0.706 -1.797,-1.214 -0.515,-0.508 -0.92,-1.103 -1.214,-1.786 -0.293,-0.682 -0.44,-1.412 -0.44,-2.19 l 0,-13.544 c 0,-0.698 -0.242,-1.289 -0.726,-1.773 -0.484,-0.484 -1.067,-0.726 -1.75,-0.726 -0.698,0 -1.289,0.242 -1.773,0.726 -0.484,0.484 -0.726,1.075 -0.726,1.773 l 0,13.544 c 0,0.778 -0.151,1.508 -0.452,2.19 -0.302,0.683 -0.707,1.278 -1.214,1.786 -0.508,0.508 -1.103,0.912 -1.786,1.214 -0.682,0.301 -1.412,0.452 -2.19,0.452 -0.777,0 -1.507,-0.147 -2.19,-0.44 -0.682,-0.294 -1.281,-0.699 -1.797,-1.214 -0.516,-0.516 -0.92,-1.115 -1.214,-1.798 -0.293,-0.682 -0.44,-1.412 -0.44,-2.19 l 0,-13.544 c 0,-0.698 -0.242,-1.289 -0.726,-1.773 -0.484,-0.484 -1.067,-0.726 -1.75,-0.726 -0.698,0 -1.289,0.242 -1.773,0.726 -0.484,0.484 -0.726,1.075 -0.726,1.773 l 0,21.685 c 0,0.683 0.242,1.266 0.726,1.75 0.484,0.484 1.067,0.726 1.749,0.726 0.556,0 1.048,-0.155 1.476,-0.464 0.429,-0.31 0.722,-0.718 0.881,-1.226 1.698,1.127 3.626,1.69 5.784,1.69 1.587,0 3.079,-0.313 4.475,-0.94 1.397,-0.627 2.619,-1.575 3.666,-2.845 2.206,2.523 4.912,3.785 8.117,3.785 1.445,0 2.813,-0.282 4.107,-0.845 1.293,-0.563 2.42,-1.325 3.38,-2.285 0.96,-0.96 1.722,-2.087 2.285,-3.38 C -0.282,16.357 0,14.989 0,13.544 L 0,0 Z"
             style="fill:#ffffff;fill-opacity:1;fill-rule:nonzero;stroke:none"
             id="path34"
             inkscape:connector-curvature="0" /></g><g
           id="g36"
           transform="translate(160.3023,34.0644)"><path
             d="m 0,0 c -1.174,0 -2.269,-0.222 -3.285,-0.667 -1.016,-0.444 -1.896,-1.043 -2.642,-1.797 -0.746,-0.754 -1.337,-1.638 -1.774,-2.654 -0.436,-1.015 -0.654,-2.095 -0.654,-3.237 0,-1.143 0.218,-2.222 0.654,-3.238 0.437,-1.015 1.028,-1.9 1.774,-2.654 0.746,-0.753 1.626,-1.353 2.642,-1.797 1.016,-0.444 2.111,-0.666 3.285,-0.666 1.158,0 2.245,0.222 3.261,0.666 1.016,0.444 1.9,1.047 2.654,1.809 0.754,0.762 1.349,1.647 1.786,2.654 0.436,1.008 0.654,2.083 0.654,3.226 0,1.142 -0.218,2.218 -0.654,3.225 C 7.264,-4.122 6.669,-3.237 5.915,-2.476 5.161,-1.714 4.277,-1.111 3.261,-0.667 2.245,-0.222 1.158,0 0,0 m 8.355,-19.21 0,0.476 c -1.19,-0.952 -2.483,-1.682 -3.88,-2.19 -1.396,-0.508 -2.888,-0.761 -4.475,-0.761 -3.682,0 -6.824,1.301 -9.426,3.903 -2.603,2.603 -3.904,5.745 -3.904,9.427 0,3.681 1.301,6.824 3.904,9.426 2.602,2.603 5.744,3.904 9.426,3.904 3.65,0 6.792,-1.301 9.426,-3.904 2.603,-2.602 3.904,-5.745 3.904,-9.426 l 0,-10.855 c 0,-0.682 -0.242,-1.265 -0.726,-1.749 -0.484,-0.484 -1.067,-0.726 -1.749,-0.726 -0.699,0 -1.29,0.242 -1.774,0.726 -0.484,0.484 -0.726,1.067 -0.726,1.749"
             style="fill:#ffffff;fill-opacity:1;fill-rule:nonzero;stroke:none"
             id="path38"
             inkscape:connector-curvature="0" /></g><g
           id="g40"
           transform="translate(183.6342,25.7092)"><path
             d="m 0,0 c 0,-1.143 0.218,-2.222 0.655,-3.237 0.436,-1.016 1.027,-1.901 1.773,-2.654 0.746,-0.754 1.627,-1.353 2.642,-1.798 1.016,-0.444 2.111,-0.666 3.285,-0.666 1.159,0 2.246,0.222 3.261,0.666 1.016,0.445 1.901,1.048 2.654,1.809 0.754,0.762 1.349,1.647 1.786,2.655 0.436,1.007 0.654,2.082 0.654,3.225 0,1.143 -0.218,2.218 -0.654,3.225 C 15.619,4.233 15.024,5.118 14.27,5.88 13.517,6.641 12.632,7.244 11.616,7.689 10.601,8.133 9.514,8.355 8.355,8.355 7.181,8.355 6.086,8.133 5.07,7.689 4.055,7.244 3.174,6.645 2.428,5.891 1.682,5.138 1.091,4.253 0.655,3.237 0.218,2.222 0,1.143 0,0 m 8.355,-13.33 c -3.19,0 -5.975,0.976 -8.355,2.928 l 0,-11.879 c 0,-0.714 -0.242,-1.305 -0.726,-1.773 -0.484,-0.468 -1.075,-0.702 -1.773,-0.702 -0.715,0 -1.306,0.234 -1.774,0.702 -0.468,0.468 -0.702,1.059 -0.702,1.773 l 0,22.281 c 0,3.682 1.301,6.824 3.904,9.426 2.602,2.603 5.745,3.904 9.426,3.904 3.65,0 6.792,-1.301 9.427,-3.904 C 19.083,8.141 20.059,6.709 20.709,5.13 21.36,3.551 21.685,1.841 21.685,0 c 0,-3.713 -1.301,-6.856 -3.903,-9.426 -1.333,-1.318 -2.782,-2.297 -4.345,-2.94 -1.563,-0.643 -3.257,-0.964 -5.082,-0.964"
             style="fill:#ffffff;fill-opacity:1;fill-rule:nonzero;stroke:none"
             id="path42"
             inkscape:connector-curvature="0" /></g></g></g></g></svg>